<svg width="35" height="36" viewBox="0 0 35 36" fill="none" xmlns="http://www.w3.org/2000/svg">
<g clip-path="url(#clip0_6055_4242)">
<path d="M0.945038 17.2537V18.7461C0.945038 27.9248 8.38701 35.3668 17.5657 35.3668C26.7443 35.3668 34.1863 27.9248 34.1863 18.7461V17.2537H0.945038Z" fill="#DB5800"/>
<path d="M17.5657 33.8743C26.745 33.8743 34.1863 26.433 34.1863 17.2537C34.1863 8.07437 26.745 0.633057 17.5657 0.633057C8.38635 0.633057 0.945038 8.07437 0.945038 17.2537C0.945038 26.433 8.38635 33.8743 17.5657 33.8743Z" fill="#FFCE33"/>
<path d="M34.1863 17.2537V17.5929C34.0031 8.57026 26.629 1.31145 17.5657 1.31145C8.50234 1.31145 1.1282 8.57026 0.951822 17.5929C0.951822 17.4776 0.945038 17.369 0.945038 17.2537C0.945038 8.07503 8.38701 0.633057 17.5657 0.633057C26.7443 0.633057 34.1863 8.07503 34.1863 17.2537Z" fill="#FFF0B3"/>
<path d="M30.6315 18.1629C30.6315 25.381 24.7838 31.2288 17.5657 31.2288C10.3476 31.2288 4.49982 25.381 4.49982 18.1629C4.49982 18.0476 4.49982 17.9391 4.5066 17.8237C4.68298 24.8858 10.4629 30.5504 17.5657 30.5504C24.6684 30.5504 30.4484 24.8858 30.6315 17.8237V18.1629Z" fill="#FFF0B3"/>
<g opacity="0.6">
<path d="M30.6587 7.01684L2.57997 24.4515C1.52846 22.2739 0.945038 19.8317 0.945038 17.2538C0.945038 16.4669 0.999309 15.7003 1.10785 14.9405L22.8029 1.47437C25.9438 2.51909 28.6642 4.46608 30.6587 7.01684ZM34.0371 15.0083L8.24455 31.0184C9.86591 32.1174 11.6976 32.945 13.6581 33.4131L33.7793 20.9239C34.0438 19.7435 34.1863 18.5156 34.1863 17.2538C34.1863 16.494 34.132 15.741 34.0371 15.0083ZM32.4361 9.8186L4.30987 27.2804C4.76439 27.8842 5.25962 28.4541 5.79555 28.99L33.3112 11.9081C33.067 11.189 32.7685 10.4902 32.4361 9.8186Z" fill="#FFF0B3"/>
</g>
<path d="M17.5658 30.5502C24.7818 30.5502 30.6316 24.7004 30.6316 17.4843C30.6316 10.2682 24.7818 4.41846 17.5658 4.41846C10.3497 4.41846 4.49991 10.2682 4.49991 17.4843C4.49991 24.7004 10.3497 30.5502 17.5658 30.5502Z" fill="#F28A00"/>
<path d="M30.6315 17.4843C30.6315 17.715 30.6247 17.9456 30.6112 18.1695C30.2584 11.277 24.5531 5.78881 17.5657 5.78881C10.5782 5.78881 4.87294 11.277 4.51339 18.1695C4.49983 17.9388 4.49304 17.715 4.49304 17.4843C4.49983 10.2662 10.3476 4.41846 17.5657 4.41846C24.7838 4.41846 30.6315 10.2662 30.6315 17.4843Z" fill="#DB5800"/>
<path d="M24.18 19.7501L24.1257 19.7637C23.9019 18.4408 23.0064 17.7828 21.731 17.4775C22.6265 17.0162 23.2167 16.2428 23.1963 14.9878V14.2959L23.1285 14.323C22.7893 12.566 21.134 11.9622 19.0785 11.779V9.00439H17.3893V11.7044C16.9483 11.7044 16.4938 11.7112 16.0393 11.7248V9.00439H14.3501V11.779C13.9838 11.7858 13.6242 11.7926 13.2714 11.7926V11.7858H10.9446V13.5903C10.9446 13.5903 12.1928 13.5632 12.1724 13.5903C12.8576 13.5903 13.0815 13.9906 13.1426 14.3298V17.4911C13.19 17.4911 13.2511 17.4911 13.3189 17.5047C13.2647 17.5047 13.2036 17.5047 13.1426 17.5047V21.9346C13.1154 22.1517 12.9865 22.4909 12.5049 22.4909C12.5252 22.5112 11.277 22.4909 11.277 22.4909L11.0599 23.7866L10.9378 23.8273V24.5057H13.1358C13.5428 24.5057 13.9498 24.5125 14.3433 24.5125V27.321H16.0325V24.5464C16.4938 24.5532 16.9416 24.5599 17.3825 24.5599V27.321H19.0717V24.5192C21.9142 24.3564 23.9019 23.6373 24.1461 20.978C24.1664 20.7745 24.1732 20.5846 24.1732 20.4082L24.18 19.7501ZM16.0868 13.7124C17.0433 13.7124 20.035 13.4072 20.035 15.4016C20.035 17.3079 17.0433 17.0841 16.0868 17.0908V13.7124ZM16.0868 22.5044V18.7868C17.2333 18.7868 20.822 18.4544 20.822 20.6456C20.822 22.7419 17.2265 22.4976 16.0868 22.5044Z" fill="#BC4C00"/>
<path d="M23.1825 13.9636C22.9926 11.9624 21.2627 11.2907 19.085 11.1008V8.32617H17.3958V11.0262C16.9549 11.0262 16.5004 11.033 16.0458 11.0465V8.32617H14.3566V11.1008C13.9903 11.1076 13.6308 11.1144 13.278 11.1144V11.1076H10.9511V12.9121C10.9511 12.9121 12.1994 12.885 12.179 12.9121C12.8642 12.9121 13.088 13.3124 13.1491 13.6516V16.8129C13.1966 16.8129 13.2576 16.8129 13.3255 16.8264C13.2712 16.8264 13.2102 16.8264 13.1491 16.8264V21.2563C13.122 21.4734 12.9931 21.8126 12.5114 21.8126C12.5318 21.833 11.2835 21.8126 11.2835 21.8126L10.9511 23.8275H13.1491C13.5561 23.8275 13.9632 23.8342 14.3566 23.8342V26.6428H16.0458V23.8682C16.5072 23.8749 16.9549 23.8817 17.3958 23.8817V26.6428H19.085V23.841C21.9275 23.6782 23.9152 22.9591 24.1594 20.2998C24.3562 18.1561 23.3454 17.1928 21.7376 16.8061C22.7144 16.3041 23.325 15.4289 23.1825 13.9636ZM20.8217 19.9674C20.8217 22.0636 17.233 21.8262 16.0865 21.8262V18.1086C17.2262 18.1086 20.8217 17.7762 20.8217 19.9674ZM20.0348 14.7166C20.0348 16.6229 17.0431 16.399 16.0865 16.4058V13.0342C17.0363 13.0342 20.0348 12.7289 20.0348 14.7166Z" fill="#FFCE33"/>
<g opacity="0.6">
<path d="M21.7311 16.806C22.5451 17.0028 23.21 17.342 23.6373 17.9118L20.7949 19.6756C20.6524 18.7937 19.8383 18.3935 18.9089 18.2171L22.8708 15.7613C22.613 16.2158 22.2195 16.555 21.7311 16.806ZM16.08 21.8261V19.9741L11.0735 23.0812L10.9514 23.8274H13.1494C13.4682 23.8274 13.7871 23.8342 14.0991 23.8342L17.3351 21.8261C16.8263 21.8397 16.3718 21.8261 16.08 21.8261ZM13.1494 16.8196V17.8915L16.08 16.0666V13.0274C16.8466 13.0274 18.9496 12.8306 19.7298 13.8008L22.328 12.1862C21.5818 11.5146 20.415 11.2161 19.0785 11.094V8.31934H17.3893V11.0193C16.9484 11.0193 16.4939 11.0261 16.0393 11.0397V8.31934H14.3501V11.094C13.9838 11.1007 13.6243 11.1075 13.2715 11.1075V11.1007H10.9446V12.9121C10.9446 12.9121 12.1929 12.8849 12.1725 12.9121C12.8577 12.9121 13.0815 13.3123 13.1426 13.6515V16.8128C13.1901 16.8128 13.2511 16.8128 13.319 16.8264C13.2715 16.8196 13.2104 16.8196 13.1494 16.8196ZM19.0785 24.2887L17.3893 25.3402V26.6427H19.0785V24.2887ZM19.913 23.7731C21.9481 23.5493 23.4338 22.9251 23.9698 21.2563L19.913 23.7731ZM16.0461 26.1746L15.2931 26.6427H16.0461V26.1746Z" fill="#FFF0B3"/>
</g>
</g>
<defs>
<clipPath id="clip0_6055_4242">
<rect width="34.7337" height="34.7337" fill="white" transform="translate(0.198822 0.633057)"/>
</clipPath>
</defs>
</svg>
