<svg width="723" height="422" viewBox="0 0 723 422" fill="none" xmlns="http://www.w3.org/2000/svg">
<path d="M178.905 313.193L127.826 261.877L153.509 214.706C179.193 181.815 233.571 183.93 233.571 183.93C260.398 182.107 287.349 183.762 313.751 188.854C356.946 197.313 353.461 225.839 353.461 225.839L359.247 331.703L365.457 417.907L206.162 421.121L178.905 313.261" fill="#116EFC"/>
<path d="M264.719 416.079L122.039 417.771C114.179 417.863 106.425 415.955 99.5046 412.227C92.5844 408.499 86.7254 403.073 82.4778 396.459C78.2303 389.844 75.7336 382.259 75.2223 374.415C74.7109 366.572 76.2017 358.727 79.5547 351.617L140.566 238.478L196.145 276.039L158.229 354.662L273.72 356.727L264.719 416.079Z" fill="#116EFC"/>
<path d="M348.419 208.582L462.911 385.354L396.114 389.719C396.114 389.719 356.218 326.864 357.115 328.15C358.706 330.519 348.419 208.582 348.419 208.582Z" fill="#116EFC"/>
<path d="M193.269 286.207C193.273 285.897 193.325 285.589 193.421 285.293C193.591 284.617 193.777 283.771 194.03 282.722C194.555 280.505 195.333 277.291 196.128 273.298C196.924 269.305 197.82 264.5 198.379 259.153C199.066 253.359 199.066 247.504 198.379 241.709C197.461 235.964 195.457 230.446 192.474 225.45C190.077 221.337 187.24 217.496 184.014 213.996C181.84 211.603 179.523 209.343 177.077 207.228C176.145 206.498 175.252 205.719 174.404 204.893C174.679 205.03 174.94 205.194 175.182 205.384C175.656 205.739 176.417 206.23 177.297 206.957C179.841 208.966 182.239 211.154 184.471 213.505C187.806 216.98 190.735 220.823 193.201 224.959C196.289 230.032 198.358 235.659 199.292 241.523C199.962 247.389 199.917 253.315 199.157 259.17C198.586 263.934 197.772 268.667 196.721 273.348C195.841 277.358 195.029 280.556 194.335 282.756C194.03 283.855 193.76 284.701 193.574 285.277C193.502 285.596 193.4 285.907 193.269 286.207Z" fill="#263238"/>
<path d="M188.667 292.298C188.422 293.179 188.094 294.035 187.685 294.853C187.009 296.545 185.993 298.812 184.691 301.621C182.102 307.356 178.431 315.241 174.201 323.869C169.971 332.498 165.978 340.23 163.017 345.864C161.528 348.639 160.31 350.94 159.447 352.412C159.035 353.232 158.56 354.018 158.026 354.764C158.33 353.9 158.703 353.063 159.143 352.26C160.005 350.568 161.122 348.301 162.526 345.577L173.473 323.582C177.618 315.004 181.391 307.255 184.2 301.451C185.52 298.727 186.603 296.46 187.448 294.684C187.787 293.856 188.195 293.058 188.667 292.298Z" fill="#263238"/>
<path d="M264.719 416.079C264.719 416.079 264.719 415.978 264.719 415.792C264.719 415.606 264.719 415.267 264.719 414.912C264.804 414.1 264.922 412.966 265.058 411.528C265.396 408.516 265.87 404.236 266.462 398.839C267.714 387.892 269.507 372.495 271.538 354.341L271.944 354.781H229.798L156.182 354.662L133.849 354.527L127.775 354.442H126.184H125.643C125.823 354.421 126.004 354.421 126.184 354.442H127.775L133.849 354.358L156.182 354.223L229.916 354.104H272.062H272.519V354.544C270.286 372.681 268.408 388.078 267.054 399.008C266.377 404.388 265.819 408.669 265.362 411.68C265.182 413.102 265.029 414.23 264.905 415.064L264.77 415.927C264.753 415.978 264.736 416.079 264.719 416.079Z" fill="#263238"/>
<path d="M159.227 355.914C158.205 354.786 157.256 353.593 156.385 352.344C151.825 346.62 146.178 341.853 139.77 338.318C138.401 337.656 137.069 336.922 135.777 336.119C137.279 336.471 138.721 337.041 140.058 337.811C146.732 341.108 152.504 345.98 156.875 352.006C157.836 353.194 158.627 354.509 159.227 355.914Z" fill="#263238"/>
<path d="M361.616 367.115C361.492 366.633 361.413 366.14 361.379 365.643C361.26 364.611 361.108 363.207 360.905 361.43C360.516 357.776 359.991 352.48 359.433 345.932C358.266 332.82 356.929 314.682 355.745 294.65C354.56 274.617 353.731 256.446 353.258 243.3C353.021 236.718 352.852 231.456 352.784 227.717C352.784 225.941 352.784 224.536 352.699 223.487C352.673 222.997 352.673 222.506 352.699 222.015C352.793 222.501 352.844 222.993 352.851 223.487C352.851 224.519 352.987 225.941 353.088 227.717C353.274 231.473 353.528 236.769 353.85 243.266C354.476 256.412 355.406 274.55 356.591 294.599C357.775 314.648 359.027 332.752 359.975 345.881C360.482 352.361 360.888 357.725 361.176 361.413C361.311 363.105 361.413 364.594 361.497 365.626C361.582 366.118 361.621 366.616 361.616 367.115Z" fill="#263238"/>
<path d="M432.575 360.313C431.97 359.853 431.404 359.344 430.883 358.791L426.247 354.324L410.326 338.724L411.037 338.437C410.901 342.599 410.766 347.099 410.614 351.786C410.461 356.473 410.275 361.125 410.123 365.321V366.303L409.429 365.609L393.931 349.79L389.498 345.171C388.948 344.647 388.439 344.081 387.976 343.479C388.578 343.942 389.144 344.451 389.668 345.001L394.27 349.451L410.004 365.051L409.277 365.338C409.412 361.109 409.565 356.54 409.717 351.803C409.869 347.066 410.055 342.616 410.207 338.454V337.489L410.884 338.166L426.568 354.002L431.052 358.638C431.605 359.153 432.115 359.714 432.575 360.313Z" fill="#E0E0E0"/>
<path d="M269.507 375.93C269.507 375.93 297.965 367.724 307.389 365.322C311.061 364.391 326.779 372.681 337.641 379.585C337.641 379.585 352.598 388.45 351.396 391.174C350.06 394.186 344.629 393.577 335.746 389.482C335.746 389.482 338.825 398.399 332.785 398.196C332.785 398.196 335.78 407.84 330.129 408.838C324.478 409.836 323.158 397.536 318.184 396.876C313.21 396.216 302.957 395.539 302.957 395.539C302.957 395.539 294.378 409.752 287.729 410.767C281.08 411.782 265.734 409.972 265.734 409.972L269.507 375.93Z" fill="#FFBE9D"/>
<path d="M318.082 377.893C320.868 379.133 323.531 380.634 326.034 382.376C328.691 383.879 331.195 385.635 333.513 387.621C328.063 384.891 322.895 381.633 318.082 377.893Z" fill="#EB996E"/>
<path d="M316.408 383.425C319.658 384.448 322.817 385.744 325.849 387.3C328.983 388.573 332.005 390.107 334.884 391.885C331.631 390.873 328.473 389.582 325.443 388.027C322.302 386.76 319.279 385.22 316.408 383.425Z" fill="#EB996E"/>
<path d="M319.453 396.639C323.751 396.623 328.031 397.193 332.176 398.331C327.878 398.343 323.598 397.774 319.453 396.639Z" fill="#EB996E"/>
<path d="M232.471 82.2624C232.806 83.3587 232.811 84.5295 232.485 85.6286C232.158 86.7277 231.516 87.7064 230.637 88.4426C229.758 89.1789 228.682 89.64 227.543 89.7686C226.404 89.8971 225.252 89.6873 224.231 89.1654C220.374 87.2197 219.883 81.8901 220.644 77.6434C221.406 73.3967 222.844 68.8454 221.067 64.9032C219.697 61.8916 216.736 59.9797 214.435 57.611C212.404 55.5521 210.879 53.0507 209.977 50.303C209.076 47.5553 208.824 44.6361 209.241 41.7746C209.728 38.9216 210.994 36.2586 212.899 34.0792C214.804 31.8999 217.273 30.2888 220.035 29.4235C225.703 27.85 232.691 29.5927 236.954 25.4813C240.017 22.5035 240.203 17.6477 242.572 14.0947C246.243 8.57898 254.009 7.69918 260.574 8.5959C267.138 9.49262 273.805 11.6075 280.234 10.0002C285.597 8.66355 289.996 4.92439 295.038 2.62337C300.533 0.111497 306.676 -0.620207 312.608 0.530565C318.539 1.68134 323.962 4.65706 328.12 9.0416C332.277 13.4261 334.96 19.0003 335.793 24.9845C336.627 30.9687 335.569 37.0638 332.768 42.4175C330.901 46.3353 327.723 49.4773 323.784 51.3001" fill="#263238"/>
<path d="M265.125 222.032C269.44 222.024 273.71 221.159 277.687 219.488C281.665 217.817 285.272 215.373 288.298 212.298C291.325 209.223 293.711 205.578 295.318 201.574C296.925 197.57 297.721 193.286 297.661 188.972L297.238 157.875C297.238 157.875 323.361 155.252 325.087 129.366C326.813 103.479 325.578 43.7372 325.578 43.7372C311.204 36.6063 295.188 33.4382 279.182 34.5594C263.175 35.6806 247.758 41.0506 234.518 50.1158L230.525 52.8736L232.471 189.818C232.573 198.406 236.061 206.607 242.175 212.639C248.289 218.671 256.536 222.046 265.125 222.032Z" fill="#FFBE9D"/>
<path d="M318.742 90.722C317.798 90.6133 316.926 90.161 316.293 89.4512C315.66 88.7415 315.311 87.8238 315.311 86.8728C315.311 85.9219 315.66 85.0042 316.293 84.2944C316.926 83.5846 317.798 83.1324 318.742 83.0237C318.948 82.9728 319.163 82.9728 319.368 83.0237C320.313 83.1324 321.185 83.5846 321.818 84.2944C322.45 85.0042 322.8 85.9219 322.8 86.8728C322.8 87.8238 322.45 88.7415 321.818 89.4512C321.185 90.161 320.313 90.6133 319.368 90.722C319.161 90.7558 318.95 90.7558 318.742 90.722Z" fill="#263238"/>
<path d="M323.818 82.3638C323.395 82.8037 320.959 80.6719 317.389 80.4858C313.819 80.2997 311.129 81.9747 310.773 81.501C310.418 81.0272 311.027 80.5027 312.212 79.7075C313.794 78.692 315.661 78.2113 317.537 78.3362C319.413 78.4611 321.2 79.1849 322.634 80.4012C323.7 81.3487 324.038 82.2623 323.818 82.3638Z" fill="#263238"/>
<path d="M282.552 83.2436C283.165 83.6686 283.639 84.2661 283.913 84.9606C284.188 85.6551 284.249 86.4152 284.091 87.1448C283.933 87.8745 283.562 88.5408 283.025 89.0595C282.488 89.5782 281.809 89.9259 281.075 90.0586C280.34 90.1913 279.582 90.1031 278.898 89.8051C278.213 89.5071 277.633 89.0127 277.229 88.3845C276.826 87.7563 276.618 87.0225 276.632 86.276C276.645 85.5296 276.88 84.804 277.307 84.1911C277.877 83.3708 278.75 82.8104 279.733 82.6328C280.716 82.4552 281.73 82.6749 282.552 83.2436Z" fill="#263238"/>
<path d="M284.904 83.3959C284.464 83.8358 282.028 81.704 278.475 81.5179C274.922 81.3318 272.214 83.0068 271.842 82.533C271.656 82.3131 272.113 81.5348 273.28 80.7396C274.863 79.7241 276.73 79.2434 278.606 79.3683C280.482 79.4932 282.269 80.217 283.703 81.4333C284.769 82.3808 285.107 83.2098 284.904 83.3959Z" fill="#263238"/>
<path d="M297.661 113.614C297.661 113.343 299.877 113.005 303.498 112.7C304.429 112.7 305.19 112.48 305.274 111.989C305.343 111.057 305.162 110.122 304.75 109.282C303.955 106.863 303.16 104.427 302.314 101.872C298.93 91.331 296.713 82.6514 297.238 82.4822C297.762 82.3131 300.909 90.7219 304.242 101.263C305.021 103.834 305.782 106.338 306.51 108.707C307.047 109.939 307.154 111.315 306.814 112.615C306.663 112.967 306.431 113.277 306.137 113.521C305.843 113.765 305.495 113.936 305.122 114.02C304.595 114.137 304.054 114.177 303.515 114.138C299.86 114.07 297.661 113.901 297.661 113.614Z" fill="#263238"/>
<path d="M285.818 116.93C291.256 119.722 297.051 121.754 303.041 122.97C301.728 124.774 299.843 126.081 297.692 126.677C295.541 127.273 293.253 127.123 291.198 126.252C283.567 122.987 285.818 116.93 285.818 116.93Z" fill="white"/>
<path d="M297.339 157.502C285.362 157.075 273.783 153.094 264.076 146.065C264.076 146.065 271.047 165.133 297.018 164.219L297.339 157.502Z" fill="#EB996E"/>
<path d="M325.798 50.2849C325.798 50.2849 310.147 58.237 289.421 48.39C275.886 41.9268 260.033 38.9321 256.615 41.7238C253.197 44.5154 252.74 58.3893 239.476 62.7037C239.476 62.7037 240.914 89.1992 230.322 88.4548C219.731 87.7103 225.551 46.5458 225.551 46.5458L251.15 33.4164L279.253 27.5454L305.901 30.777L326.576 36.0051L325.798 50.2849Z" fill="#263238"/>
<path d="M232.251 79.9444C231.828 79.7245 214.74 73.7012 214.35 91.4495C213.961 109.198 231.845 105.932 231.879 105.425C231.913 104.917 232.251 79.9444 232.251 79.9444Z" fill="#FFBE9D"/>
<path d="M226.6 98.5725C226.6 98.5725 226.279 98.7924 225.754 99.0124C225.011 99.3143 224.179 99.3143 223.436 99.0124C221.575 98.2848 220.052 95.2732 220.052 92.0755C220.05 90.551 220.379 89.0443 221.017 87.6596C221.199 87.11 221.511 86.6124 221.926 86.2089C222.341 85.8054 222.848 85.5079 223.402 85.3416C223.76 85.2765 224.13 85.3286 224.456 85.4901C224.782 85.6516 225.047 85.914 225.213 86.2383C225.433 86.729 225.314 87.0843 225.399 87.1181C225.483 87.152 225.788 86.8305 225.669 86.103C225.576 85.6603 225.338 85.2613 224.993 84.9694C224.514 84.5928 223.907 84.4169 223.301 84.4787C222.568 84.6051 221.88 84.9172 221.303 85.3852C220.725 85.8532 220.277 86.4615 220.002 87.152C219.22 88.6753 218.814 90.3634 218.817 92.0755C218.817 95.6454 220.611 99.0462 223.149 99.8414C223.623 99.9863 224.124 100.025 224.615 99.9548C225.106 99.8847 225.576 99.7073 225.991 99.4353C226.6 99.0124 226.6 98.6063 226.6 98.5725Z" fill="#EB996E"/>
<path d="M223.216 24.3985C225.241 23.8046 227.403 23.8826 229.379 24.6207C231.356 25.3589 233.04 26.7174 234.18 28.493C232.602 27.2982 230.9 26.2772 229.104 25.4475C227.183 24.8942 225.21 24.5426 223.216 24.3985Z" fill="#263238"/>
<path d="M233.892 13.7731C234.213 13.7731 233.723 17.5123 234.332 21.9451C234.858 24.6102 235.693 27.205 236.819 29.6772C236.819 29.6772 236.075 29.0512 235.33 27.7315C234.375 25.9752 233.744 24.0608 233.469 22.0805C232.976 19.3152 233.121 16.474 233.892 13.7731Z" fill="#263238"/>
<path d="M306.797 73.8027C306.696 73.5997 307.457 72.9737 308.895 72.3984C312.713 70.922 316.951 70.9644 320.739 72.5169C322.16 73.1259 322.921 73.7519 322.82 73.955C322.6 74.4287 319.182 73.0921 314.8 73.0921C310.418 73.0921 307 74.3272 306.797 73.8027Z" fill="#263238"/>
<path d="M267.206 70.1144C267.105 69.9113 267.866 69.3022 269.304 68.7101C271.197 67.9783 273.213 67.6164 275.243 67.6441C277.281 67.6437 279.299 68.0462 281.182 68.8285C282.603 69.4376 283.347 70.0636 283.263 70.2836C283.178 70.5035 279.625 69.4207 275.226 69.4037C270.827 69.3868 267.443 70.5881 267.206 70.1144Z" fill="#263238"/>
<path d="M303.734 76.6451C303.772 76.9938 303.772 77.3455 303.734 77.6942C303.734 78.4386 303.734 79.3861 303.819 80.5535C303.904 81.7209 303.819 83.2944 303.921 84.9864C303.857 86.939 304.143 88.8873 304.766 90.7389C305.582 93.1408 306.995 95.2964 308.871 97.0038C310.747 98.7112 313.025 99.9146 315.493 100.501C316.909 100.847 318.37 100.973 319.825 100.874C321.337 100.806 322.829 100.491 324.241 99.943C327.25 98.8152 329.815 96.7438 331.55 94.0382C333.192 91.4544 334.018 88.4355 333.918 85.3755C333.918 82.3469 333.918 79.4368 333.918 76.6451L334.324 77.0512L312.329 76.8482L305.951 76.7297H304.259H303.633C304.357 76.6492 305.087 76.6153 305.815 76.6282L312.093 76.5098L334.324 76.3068H334.883V76.7297C334.883 79.5214 334.883 82.4315 334.883 85.4601C334.996 88.6869 334.129 91.8724 332.396 94.5965C330.556 97.461 327.837 99.6517 324.647 100.84C323.148 101.415 321.564 101.741 319.96 101.804C318.43 101.895 316.896 101.752 315.409 101.381C312.82 100.756 310.437 99.4744 308.487 97.661C306.537 95.8475 305.087 93.5627 304.276 91.0265C303.668 89.0913 303.416 87.0621 303.531 85.0371C303.531 83.3452 303.531 81.7717 303.616 80.4858C303.701 79.2 303.616 78.4048 303.701 77.6603C303.685 77.3216 303.696 76.9821 303.734 76.6451Z" fill="#263238"/>
<path d="M262.266 75.7653C262.266 75.7653 262.266 76.1545 262.266 76.8143V79.6737C262.266 80.9257 262.266 82.4146 262.351 84.1235C262.306 86.075 262.592 88.0199 263.197 89.876C263.976 92.1038 265.255 94.1237 266.936 95.7808C268.877 97.667 271.291 98.994 273.923 99.6215C276.834 100.323 279.889 100.128 282.688 99.0631C285.689 97.9367 288.246 95.8717 289.98 93.1753C291.628 90.5934 292.46 87.5744 292.365 84.5126C292.365 81.4841 292.365 78.557 292.365 75.7653L292.771 76.1714L270.776 75.9684L264.415 75.8669H262.723H262.097C262.816 75.7868 263.539 75.7528 264.262 75.7653L270.54 75.6638L292.771 75.4608H293.178V75.8669C293.178 78.6585 293.178 81.5856 293.178 84.6141C293.28 87.842 292.407 91.0258 290.673 93.7505C288.835 96.6051 286.122 98.789 282.941 99.9768C281.442 100.551 279.859 100.877 278.255 100.941C276.719 101.032 275.179 100.889 273.687 100.518C270.922 99.8374 268.395 98.416 266.377 96.4068C264.632 94.6534 263.323 92.5151 262.554 90.1636C261.946 88.2285 261.694 86.1993 261.809 84.1742C261.809 82.4823 261.809 80.9088 261.911 79.6229C262.012 78.3371 261.911 77.5419 261.911 76.7974C261.973 76.4364 262.093 76.0879 262.266 75.7653Z" fill="#263238"/>
<path d="M304.107 77.8802C300.237 78.4672 296.302 78.4672 292.432 77.8802C296.3 77.2712 300.239 77.2712 304.107 77.8802Z" fill="#263238"/>
<path d="M229.984 78.1002C235.363 77.6517 240.762 77.488 246.159 77.6096C251.559 77.4564 256.964 77.5863 262.35 77.9987C256.972 78.4681 251.572 78.632 246.176 78.4894C240.775 78.662 235.37 78.532 229.984 78.1002Z" fill="#263238"/>
<path d="M404.033 397.384C407.835 404.44 413.593 410.248 420.616 414.111C427.639 417.974 435.629 419.727 443.624 419.159C453.07 418.497 462.008 414.635 468.963 408.209C475.917 401.784 480.473 393.178 481.878 383.814L491.691 271.487L452.388 261.776L436.332 349.756C436.332 349.756 427.94 386.623 404.033 397.384Z" fill="#FFBE9D"/>
<path d="M452.032 269.914L453.335 250.203C453.335 250.203 458.901 205.976 458.901 201.645C458.901 196.67 461.287 195.452 463.131 195.588C465.99 195.774 468.02 199.31 468.207 203.59C468.207 205.062 468.071 228.445 468.071 228.445C469.423 226.235 470.933 224.126 472.589 222.134C475.973 217.752 484.161 215.248 492.503 215.518C500.844 215.789 503.128 216.601 503.179 219.833C503.149 220.45 502.982 221.054 502.689 221.598C502.396 222.143 501.986 222.615 501.487 222.98C499.947 224.263 497.991 224.937 495.988 224.875C482.639 224.638 479.069 231.761 479.069 231.761L478.9 234.35C478.9 234.35 487.004 228.546 493.467 230.966C494.422 231.319 495.296 231.86 496.039 232.556C497.859 232.563 499.645 233.046 501.22 233.957C502.796 234.868 504.106 236.174 505.021 237.747C505.936 239.321 506.424 241.106 506.436 242.925C506.448 244.745 505.984 246.537 505.091 248.122C504.743 248.935 504.154 249.622 503.404 250.091C502.654 250.56 501.778 250.788 500.895 250.744C500 250.476 499.19 249.981 498.543 249.306C498.164 248.985 497.762 248.691 497.342 248.426L495.853 255.583C495.853 255.583 491.64 271.487 490.591 278.627" fill="#FFBE9D"/>
<path d="M455.873 268.374C458.309 269.051 460.83 267.257 462.15 265.092C463.47 262.926 464.028 260.371 465.178 258.104C468.664 251.336 477.022 248.122 480.22 241.185C480.66 240.22 480.896 238.901 480.05 238.258C479.204 237.615 478.156 238.139 477.293 238.613L455.298 250.795" fill="#FFBE9D"/>
<path d="M455.28 250.761C455.965 250.154 456.721 249.631 457.531 249.205C459.019 248.274 461.202 246.988 463.909 245.415L473.468 239.95L476.226 238.393C477.254 237.58 478.563 237.209 479.864 237.361C480.266 237.491 480.619 237.741 480.876 238.076C481.133 238.411 481.281 238.817 481.302 239.239C481.346 239.935 481.224 240.63 480.947 241.27C480.438 242.398 479.802 243.465 479.052 244.45C476.006 248.409 472.064 250.897 469.222 253.79C467.84 255.099 466.664 256.611 465.736 258.273C464.907 259.83 464.383 261.454 463.74 262.926C463.345 264.155 462.686 265.282 461.809 266.229C460.932 267.176 459.859 267.92 458.664 268.408C456.854 268.949 455.839 268.408 455.906 268.306C456.783 268.333 457.656 268.19 458.478 267.883C459.536 267.343 460.471 266.589 461.222 265.669C461.973 264.748 462.526 263.682 462.843 262.537C463.385 260.898 464.012 259.289 464.721 257.715C465.655 255.914 466.871 254.274 468.325 252.859C471.235 249.814 475.093 247.259 477.935 243.587C478.605 242.701 479.172 241.742 479.627 240.728C480.05 239.764 479.982 238.799 479.441 238.698C478.9 238.596 477.834 239.053 476.903 239.578L474.094 241.1L464.4 246.379C461.625 247.851 459.324 249.002 457.801 249.763C457.012 250.213 456.163 250.549 455.28 250.761Z" fill="#EB996E"/>
<path d="M478.595 234.536C478.745 232.935 479.273 231.392 480.135 230.035C481.137 228.643 482.561 227.611 484.196 227.091C486.243 226.418 488.385 226.076 490.54 226.076C492.753 226.098 494.963 225.905 497.139 225.501C498.962 225.129 500.654 224.283 502.045 223.047C502.508 222.621 502.867 222.094 503.096 221.508C503.324 220.922 503.416 220.291 503.365 219.664C503.341 219.202 503.188 218.757 502.925 218.378C502.841 218.378 502.925 218.868 503.01 219.681C503.002 220.248 502.871 220.806 502.625 221.318C502.38 221.829 502.026 222.281 501.589 222.641C500.236 223.706 498.645 224.426 496.953 224.739C494.822 225.09 492.665 225.248 490.507 225.213C488.271 225.189 486.046 225.538 483.925 226.245C482.151 226.863 480.633 228.053 479.611 229.629C478.948 230.689 478.564 231.9 478.494 233.148C478.398 233.611 478.433 234.092 478.595 234.536Z" fill="#EB996E"/>
<path d="M468.088 201.932C467.945 203.48 467.945 205.037 468.088 206.585C468.088 209.766 468.088 213.573 468.207 217.769C468.325 221.965 468.207 225.771 468.207 228.952C468.105 230.503 468.139 232.06 468.308 233.605C468.678 232.088 468.866 230.531 468.867 228.969C469.07 226.11 469.205 222.202 469.188 217.769C469.171 213.336 469.002 209.411 468.799 206.551C468.728 204.99 468.49 203.442 468.088 201.932Z" fill="#EB996E"/>
<path d="M483.874 239.73C484.347 239.616 484.802 239.44 485.227 239.205C485.779 238.923 486.384 238.762 487.003 238.733C487.621 238.704 488.239 238.807 488.814 239.036C489.168 239.228 489.466 239.508 489.679 239.849C489.893 240.19 490.014 240.58 490.033 240.982C490.087 241.991 490.013 243.003 489.813 243.994C489.533 245.239 489.732 246.543 490.371 247.648C490.775 248.216 491.308 248.68 491.925 249.004C492.542 249.327 493.227 249.5 493.924 249.509C494.609 249.505 495.286 249.361 495.914 249.088C496.542 248.814 497.108 248.417 497.579 247.919C498.461 247.034 499.051 245.9 499.271 244.67C499.536 242.681 499.507 240.663 499.186 238.681C499.011 237.341 498.604 236.041 497.985 234.84C497.511 233.994 497.071 233.673 497.037 233.707C497.003 233.741 497.308 234.163 497.663 234.993C498.127 236.209 498.418 237.485 498.526 238.782C498.748 240.69 498.72 242.618 498.441 244.518C498.226 245.594 497.668 246.571 496.85 247.304C496.033 248.036 495 248.483 493.907 248.579C493.357 248.575 492.815 248.444 492.324 248.194C491.834 247.944 491.408 247.584 491.082 247.141C490.57 246.213 490.408 245.132 490.625 244.095C490.813 243.029 490.859 241.942 490.76 240.864C490.711 240.348 490.53 239.855 490.233 239.431C489.936 239.007 489.535 238.667 489.068 238.444C488.41 238.194 487.702 238.103 487.002 238.179C486.302 238.256 485.63 238.497 485.041 238.884C484.246 239.358 483.772 239.612 483.874 239.73Z" fill="#EB996E"/>
<path d="M497.19 247.208C497.071 247.65 497.119 248.12 497.325 248.528C497.563 249.108 497.931 249.627 498.4 250.043C498.869 250.46 499.428 250.763 500.032 250.931C500.944 251.126 501.89 251.083 502.78 250.804C503.669 250.525 504.471 250.021 505.108 249.34C506.633 247.664 507.452 245.464 507.392 243.198C507.392 240.96 506.694 238.778 505.396 236.955C504.336 235.469 502.891 234.299 501.217 233.571C500.118 233.076 498.935 232.794 497.731 232.742C496.885 232.742 496.428 232.742 496.428 232.878C497.99 233.079 499.512 233.513 500.946 234.164C502.448 234.91 503.74 236.021 504.702 237.395C505.827 239.101 506.416 241.104 506.394 243.148C506.45 245.177 505.751 247.155 504.431 248.697C503.895 249.304 503.213 249.765 502.449 250.034C501.685 250.304 500.865 250.373 500.066 250.237C499.533 250.118 499.033 249.885 498.598 249.555C498.163 249.225 497.804 248.806 497.545 248.325C497.308 247.682 497.308 247.208 497.19 247.208Z" fill="#EB996E"/>
<path d="M481.117 262.842C480.39 262.612 479.61 262.612 478.883 262.842C476.979 263.258 475.265 264.293 474.011 265.786L474.789 266.022C474.686 264.975 474.516 263.935 474.281 262.909C473.608 259.272 471.939 255.892 469.459 253.147C471.116 256.321 472.432 259.661 473.384 263.112C473.621 264.161 473.791 265.177 473.909 266.124L474.044 267.173L474.704 266.344C475.826 264.961 477.325 263.933 479.019 263.383C480.288 262.994 481.117 262.96 481.117 262.842Z" fill="#EB996E"/>
<path d="M481.539 223.064C481.319 223.166 482.216 224.756 484.28 225.721C486.344 226.685 488.172 226.127 488.087 225.89C488.002 225.653 486.395 225.67 484.703 224.875C483.011 224.08 481.759 222.895 481.539 223.064Z" fill="#EB996E"/>
<path d="M445.264 282.671L494.651 286.207C494.651 286.207 487.055 373.595 485.583 387.147C484.111 400.7 475.431 421.138 445.264 421.138C415.097 421.138 409.48 410.868 396.063 389.719C411.882 378.755 437.007 346.017 437.007 346.017L445.264 282.671Z" fill="#116EFC"/>
<path d="M468.545 294.43C468.291 295.167 467.986 295.885 467.632 296.579L464.874 302.399L455.128 322.516L454.638 321.924L467.446 318.117L480.457 314.293L481.404 314.022L480.947 314.885L470.796 334.596L467.801 340.264C467.47 340.956 467.079 341.619 466.634 342.244C466.892 341.52 467.198 340.813 467.547 340.129C468.258 338.674 469.239 336.745 470.322 334.359L480.152 314.513L480.643 315.105L467.649 318.963L454.824 322.719L453.893 322.99L454.333 322.127L464.434 302.213C465.669 299.861 466.667 297.932 467.412 296.494C467.731 295.775 468.11 295.085 468.545 294.43Z" fill="#E0E0E0"/>
<path d="M463.875 378.485C463.118 378.647 462.348 378.749 461.574 378.789L455.145 379.348L432.913 381.04L433.184 380.312L442.929 389.448L452.793 398.754L453.504 399.431H452.523L430.409 400.649L424.014 400.92C423.248 400.986 422.478 400.986 421.713 400.92C422.466 400.77 423.23 400.68 423.997 400.649L430.375 400.124L452.472 398.602L452.218 399.329L442.32 390.041L432.609 380.87L431.898 380.211H432.862L455.111 378.874L461.557 378.552C462.327 378.471 463.102 378.448 463.875 378.485Z" fill="#E0E0E0"/>
<path d="M551.805 66.3074L501.437 48.2207L451.626 66.0705C445.265 69.0652 439.681 70.8756 439.681 76.7973V106.338C439.564 127.087 445.229 147.458 456.042 165.167C466.846 183.037 482.857 197.177 501.927 205.688C522.23 199.073 537.458 181.409 546.848 166.317C557.691 148.617 563.386 128.246 563.293 107.489V80.9256C563.293 72.466 558.793 68.3377 551.805 66.3074Z" fill="#116EFC"/>
<g opacity="0.3">
<path d="M501.927 188.498C486.815 181.683 474.151 170.406 465.635 156.182C457.063 142.188 452.558 126.083 452.624 109.671V89.0299C452.624 84.3264 455.467 79.9274 461.084 77.3049L501.453 62.2129V48.2884L451.626 66.0705C446.398 68.3546 439.681 70.8756 439.681 76.7973V106.338C439.564 127.087 445.229 147.458 456.042 165.167C466.846 183.037 482.857 197.177 501.927 205.688V188.498Z" fill="black"/>
</g>
<g opacity="0.4">
<path d="M501.928 205.637C505.345 204.521 508.657 203.106 511.825 201.408C519.617 197 526.701 191.445 532.839 184.928C538.389 178.95 543.274 172.386 547.406 165.353C558.377 147.522 563.899 126.875 563.294 105.949V81.5685C563.294 69.4205 557.034 68.5237 551.789 66.2396L501.42 48.153V62.0775L542.263 77.4233C547.88 80.0458 550.723 84.4448 550.723 89.1314V109.858C550.79 126.263 546.285 142.364 537.712 156.352C529.38 170.51 516.867 181.74 501.894 188.498L501.928 205.637Z" fill="black"/>
</g>
<path opacity="0.5" d="M514.803 108.352V104.359C514.803 100.89 513.425 97.5635 510.972 95.1108C508.52 92.658 505.193 91.2801 501.724 91.2801C498.256 91.2801 494.929 92.658 492.476 95.1108C490.024 97.5635 488.646 100.89 488.646 104.359V108.419C486.915 108.679 485.334 109.55 484.192 110.876C483.049 112.202 482.42 113.894 482.419 115.644V139.162C482.419 141.1 483.189 142.959 484.56 144.33C485.931 145.701 487.79 146.471 489.729 146.471H514.228C516.166 146.471 518.025 145.701 519.396 144.33C520.767 142.959 521.537 141.1 521.537 139.162V115.644C521.538 113.804 520.846 112.031 519.597 110.679C518.349 109.328 516.637 108.496 514.803 108.352ZM505.277 133.291H498.882L499.88 128.672C499.18 128.216 498.647 127.546 498.359 126.762C498.07 125.979 498.043 125.123 498.281 124.322C498.519 123.522 499.009 122.819 499.678 122.32C500.347 121.821 501.16 121.551 501.995 121.551C502.83 121.551 503.643 121.821 504.312 122.32C504.981 122.819 505.471 123.522 505.709 124.322C505.947 125.123 505.92 125.979 505.631 126.762C505.343 127.546 504.81 128.216 504.11 128.672C504.55 130.397 505.277 133.291 505.277 133.291ZM512.045 108.318H491.471V104.359C491.579 101.709 492.707 99.2041 494.62 97.3676C496.532 95.5311 499.081 94.5055 501.733 94.5055C504.384 94.5055 506.933 95.5311 508.846 97.3676C510.759 99.2041 511.887 101.709 511.994 104.359L512.045 108.318Z" fill="white"/>
<path d="M460.797 108.064C460.357 106.741 460.101 105.363 460.035 103.97C459.659 100.639 459.523 97.2863 459.629 93.9365C459.629 91.9738 459.816 90.1127 459.985 88.4208C460.069 86.8778 460.454 85.3661 461.118 83.971C461.595 83.0153 462.366 82.2382 463.318 81.7546C464.012 81.4331 464.434 81.4501 464.434 81.5008C463.219 82.0583 462.242 83.0298 461.677 84.2417C461.136 85.5945 460.838 87.0322 460.797 88.4885C460.662 90.1804 460.56 92.0246 460.509 93.9703C460.391 97.8448 460.509 101.364 460.661 103.919C460.815 105.295 460.86 106.681 460.797 108.064Z" fill="white"/>
<path d="M461.524 120.906C461.287 120.906 461.067 119.705 461.033 118.199C460.999 116.693 461.186 115.475 461.422 115.475C461.659 115.475 461.879 116.676 461.913 118.182C461.947 119.688 461.778 120.906 461.524 120.906Z" fill="white"/>
<path d="M411.561 275.531L355.406 414.404H254.144V420.681H555.764L617.468 275.531H411.561Z" fill="#263238"/>
<path d="M497.409 357.522C495.379 364.509 489.457 368.925 484.178 367.402C478.9 365.88 476.277 358.943 478.307 351.955C480.338 344.968 486.276 340.552 491.555 342.074C496.834 343.597 499.457 350.534 497.409 357.522Z" fill="#FAFAFA"/>
</svg>
