<svg width="26" height="26" viewBox="0 0 26 26" fill="none" xmlns="http://www.w3.org/2000/svg">
<path fill-rule="evenodd" clip-rule="evenodd" d="M6.69693 11.1948C5.63769 11.1948 5.41663 11.4026 5.41663 12.3985V14.204C5.41663 15.1999 5.63769 15.4077 6.69693 15.4077H9.25754V22.63C9.25754 23.6258 9.4786 23.8337 10.5378 23.8337H13.0984C14.1577 23.8337 14.3787 23.6258 14.3787 22.63V15.4077H17.2539C18.0573 15.4077 18.2643 15.2609 18.485 14.5347L19.0337 12.7292C19.4117 11.4851 19.1788 11.1948 17.8026 11.1948H14.3787V8.18551C14.3787 7.52072 14.952 6.98181 15.6591 6.98181H19.303C20.3622 6.98181 20.5833 6.77397 20.5833 5.7781V3.3707C20.5833 2.37483 20.3622 2.16699 19.303 2.16699H15.6591C12.1236 2.16699 9.25754 4.86157 9.25754 8.18551V11.1948H6.69693Z" stroke="#E6E6E6" stroke-width="1.5" stroke-linejoin="round"/>
</svg>
