<svg width="40" height="40" viewBox="0 0 40 40" fill="none" xmlns="http://www.w3.org/2000/svg">
<g clip-path="url(#clip0_6186_1690)">
<path d="M0 20C0 8.95431 8.95431 0 20 0C31.0457 0 40 8.95431 40 20C40 31.0457 31.0457 40 20 40C8.95431 40 0 31.0457 0 20Z" fill="#131619"/>
<g clip-path="url(#clip1_6186_1690)">
<path d="M8.84984 36.6059C3.5118 33.0145 0 26.9174 0 20C0 8.9543 8.9543 0 20 0C31.0457 0 40 8.9543 40 20C40 26.9174 36.4882 33.0145 31.1502 36.6059H8.84984Z" fill="#4A7AFF"/>
<path d="M17.4561 36.6059H31.1502C36.4882 33.0146 40 26.9175 40 20.0001C40 18.5784 39.8516 17.1912 39.5696 15.8535L31.4466 7.73047L17.4561 36.6059Z" fill="#0053BF"/>
<path d="M25.3412 39.2788C27.4355 38.6999 29.3919 37.7888 31.1501 36.6059L27.5766 23.3831H12.4234L8.84984 36.6059C10.6081 37.7888 12.5644 38.6999 14.6587 39.2788H25.3412Z" fill="#E9EDF5"/>
<path d="M31.1502 36.6059L27.5766 23.3831H19.9722V39.2788H25.3412C27.4355 38.6999 29.3919 37.7888 31.1502 36.6059Z" fill="#CDD2E1"/>
<path d="M16.4259 9.95883L8.55344 7.73047L10.5464 15.3038L16.4259 9.95883Z" fill="#E9EDF5"/>
<path d="M14.5079 10.9347L10.7902 9.88232L11.7314 13.4587L14.5079 10.9347Z" fill="#BEC3D2"/>
<path d="M23.5741 9.95883L31.4466 7.73047L29.4536 15.3038L23.5741 9.95883Z" fill="#CDD2E1"/>
<path d="M25.4921 10.9347L29.2098 9.88232L28.2686 13.4587L25.4921 10.9347Z" fill="#9196AA"/>
<path d="M30.2573 18.5364C30.2573 24.2014 25.665 26.4012 20 26.4012C14.335 26.4012 9.74266 24.2014 9.74266 18.5364C9.74266 12.8714 14.335 8.27905 20 8.27905C25.665 8.27905 30.2573 12.8714 30.2573 18.5364Z" fill="white"/>
<path d="M20 8.27905C19.9907 8.27905 19.9815 8.27937 19.9722 8.27944V26.4011C19.9815 26.4011 19.9907 26.4012 20 26.4012C25.665 26.4012 30.2573 24.2014 30.2573 18.5364C30.2573 12.8714 25.665 8.27905 20 8.27905Z" fill="#E9EDF5"/>
<path d="M14.8095 17.8743C15.4466 17.8743 15.963 17.3578 15.963 16.7208C15.963 16.0838 15.4466 15.5674 14.8095 15.5674C14.1725 15.5674 13.6561 16.0838 13.6561 16.7208C13.6561 17.3578 14.1725 17.8743 14.8095 17.8743Z" fill="#636978"/>
<path d="M25.1905 17.8743C25.8275 17.8743 26.3439 17.3578 26.3439 16.7208C26.3439 16.0838 25.8275 15.5674 25.1905 15.5674C24.5534 15.5674 24.037 16.0838 24.037 16.7208C24.037 17.3578 24.5534 17.8743 25.1905 17.8743Z" fill="#414952"/>
<path d="M21.642 18.504C21.642 17.7237 20.9069 17.5303 20 17.5303C19.0931 17.5303 18.358 17.7237 18.358 18.504C18.358 18.9068 18.7955 19.2701 19.2188 19.5275V22.634H20.7813V19.5275C21.2045 19.2701 21.642 18.9068 21.642 18.504Z" fill="#636978"/>
<path d="M21.6419 18.504C21.6419 17.7237 20.9069 17.5303 20 17.5303C19.9906 17.5303 19.9816 17.5307 19.9722 17.5307V22.6339H20.7812V19.5274C21.2045 19.2701 21.6419 18.9068 21.6419 18.504Z" fill="#414952"/>
<path d="M20 27.8264C17.0501 27.8264 14.6588 30.2178 14.6588 33.1677V39.2788C16.359 39.7488 18.1502 40 20 40C21.8498 40 23.641 39.7488 25.3413 39.2788V33.1677C25.3413 30.2178 22.9499 27.8264 20 27.8264Z" fill="white"/>
<path d="M20 27.8264C19.9906 27.8264 19.9815 27.827 19.9722 27.8271V39.9998C19.9815 39.9998 19.9907 40 20 40C21.8498 40 23.641 39.7488 25.3412 39.2788V33.1677C25.3412 30.2178 22.9499 27.8264 20 27.8264Z" fill="#E9EDF5"/>
</g>
</g>
<defs>
<clipPath id="clip0_6186_1690">
<path d="M0 20C0 8.95431 8.95431 0 20 0C31.0457 0 40 8.95431 40 20C40 31.0457 31.0457 40 20 40C8.95431 40 0 31.0457 0 20Z" fill="white"/>
</clipPath>
<clipPath id="clip1_6186_1690">
<rect width="40" height="40" fill="white"/>
</clipPath>
</defs>
</svg>
