<svg width="24" height="28" viewBox="0 0 24 28" fill="none" xmlns="http://www.w3.org/2000/svg">
<path d="M6.82741 7.99922C6.71625 8.10695 6.66465 8.26659 6.68846 8.42623L6.96235 10.0145C7.02985 10.4096 6.61702 10.7089 6.26374 10.5214L4.84669 9.77111C4.70379 9.69928 4.53706 9.69928 4.39814 9.77111L2.97707 10.5214C2.62781 10.7089 2.21498 10.4096 2.28243 10.0145L2.55237 8.42623C2.58013 8.26659 2.52858 8.10695 2.41742 7.99922L1.26629 6.87383C0.984429 6.59447 1.13929 6.10761 1.53225 6.05174L3.12001 5.81627C3.27875 5.79632 3.41374 5.69656 3.48119 5.5529L4.19173 4.10825C4.36636 3.74907 4.87445 3.74907 5.05305 4.10825L5.76361 5.5529C5.83109 5.69656 5.96603 5.79632 6.12084 5.81627L7.7086 6.05174C8.10554 6.10761 8.26035 6.59447 7.97454 6.87383L6.82741 7.99922Z" fill="#F9B938"/>
<g opacity="0.3">
<path d="M2.07419 6.92867C1.95459 6.92867 1.85003 6.84072 1.83226 6.71842C1.81244 6.58375 1.90504 6.4587 2.03865 6.43877L3.18678 6.26872C3.49055 6.23059 3.75913 6.03133 3.8924 5.7486L4.40256 4.71041C4.46202 4.58914 4.60724 4.5383 4.73094 4.59876C4.8519 4.65923 4.90179 4.80695 4.84199 4.92891L4.33354 5.96331C4.12749 6.39961 3.72257 6.6978 3.25273 6.75655L2.11007 6.92592C2.09811 6.92763 2.08615 6.92867 2.07419 6.92867Z" fill="white"/>
</g>
<path d="M5.33492 5.01814L4.76331 3.86084C4.88241 3.89674 4.98959 3.98056 5.05306 4.10826L5.62071 5.26556C5.49766 5.22966 5.3905 5.13786 5.33492 5.01814Z" fill="#ECB021"/>
<path d="M6.82738 7.99908C6.71623 8.10682 6.66462 8.26646 6.68844 8.4261L6.96233 10.0144C7.02982 10.4095 6.61699 10.7088 6.26371 10.5212L4.84666 9.77097C4.70377 9.69914 4.53704 9.69914 4.39812 9.77097L2.97705 10.5212C2.63573 10.7048 2.23085 10.4215 2.27843 10.0383C2.36579 10.0503 2.46105 10.0344 2.54837 9.98646L3.96939 9.2362C4.10836 9.16437 4.27504 9.16437 4.41798 9.2362L5.83503 9.98646C6.18829 10.174 6.60112 9.87474 6.53365 9.47963L6.25976 7.89133C6.23595 7.73169 6.28753 7.57207 6.39868 7.46431L7.54584 6.33892C7.62918 6.25513 7.67681 6.15137 7.68873 6.04761L7.70858 6.0516C8.10551 6.10748 8.26033 6.59434 7.97452 6.87369L6.82738 7.99908Z" fill="#ECB021"/>
<path d="M21.8338 7.99922C21.7227 8.10695 21.6711 8.26659 21.6949 8.42623L21.9688 10.0145C22.0363 10.4096 21.6234 10.7089 21.2701 10.5214L19.8531 9.77111C19.7102 9.69928 19.5435 9.69928 19.4046 9.77111L17.9835 10.5214C17.6342 10.7089 17.2214 10.4096 17.2888 10.0145L17.5588 8.42623C17.5865 8.26659 17.535 8.10695 17.4238 7.99922L16.2727 6.87383C15.9908 6.59447 16.1457 6.10761 16.5387 6.05174L18.1264 5.81627C18.2852 5.79632 18.4201 5.69656 18.4876 5.5529L19.1981 4.10825C19.3728 3.74907 19.8809 3.74907 20.0595 4.10825L20.77 5.5529C20.8375 5.69656 20.9724 5.79632 21.1273 5.81627L22.715 6.05174C23.1119 6.10761 23.2668 6.59447 22.9809 6.87383L21.8338 7.99922Z" fill="#F9B938"/>
<g opacity="0.3">
<path d="M17.0807 6.92867C16.9611 6.92867 16.8565 6.84072 16.8387 6.71842C16.8189 6.58375 16.9115 6.4587 17.0451 6.43877L18.1932 6.26872C18.497 6.23059 18.7656 6.03133 18.8989 5.7486L19.409 4.71041C19.4685 4.58914 19.6137 4.5383 19.7374 4.59876C19.8584 4.65923 19.9083 4.80695 19.8485 4.92891L19.34 5.96331C19.134 6.39961 18.729 6.6978 18.2592 6.75655L17.1165 6.92592C17.1046 6.92763 17.0926 6.92867 17.0807 6.92867Z" fill="white"/>
</g>
<path d="M20.3413 5.01814L19.7697 3.86084C19.8888 3.89674 19.996 3.98056 20.0595 4.10826L20.6271 5.26556C20.5041 5.22966 20.3969 5.13786 20.3413 5.01814Z" fill="#ECB021"/>
<path d="M21.8338 7.99908C21.7226 8.10682 21.671 8.26646 21.6948 8.4261L21.9687 10.0144C22.0362 10.4095 21.6234 10.7088 21.2701 10.5212L19.8531 9.77097C19.7102 9.69914 19.5434 9.69914 19.4045 9.77097L17.9835 10.5212C17.6421 10.7048 17.2373 10.4215 17.2848 10.0383C17.3722 10.0503 17.4675 10.0344 17.5548 9.98646L18.9758 9.2362C19.1148 9.16437 19.2815 9.16437 19.4244 9.2362L20.8414 9.98646C21.1947 10.174 21.6075 9.87474 21.5401 9.47963L21.2662 7.89133C21.2424 7.73169 21.2939 7.57207 21.4051 7.46431L22.5522 6.33892C22.6356 6.25513 22.6832 6.15137 22.6951 6.04761L22.715 6.0516C23.1119 6.10748 23.2667 6.59434 22.9809 6.87369L21.8338 7.99908Z" fill="#ECB021"/>
<path d="M14.3037 4.6291C14.1926 4.73684 14.141 4.89647 14.1648 5.05611L14.4387 6.64442C14.5062 7.0395 14.0933 7.3388 13.7401 7.15125L12.323 6.40099C12.1801 6.32916 12.0134 6.32916 11.8745 6.40099L10.4534 7.15125C10.1041 7.3388 9.6913 7.0395 9.75875 6.64442L10.0287 5.05611C10.0565 4.89647 10.0049 4.73684 9.89374 4.6291L8.74261 3.50371C8.46075 3.22435 8.61561 2.7375 9.00857 2.68162L10.5963 2.44616C10.7551 2.42621 10.8901 2.32644 10.9575 2.18278L11.668 0.738132C11.8427 0.378956 12.3508 0.378956 12.5294 0.738132L13.2399 2.18278C13.3074 2.32644 13.4424 2.42621 13.5972 2.44616L15.1849 2.68162C15.5819 2.7375 15.7367 3.22435 15.4509 3.50371L14.3037 4.6291Z" fill="#F9B938"/>
<path d="M12.8112 1.64802L12.2396 0.490723C12.3587 0.526626 12.4659 0.61044 12.5294 0.738146L13.097 1.89545C12.974 1.85954 12.8668 1.76774 12.8112 1.64802Z" fill="#ECB021"/>
<path d="M14.3037 4.62921C14.1925 4.73694 14.1409 4.89658 14.1648 5.05622L14.4386 6.64453C14.5061 7.03961 14.0933 7.33891 13.74 7.15136L12.323 6.4011C12.1801 6.32927 12.0134 6.32927 11.8744 6.4011L10.4534 7.15136C10.112 7.33492 9.70716 7.05159 9.75475 6.66847C9.84211 6.68046 9.93737 6.66448 10.0247 6.61659L11.4457 5.86633C11.5847 5.7945 11.7514 5.7945 11.8943 5.86633L13.3114 6.61659C13.6646 6.80417 14.0774 6.50486 14.01 6.10976L13.7361 4.52145C13.7123 4.36181 13.7638 4.2022 13.875 4.09444L15.0222 2.96905C15.1055 2.88526 15.1531 2.7815 15.1651 2.67773L15.1849 2.68173C15.5818 2.73761 15.7366 3.22446 15.4508 3.50382L14.3037 4.62921Z" fill="#ECB021"/>
<g opacity="0.3">
<path d="M9.5477 3.55879C9.4281 3.55879 9.32354 3.47085 9.30577 3.34854C9.28595 3.21388 9.37856 3.08883 9.51216 3.0689L10.6603 2.89885C10.9641 2.86071 11.2326 2.66146 11.3659 2.37872L11.8761 1.34054C11.9355 1.21927 12.0808 1.16843 12.2044 1.22889C12.3254 1.28935 12.3753 1.43708 12.3155 1.55903L11.807 2.59344C11.601 3.02974 11.1961 3.32793 10.7262 3.38668L9.58358 3.55604C9.57162 3.55776 9.55966 3.55879 9.5477 3.55879Z" fill="white"/>
</g>
<path d="M21.4394 19.8523C21.4394 20.6463 20.802 21.3189 19.9728 21.3189H19.3099C20.1195 21.3189 20.7765 21.9759 20.7765 22.7855C20.7765 23.5943 20.1211 24.252 19.3099 24.252H18.0076C18.8172 24.252 19.4742 24.9091 19.4742 25.7186C19.4742 26.5273 18.8188 27.1852 18.0076 27.1852H8.20511C7.55714 27.1852 7.03186 26.6599 7.03186 26.0119V18.6556L10.5072 13.1878C10.8734 12.6118 11.0272 11.9261 10.9421 11.2488L10.748 9.70391C10.6855 9.20662 11.0474 8.75647 11.5465 8.71063C13.4295 8.53769 14.9818 10.1655 14.7196 12.0382L14.335 14.7847C14.2856 15.1376 14.5596 15.4527 14.916 15.4526L19.8842 15.4526C20.6696 15.4526 21.3813 16.031 21.4357 16.8146C21.4941 17.6552 20.8369 18.3858 19.9728 18.3858C20.7824 18.3858 21.4394 19.0428 21.4394 19.8523Z" fill="#F7C9A9"/>
<path d="M19.3745 25.1897C19.439 25.354 19.4742 25.53 19.4742 25.7177C19.4742 26.5264 18.8188 27.1843 18.0076 27.1843H8.20511C7.55984 27.1843 7.03186 26.6622 7.03186 26.011V24.9609C7.03186 25.6062 7.55984 26.1342 8.20511 26.1342H18.0076C18.4124 26.1342 18.7761 25.97 19.0459 25.706C19.1867 25.5593 19.3041 25.3833 19.3745 25.1897Z" fill="#F0B68E"/>
<path d="M7.59506 18.3388V26.3579C7.59506 27.0032 7.07295 27.5312 6.42181 27.5312H2.04557C1.40029 27.5312 0.872314 27.0032 0.872314 26.3579V18.3388C0.872314 17.6876 1.40029 17.1655 2.04557 17.1655H6.42181C7.07295 17.1655 7.59506 17.6876 7.59506 18.3388Z" fill="#8666C6"/>
<path d="M7.59506 18.3378V26.357C7.59506 27.0023 7.07295 27.5302 6.42181 27.5302H2.04557C1.40029 27.5302 0.872314 27.0023 0.872314 26.357V26.1927H5.08428C5.73543 26.1927 6.25754 25.6648 6.25754 25.0195V17.1646H6.42181C7.07295 17.1646 7.59506 17.6867 7.59506 18.3378Z" fill="#7553AA"/>
<path d="M4.78509 24.428C4.78509 25.0146 4.30993 25.4956 3.7233 25.4956C3.13668 25.4956 2.65564 25.0146 2.65564 24.428C2.65564 23.8414 3.13668 23.3662 3.7233 23.3662C4.30993 23.3662 4.78509 23.8414 4.78509 24.428Z" fill="#E4E3FF"/>
<path d="M4.64431 23.9108C4.49178 23.8169 4.3158 23.77 4.12808 23.77C3.54145 23.77 3.06041 24.2452 3.06041 24.8318C3.06041 25.0195 3.11323 25.2014 3.2012 25.3539C2.87856 25.1721 2.65564 24.8259 2.65564 24.427C2.65564 23.8404 3.13668 23.3652 3.7233 23.3652C4.1222 23.3652 4.46833 23.5882 4.64431 23.9108Z" fill="#D0D0F7"/>
<g opacity="0.2">
<path d="M2.38855 18.3454V21.6116C2.38855 21.7659 2.26338 21.891 2.1091 21.891C1.95482 21.891 1.82965 21.7659 1.82965 21.6116V18.3454C1.82965 18.1911 1.95482 18.0659 2.1091 18.0659C2.26338 18.0659 2.38855 18.1911 2.38855 18.3454Z" fill="white"/>
</g>
<g opacity="0.2">
<path d="M2.38855 22.8332V23.0868C2.38855 23.2411 2.26338 23.3662 2.1091 23.3662C1.95482 23.3662 1.82965 23.2411 1.82965 23.0868V22.8332C1.82965 22.6789 1.95482 22.5537 2.1091 22.5537C2.26338 22.5537 2.38855 22.6789 2.38855 22.8332Z" fill="white"/>
</g>
</svg>
