<svg width="358" height="417" viewBox="0 0 358 417" fill="none" xmlns="http://www.w3.org/2000/svg">
<path d="M354.327 328.335C356.101 329.699 355.908 331.644 353.77 332.883L236.688 400.504C235.368 401.171 233.909 401.519 232.43 401.519C230.951 401.519 229.492 401.171 228.172 400.504L4.26387 271.255C2.09211 270.004 1.92156 268.037 3.76358 266.707C2.66211 267.538 1.75488 268.6 1.10494 269.817C0.455003 271.035 0.0779329 272.379 -6.10352e-05 273.757V279.385C0.081151 280.865 0.509425 282.305 1.25014 283.589C1.99086 284.873 3.02325 285.965 4.26387 286.776L228.092 415.979C229.413 416.652 230.874 417.003 232.356 417.003C233.838 417.003 235.299 416.652 236.62 415.979L353.736 348.37C354.977 347.562 356.01 346.472 356.751 345.19C357.492 343.908 357.92 342.469 358 340.99V335.305C357.919 333.949 357.55 332.625 356.917 331.423C356.283 330.221 355.4 329.168 354.327 328.335Z" fill="#3D3969"/>
<path d="M353.804 327.96L129.908 198.711C128.588 198.044 127.129 197.696 125.65 197.696C124.17 197.696 122.712 198.044 121.391 198.711L4.27522 266.343C1.92153 267.696 1.92153 269.902 4.27522 271.255L228.115 400.504C229.435 401.171 230.894 401.519 232.373 401.519C233.852 401.519 235.311 401.171 236.631 400.504L353.747 332.872C356.078 331.519 356.078 329.313 353.804 327.96ZM323.434 317.51C325.446 318.647 325.446 320.558 323.434 321.717L216.938 383.22C215.804 383.792 214.552 384.09 213.282 384.09C212.012 384.09 210.76 383.792 209.626 383.22L35.2939 282.546C33.2813 281.409 33.2813 279.487 35.2939 278.328L141.801 216.836C143.814 215.699 145.917 214.994 147.93 216.154L323.434 317.51Z" fill="#37335D"/>
<path d="M3.76358 266.627C2.66211 267.459 1.75488 268.52 1.10494 269.738C0.455003 270.955 0.0779329 272.299 -6.10352e-05 273.677V279.305C0.0820422 280.785 0.510694 282.225 1.25133 283.509C1.99197 284.793 3.02388 285.884 4.26387 286.696L228.092 415.979C229.409 416.673 230.879 417.025 232.367 417.002V401.516C230.883 401.544 229.417 401.195 228.103 400.504L4.26387 271.255C2.09211 270.039 1.92156 268.037 3.76358 266.627Z" fill="#221F3E"/>
<path d="M74.09 239.168C75.6705 238.258 75.6705 236.78 74.09 235.87C73.2084 235.425 72.2348 235.194 71.2474 235.194C70.2599 235.194 69.2863 235.425 68.4047 235.87C66.8242 236.78 66.8242 238.258 68.4047 239.168C69.2863 239.612 70.2599 239.844 71.2474 239.844C72.2348 239.844 73.2084 239.612 74.09 239.168Z" fill="black"/>
<path d="M290.857 362.845C294.576 360.707 294.576 357.227 290.857 355.09C288.775 354.026 286.47 353.471 284.132 353.471C281.793 353.471 279.488 354.026 277.406 355.09C273.688 357.227 273.688 360.707 277.406 362.845C279.488 363.908 281.793 364.463 284.132 364.463C286.47 364.463 288.775 363.908 290.857 362.845Z" stroke="#E6E6E6" stroke-width="1.13705" stroke-miterlimit="10"/>
<path d="M71.2361 250.106L93.2948 237.382C94.6024 236.621 94.6706 235.427 93.4426 234.71C92.7265 234.369 91.9409 234.199 91.1478 234.213C90.3546 234.226 89.5755 234.424 88.8717 234.79L66.8129 247.514C65.5053 248.275 65.4371 249.469 66.6651 250.186C67.3813 250.527 68.1668 250.697 68.9599 250.683C69.7531 250.67 70.5322 250.472 71.2361 250.106Z" fill="black"/>
<path d="M147.93 216.199C145.917 215.062 143.814 215.71 141.801 216.881L35.2939 278.373C33.2813 279.51 33.2813 281.42 35.2939 282.592L209.581 383.209C210.715 383.781 211.967 384.079 213.236 384.079C214.506 384.079 215.758 383.781 216.892 383.209L323.388 321.706C325.412 320.569 325.412 318.659 323.388 317.499L147.93 216.199Z" fill="#116EFC"/>
<path opacity="0.85" d="M147.93 216.199C145.917 215.062 143.814 215.71 141.801 216.881L35.2939 278.373C33.2813 279.51 33.2813 281.42 35.2939 282.592L209.581 383.209C210.715 383.781 211.967 384.079 213.236 384.079C214.506 384.079 215.758 383.781 216.892 383.209L323.388 321.706C325.412 320.569 325.412 318.659 323.388 317.499L147.93 216.199Z" fill="white"/>
<path d="M47.5628 283.899L46.4257 283.24C46.3735 283.22 46.3285 283.185 46.2967 283.14C46.2648 283.094 46.2478 283.04 46.2478 282.984C46.2478 282.928 46.2648 282.874 46.2967 282.828C46.3285 282.782 46.3735 282.747 46.4257 282.728L46.5508 282.66C46.6873 282.587 46.8396 282.549 46.9943 282.549C47.1489 282.549 47.3012 282.587 47.4377 282.66L48.5747 283.308C48.8135 283.456 48.8135 283.683 48.5747 283.82L48.4497 283.899C48.3115 283.966 48.1599 284.001 48.0062 284.001C47.8526 284.001 47.7009 283.966 47.5628 283.899Z" fill="#116EFC"/>
<path d="M49.5865 282.728L47.6195 281.591C47.3807 281.455 47.3807 281.227 47.6195 281.079L47.7445 281.011C47.8827 280.944 48.0343 280.909 48.188 280.909C48.3416 280.909 48.4933 280.944 48.6314 281.011L50.5985 282.148C50.8373 282.285 50.8373 282.512 50.5985 282.66L50.4735 282.728C50.3353 282.795 50.1837 282.83 50.03 282.83C49.8763 282.83 49.7247 282.795 49.5865 282.728Z" fill="#116EFC"/>
<path d="M51.6105 281.557L48.8247 279.954C48.5745 279.806 48.5745 279.578 48.8247 279.442L48.9498 279.362C49.0879 279.295 49.2396 279.26 49.3932 279.26C49.5469 279.26 49.6985 279.295 49.8367 279.362L52.6224 280.977C52.6747 280.996 52.7197 281.031 52.7515 281.077C52.7833 281.123 52.8004 281.177 52.8004 281.233C52.8004 281.289 52.7833 281.343 52.7515 281.389C52.7197 281.434 52.6747 281.469 52.6224 281.489L52.4974 281.557C52.3609 281.63 52.2086 281.668 52.0539 281.668C51.8993 281.668 51.747 281.63 51.6105 281.557Z" fill="#116EFC"/>
<path d="M53.6231 280.397L48.8134 277.611C48.5633 277.475 48.5633 277.247 48.8134 277.1L48.9385 277.031C49.0759 276.961 49.2278 276.925 49.3819 276.925C49.5361 276.925 49.688 276.961 49.8254 277.031L54.6237 279.806C54.8739 279.954 54.8739 280.181 54.6237 280.317L54.51 280.397C54.3719 280.464 54.2202 280.499 54.0666 280.499C53.9129 280.499 53.7613 280.464 53.6231 280.397Z" fill="#116EFC"/>
<path d="M59.4336 277.418C59.357 277.427 59.2798 277.407 59.2175 277.361L58.5126 276.952L56.2385 278.259C56.1897 278.292 56.1323 278.31 56.0736 278.31C56.0148 278.31 55.9574 278.292 55.9087 278.259L55.6472 278.112L55.5335 278.032V277.918L55.4198 275.064C55.4123 275.023 55.4123 274.981 55.4198 274.939C55.4573 274.896 55.5039 274.861 55.5562 274.837L55.8632 274.655C55.9437 274.608 56.0325 274.577 56.1247 274.564C56.209 274.565 56.2913 274.589 56.3635 274.632L58.8309 276.053L59.3312 275.769C59.406 275.719 59.4919 275.688 59.5814 275.678C59.6623 275.678 59.7414 275.702 59.8088 275.746L59.9793 275.849C60.0589 275.849 60.093 275.928 60.0817 275.974C60.0703 276.019 60.0817 276.053 59.9339 276.11L59.4336 276.406L60.1385 276.815C60.2181 276.815 60.2522 276.895 60.2409 276.94C60.2295 276.986 60.184 277.031 60.0817 277.088L59.6951 277.304C59.6215 277.368 59.5303 277.408 59.4336 277.418ZM58.0577 276.52L56.2953 275.508L56.409 277.475L58.0577 276.52Z" fill="#116EFC"/>
<path d="M61.6963 275.621C60.9003 275.66 60.1103 275.466 59.4222 275.064C58.7172 274.655 58.3988 274.211 58.4557 273.734C58.5125 273.256 58.956 272.79 59.7633 272.324C60.0818 272.135 60.4167 271.975 60.7639 271.846C61.069 271.728 61.3852 271.641 61.7076 271.585C61.7552 271.566 61.8079 271.566 61.8555 271.585C61.8603 271.604 61.8603 271.623 61.8555 271.642L61.9578 271.937C61.969 271.95 61.9752 271.966 61.9752 271.983C61.9752 272 61.969 272.016 61.9578 272.028H61.8327C61.343 272.125 60.8737 272.306 60.4455 272.563C59.8997 272.87 59.6041 273.2 59.5586 273.529C59.5131 273.859 59.7633 274.189 60.3091 274.496C60.8079 274.801 61.3846 274.955 61.9692 274.939C62.5476 274.918 63.111 274.75 63.6065 274.45C63.7839 274.347 63.9548 274.233 64.1182 274.109C64.2478 274.017 64.3628 273.906 64.4593 273.779L63.3222 273.12L62.3785 273.666C62.2981 273.713 62.2092 273.744 62.117 273.757C62.0366 273.754 61.9582 273.73 61.8896 273.688L61.7304 273.597C61.6546 273.552 61.6205 273.507 61.628 273.461C61.628 273.461 61.6849 273.381 61.7759 273.325L63.2881 272.449C63.3777 272.395 63.4792 272.364 63.5838 272.358C63.6767 272.359 63.7675 272.387 63.8453 272.438L65.4826 273.381C65.5287 273.4 65.5683 273.431 65.5963 273.472C65.5963 273.472 65.5963 273.529 65.5963 273.575C65.2391 274.109 64.7441 274.538 64.1637 274.814C63.4203 275.282 62.5727 275.56 61.6963 275.621Z" fill="#116EFC"/>
<path d="M93.1697 253.529L95.8418 255.075C95.9549 255.131 96.0794 255.16 96.2057 255.16C96.3319 255.16 96.4564 255.131 96.5695 255.075L99.2643 253.529C99.4576 253.404 99.4576 253.222 99.2643 253.108L96.5809 251.561C96.4695 251.5 96.3443 251.467 96.217 251.467C96.0897 251.467 95.9645 251.5 95.8532 251.561L93.1697 253.108C92.9651 253.222 92.9651 253.404 93.1697 253.529Z" fill="#116EFC"/>
<path d="M95.0233 251.425C94.6694 251.253 94.2797 251.167 93.8863 251.175C93.4925 251.165 93.1023 251.25 92.7492 251.425C92.2262 251.732 92.2262 252.198 92.7492 252.494L93.6702 253.028L94.3411 252.892L93.4201 252.369C93.3383 252.338 93.268 252.282 93.2183 252.21C93.1687 252.138 93.1421 252.053 93.1421 251.965C93.1421 251.878 93.1687 251.792 93.2183 251.72C93.268 251.648 93.3383 251.593 93.4201 251.561C93.5668 251.482 93.7307 251.439 93.8976 251.436C94.0619 251.432 94.224 251.475 94.3638 251.561L95.2848 252.096L95.9671 251.959L95.0233 251.425Z" fill="#116EFC"/>
<path d="M143.814 223.215C143.364 223.2 142.917 223.301 142.518 223.51L135.695 227.433C135.104 227.763 135.104 228.297 135.695 228.639L138.174 230.06C138.573 230.269 139.02 230.371 139.47 230.356C139.68 230.354 139.889 230.335 140.096 230.299C140.329 230.261 140.552 230.18 140.755 230.06L147.578 226.148C148.157 225.807 148.157 225.273 147.578 224.943L145.099 223.51C144.704 223.301 144.261 223.199 143.814 223.215ZM139.493 230.037C139.298 230.034 139.107 229.983 138.936 229.889L136.469 228.457C136.374 228.423 136.291 228.36 136.233 228.278C136.175 228.195 136.144 228.097 136.144 227.996C136.144 227.895 136.175 227.797 136.233 227.714C136.291 227.632 136.374 227.57 136.469 227.536L143.291 223.624C143.399 223.557 143.519 223.511 143.643 223.488H143.848C144.041 223.494 144.228 223.548 144.394 223.647L146.861 225.068C146.956 225.102 147.038 225.165 147.097 225.247C147.155 225.329 147.186 225.428 147.186 225.529C147.186 225.63 147.155 225.728 147.097 225.81C147.038 225.893 146.956 225.955 146.861 225.989L140.039 229.912C139.873 230.01 139.686 230.065 139.493 230.071V230.037Z" fill="#116EFC"/>
<path d="M139.686 229.594L139.595 229.537L137.321 228.252C137.252 228.226 137.192 228.18 137.149 228.119C137.107 228.058 137.084 227.985 137.084 227.911C137.084 227.837 137.107 227.764 137.149 227.703C137.192 227.642 137.252 227.596 137.321 227.57L143.439 224.045C143.477 224.019 143.519 223.999 143.564 223.988L143.655 224.045L145.929 225.33C145.995 225.358 146.051 225.404 146.091 225.464C146.13 225.523 146.152 225.594 146.152 225.665C146.152 225.737 146.13 225.807 146.091 225.867C146.051 225.926 145.995 225.973 145.929 226.001L139.811 229.537L139.686 229.594Z" fill="#116EFC"/>
<path d="M145.451 223.329C145.686 223.273 145.93 223.268 146.167 223.313C146.404 223.358 146.629 223.452 146.827 223.59L147.282 223.863C147.794 224.147 148.01 224.511 147.771 224.67L147.328 224.943L145.053 223.59L145.451 223.329Z" fill="#116EFC"/>
<path d="M106.598 290.141C108.27 290.072 109.904 289.621 111.374 288.823C114.148 287.219 114.865 285.036 110.464 282.296C110.316 283.123 109.978 283.905 109.477 284.58C108.976 285.254 108.325 285.804 107.576 286.185C103.801 288.368 99.5031 288.925 96.0351 286.935C92.5671 284.945 93.761 281.989 97.5587 279.806C100.002 278.412 102.769 277.683 105.583 277.693C108.396 277.703 111.157 278.451 113.591 279.863C120.015 283.569 118.571 287.492 114.023 290.096C111.643 291.429 108.992 292.207 106.269 292.37L106.598 290.141ZM108.202 281.113C104.87 279.669 102.039 279.874 99.8897 281.113C98.0818 282.148 97.7179 283.66 99.7191 284.809C100.721 285.351 101.853 285.609 102.991 285.555C104.129 285.501 105.231 285.136 106.178 284.502C106.815 284.205 107.349 283.723 107.71 283.119C108.071 282.514 108.242 281.816 108.202 281.113Z" fill="#116EFC"/>
<path d="M116.161 273.961C116.839 273.55 117.605 273.307 118.396 273.251C119.188 273.196 119.98 273.33 120.709 273.643C121.846 274.325 121.63 275.462 120.175 276.292C119.486 276.713 118.706 276.963 117.901 277.02C117.096 277.078 116.289 276.941 115.547 276.622C114.376 275.951 114.671 274.803 116.161 273.961ZM125.041 279.089C125.72 278.679 126.487 278.437 127.278 278.384C128.069 278.33 128.862 278.467 129.59 278.782C130.727 279.453 130.511 280.59 129.055 281.432C128.365 281.85 127.586 282.098 126.781 282.156C125.976 282.213 125.169 282.078 124.427 281.762C123.268 281.091 123.552 279.931 125.007 279.135L125.041 279.089Z" fill="#116EFC"/>
<path d="M126.542 272.893C120.959 269.663 120.959 266.309 125.53 263.66C130.101 261.01 135.946 261.033 141.517 264.251C147.089 267.469 147.202 270.925 142.654 273.575C138.106 276.224 132.137 276.122 126.542 272.893ZM137.697 266.445C133.023 263.751 130.022 263.773 127.873 265.013C125.724 266.252 125.678 267.992 130.351 270.698C135.025 273.404 138.231 273.45 140.346 272.233C142.461 271.016 142.381 269.152 137.697 266.445Z" fill="#116EFC"/>
<path d="M144.326 262.625C138.731 259.396 138.731 256.041 143.302 253.403C147.873 250.766 153.729 250.777 159.289 253.983C164.849 257.19 165.043 260.669 160.426 263.307C155.81 265.945 149.908 265.854 144.326 262.625ZM155.48 256.189C150.795 253.483 147.794 253.506 145.645 254.745C143.495 255.985 143.45 257.724 148.135 260.43C152.819 263.137 156.014 263.171 158.118 261.954C160.221 260.737 160.153 258.884 155.48 256.189Z" fill="#116EFC"/>
<path d="M115.661 315.1L205.124 263.455C206.181 262.92 207.35 262.642 208.535 262.642C209.72 262.642 210.888 262.92 211.946 263.455L234.812 276.656C236.7 277.793 236.7 279.51 234.812 280.602L145.383 332.246C144.326 332.781 143.157 333.06 141.972 333.06C140.787 333.06 139.618 332.781 138.561 332.246L115.661 319.045C113.773 317.954 113.773 316.191 115.661 315.1Z" fill="#116EFC"/>
<path d="M125.257 316.851L141.267 326.084C141.722 326.319 142.227 326.442 142.739 326.442C143.252 326.442 143.757 326.319 144.212 326.084L167.806 312.439C168.624 311.962 168.624 311.2 167.806 310.734L151.796 301.489C151.339 301.259 150.835 301.14 150.324 301.14C149.812 301.14 149.308 301.259 148.851 301.489L125.257 315.134C125.074 315.19 124.913 315.304 124.799 315.459C124.685 315.613 124.623 315.8 124.623 315.992C124.623 316.184 124.685 316.371 124.799 316.526C124.913 316.68 125.074 316.794 125.257 316.851Z" fill="#FAFAFA"/>
<path d="M149.408 312.405L168.386 311.655L149.477 311.37L150.238 301.171L147.134 313.758L124.632 315.987L143.007 315.123L142.552 326.436L143.962 315.077L149.226 314.827L149.408 312.405Z" fill="#116EFC"/>
<path d="M159.369 296.668L182.485 283.376C183.061 283.084 183.698 282.932 184.344 282.932C184.99 282.932 185.627 283.084 186.203 283.376C187.215 283.956 187.181 284.911 186.124 285.525L163.007 298.817C162.431 299.109 161.794 299.261 161.148 299.261C160.502 299.261 159.866 299.109 159.289 298.817C158.289 298.237 158.334 297.328 159.369 296.668Z" fill="#FAFAFA"/>
<path d="M166.498 300.739L213.345 273.666C213.921 273.374 214.558 273.222 215.204 273.222C215.85 273.222 216.486 273.374 217.063 273.666C218.075 274.246 218.041 275.212 216.983 275.815L170.137 302.888C169.558 303.179 168.92 303.33 168.272 303.33C167.624 303.33 166.986 303.179 166.407 302.888C165.407 302.342 165.441 301.387 166.498 300.739Z" fill="#FAFAFA"/>
<path d="M173.605 304.878L220.462 277.805C221.039 277.513 221.676 277.361 222.322 277.361C222.967 277.361 223.604 277.513 224.181 277.805C225.181 278.384 225.147 279.351 224.101 279.954L177.243 307.027C176.667 307.318 176.03 307.47 175.384 307.47C174.738 307.47 174.101 307.318 173.525 307.027C172.513 306.424 172.559 305.492 173.605 304.878Z" fill="#FAFAFA"/>
<path d="M105.416 128.521L257.075 40.9686L263.147 44.4707C263.975 45.0154 264.663 45.7466 265.157 46.6056C265.651 47.4647 265.936 48.4276 265.99 49.4169V161.291C265.937 162.281 265.652 163.244 265.158 164.103C264.664 164.962 263.976 165.693 263.147 166.237L117.184 250.493C116.301 250.932 115.328 251.161 114.342 251.161C113.355 251.161 112.382 250.932 111.499 250.493L108.293 248.639C107.464 248.095 106.774 247.364 106.279 246.505C105.783 245.646 105.496 244.683 105.439 243.693L105.416 128.521Z" fill="#116EFC"/>
<path opacity="0.05" d="M105.416 128.521L257.075 40.9686L263.147 44.4707C263.975 45.0154 264.663 45.7466 265.157 46.6056C265.651 47.4647 265.936 48.4276 265.99 49.4169V161.291C265.937 162.281 265.652 163.244 265.158 164.103C264.664 164.962 263.976 165.693 263.147 166.237L117.184 250.493C116.301 250.932 115.328 251.161 114.342 251.161C113.355 251.161 112.382 250.932 111.499 250.493L108.293 248.639C107.464 248.095 106.774 247.364 106.279 246.505C105.783 245.646 105.496 244.683 105.439 243.693L105.416 128.521Z" fill="black"/>
<path d="M256.234 31.1218L256.859 30.7807L254.506 29.4162C254.301 29.3014 254.089 29.2026 253.869 29.1206L187.124 4.38977C186.209 4.08283 185.22 4.07493 184.3 4.36724C183.381 4.65954 182.577 5.23689 182.007 6.01575L107.337 115.047C106.178 116.928 105.517 119.072 105.416 121.278V128.521L107.69 129.863L257.041 40.9573V33.7143C257.02 32.7916 256.74 31.8935 256.234 31.1218Z" fill="#116EFC"/>
<path opacity="0.1" d="M185.089 6.55011C184.792 6.78281 184.531 7.05877 184.316 7.36878L109.646 116.4C109.032 117.365 108.565 118.415 108.258 119.516L105.984 118.174C106.153 117.613 106.354 117.063 106.587 116.526C106.689 116.298 106.792 116.082 106.905 115.866V115.764C107.024 115.536 107.157 115.315 107.303 115.104L181.996 6.02707C182.109 5.86553 182.234 5.71343 182.371 5.57225L182.769 5.20839L185.089 6.55011Z" fill="black"/>
<path opacity="0.35" d="M256.825 30.7807C256.624 30.6579 256.41 30.5551 256.189 30.4737L189.432 5.73148C188.699 5.48738 187.915 5.43446 187.154 5.57771C186.394 5.72096 185.684 6.05565 185.089 6.55015L182.815 5.20843C183.414 4.71861 184.127 4.38702 184.888 4.24399C185.649 4.10096 186.433 4.15108 187.17 4.38976L253.914 29.1206C254.133 29.2021 254.342 29.3049 254.54 29.4276L256.825 30.7807Z" fill="white"/>
<path d="M182.383 5.57225C182.504 5.43936 182.637 5.31758 182.78 5.20839C182.635 5.31463 182.501 5.43666 182.383 5.57225Z" fill="#116EFC"/>
<path opacity="0.2" d="M106.882 115.821C106.882 115.821 106.882 115.741 106.882 115.707C106.882 115.673 106.905 115.787 106.882 115.821Z" fill="black"/>
<path opacity="0.2" d="M182.007 6.01582C182.116 5.85528 182.242 5.70665 182.382 5.57237C182.239 5.70354 182.113 5.85257 182.007 6.01582Z" fill="black"/>
<path d="M184.316 7.38024L109.657 116.423C108.488 118.295 107.822 120.438 107.724 122.643V129.886L259.384 42.3331V35.056C259.327 34.0757 258.998 33.1306 258.434 32.327C257.869 31.5235 257.092 30.8935 256.189 30.5078L189.444 5.77699C188.529 5.47391 187.542 5.46559 186.622 5.75322C185.702 6.04085 184.895 6.60992 184.316 7.38024Z" fill="#116EFC"/>
<path d="M124.234 235.256L119.367 232.448C118.966 232.141 118.65 231.737 118.451 231.272C118.252 230.808 118.176 230.301 118.23 229.799V78.1616C118.294 76.6223 118.765 75.1274 119.595 73.8295L124.541 76.6721C123.704 77.9752 123.233 79.4793 123.177 81.027V232.607C123.116 233.102 123.181 233.604 123.366 234.067C123.551 234.53 123.849 234.939 124.234 235.256Z" fill="#E0E0E0"/>
<path d="M127.27 73.7839L249.093 3.46881C251.367 2.12709 253.266 3.20729 253.266 5.87936V157.471C253.19 158.921 252.773 160.334 252.048 161.592C251.322 162.851 250.31 163.921 249.093 164.714L127.27 235.018C124.996 236.348 123.097 235.268 123.097 232.596V81.027C123.175 79.577 123.594 78.1658 124.319 76.9075C125.044 75.6493 126.055 74.5792 127.27 73.7839Z" fill="#F0F0F0"/>
<path d="M247.103 0.31906L251.879 3.09346C251.416 2.92106 250.918 2.86716 250.43 2.93667C249.941 3.00618 249.478 3.1969 249.082 3.49143L127.27 73.7952C126.101 74.4996 125.131 75.4895 124.45 76.6719L119.504 73.8293C120.19 72.6487 121.154 71.6534 122.312 70.9298L244.136 0.557839C244.559 0.246339 245.059 0.0571866 245.583 0.0110629C246.106 -0.0350609 246.632 0.0636163 247.103 0.296314V0.31906Z" fill="#FAFAFA"/>
<path d="M136.775 81.7205L238.075 23.2307C239.44 22.4461 240.542 23.0033 240.542 24.4814C240.481 25.3078 240.225 26.108 239.796 26.8172C239.368 27.5264 238.778 28.1246 238.075 28.5635L136.775 87.0533C135.411 87.8378 134.308 87.2807 134.308 85.8139C134.368 84.9855 134.623 84.1831 135.052 83.4718C135.48 82.7605 136.071 82.1605 136.775 81.7205Z" fill="#E0E0E0"/>
<path d="M136.775 92.352L238.075 33.8621C239.44 33.0776 240.542 33.6347 240.542 35.1129C240.481 35.9393 240.225 36.7395 239.796 37.4487C239.368 38.1579 238.778 38.7561 238.075 39.1949L136.775 97.6847C135.411 98.4693 134.308 97.9121 134.308 96.4454C134.368 95.617 134.623 94.8145 135.052 94.1032C135.48 93.3919 136.071 92.7919 136.775 92.352Z" fill="#E0E0E0"/>
<path d="M136.775 102.983L238.075 44.4935C239.44 43.7089 240.542 44.2661 240.542 45.7328C240.482 46.5612 240.228 47.3637 239.799 48.075C239.37 48.7863 238.779 49.3863 238.075 49.8262L136.775 108.316C135.411 109.101 134.308 108.543 134.308 107.077C134.368 106.248 134.623 105.446 135.052 104.735C135.48 104.023 136.071 103.423 136.775 102.983Z" fill="#E0E0E0"/>
<path d="M136.775 113.615L238.075 55.1363C239.44 54.3517 240.542 54.9088 240.542 56.3756C240.482 57.204 240.228 58.0065 239.799 58.7178C239.37 59.429 238.779 60.0291 238.075 60.469L136.775 118.959C135.411 119.743 134.308 119.186 134.308 117.708C134.368 116.88 134.623 116.077 135.052 115.366C135.48 114.655 136.071 114.055 136.775 113.615Z" fill="#E0E0E0"/>
<path d="M136.775 124.246L238.075 65.7564C239.44 64.9718 240.542 65.529 240.542 66.9958C240.482 67.8241 240.228 68.6266 239.799 69.3379C239.37 70.0492 238.779 70.6492 238.075 71.0891L136.775 129.579C135.411 130.364 134.308 129.806 134.308 128.328C134.37 127.502 134.625 126.702 135.054 125.992C135.483 125.283 136.072 124.685 136.775 124.246Z" fill="#E0E0E0"/>
<path d="M136.775 134.878L238.075 76.3877C239.44 75.6031 240.542 76.1603 240.542 77.6271C240.482 78.4554 240.228 79.2579 239.799 79.9692C239.37 80.6805 238.779 81.2805 238.075 81.7205L136.775 140.21C135.411 140.995 134.308 140.438 134.308 138.96C134.37 138.133 134.625 137.333 135.054 136.624C135.483 135.915 136.072 135.316 136.775 134.878Z" fill="#E0E0E0"/>
<path d="M136.775 145.509L238.075 86.9737C239.44 86.1891 240.542 86.7463 240.542 88.2131C240.482 89.0414 240.228 89.8439 239.799 90.5552C239.37 91.2665 238.779 91.8665 238.075 92.3065L136.775 150.796C135.411 151.581 134.308 151.024 134.308 149.546C134.377 148.727 134.635 147.936 135.064 147.235C135.492 146.534 136.078 145.943 136.775 145.509Z" fill="#E0E0E0"/>
<path d="M136.775 156.14L238.075 97.6506C239.44 96.8547 240.542 97.4232 240.542 98.89C240.482 99.7184 240.228 100.521 239.799 101.232C239.37 101.943 238.779 102.543 238.075 102.983L136.775 161.473C135.411 162.258 134.308 161.701 134.308 160.222C134.37 159.396 134.625 158.596 135.054 157.887C135.483 157.178 136.072 156.579 136.775 156.14Z" fill="#E0E0E0"/>
<path d="M262.147 162.769C262.102 162.85 262.048 162.927 261.988 162.997L198.79 134.969C196.391 133.907 193.689 133.748 191.182 134.521C188.674 135.294 186.531 136.947 185.146 139.176L117.582 247.582L115.081 249.026C114.802 249.22 114.479 249.342 114.142 249.38C113.804 249.418 113.463 249.37 113.148 249.242L182.633 137.743C184.021 135.518 186.164 133.867 188.67 133.093C191.175 132.318 193.876 132.471 196.278 133.525L262.147 162.769Z" fill="#116EFC"/>
<path opacity="0.4" d="M178.903 149.034L179.062 148.897L117.559 247.593L115.058 249.037C114.778 249.229 114.455 249.349 114.118 249.387C113.781 249.424 113.44 249.378 113.125 249.253L176.424 147.578L178.903 149.034Z" fill="white"/>
<path opacity="0.4" d="M262.146 162.781C262.101 162.862 262.048 162.938 261.987 163.008L198.779 134.969C196.379 133.907 193.677 133.748 191.17 134.521C188.663 135.294 186.519 136.947 185.134 139.176L182.633 137.72C184.026 135.501 186.171 133.858 188.676 133.089C191.181 132.321 193.879 132.48 196.277 133.536L262.146 162.781Z" fill="white"/>
<path d="M265.944 48.6893C265.808 47.8706 265.376 47.6432 264.807 48.0298C264.526 48.2395 264.28 48.4929 264.079 48.7802L263.761 49.2237L201.439 136.049L192.127 149.023C191.527 149.778 190.733 150.357 189.83 150.695C188.926 151.034 187.948 151.12 186.999 150.944L178.96 149.034L117.559 134.434C117.147 134.35 116.721 134.35 116.309 134.434C116.148 134.467 115.992 134.516 115.842 134.582L117.537 133.604L176.663 147.669L184.725 149.511C185.674 149.69 186.653 149.605 187.557 149.266C188.461 148.928 189.255 148.348 189.853 147.59L199.165 134.627L261.839 47.3589C262.031 47.0995 262.27 46.8794 262.544 46.7108L257.155 43.6067L259.429 42.299L263.181 44.4594C263.901 44.9445 264.516 45.5687 264.99 46.2951C265.465 47.0215 265.789 47.8356 265.944 48.6893Z" fill="#116EFC"/>
<path opacity="0.4" d="M201.44 136.049L192.127 149.022C191.528 149.778 190.733 150.357 189.83 150.695C188.926 151.034 187.948 151.12 186.999 150.944L178.96 149.034L179.119 148.897L179.506 148.283L184.77 149.534C185.719 149.712 186.699 149.628 187.603 149.289C188.507 148.95 189.301 148.37 189.899 147.612L199.12 134.787L201.44 136.049Z" fill="white"/>
<path opacity="0.1" d="M263.136 44.4594L259.384 42.299L257.109 43.6067L262.533 46.7335C262.259 46.9031 262.02 47.123 261.828 47.3817L199.165 134.65L199.074 134.775L201.349 136.037L263.75 49.2237L264.068 48.7802C264.269 48.4928 264.515 48.2395 264.796 48.0298C265.353 47.6432 265.785 47.8706 265.933 48.6893C265.774 47.8328 265.444 47.0171 264.964 46.2905C264.483 45.5639 263.862 44.9412 263.136 44.4594Z" fill="black"/>
<path d="M118.788 136.253L105.416 128.521V243.693C105.473 244.683 105.761 245.646 106.256 246.505C106.752 247.364 107.441 248.095 108.27 248.639L111.476 250.493C112.359 250.932 113.332 251.161 114.319 251.161C115.305 251.161 116.278 250.932 117.162 250.493L118.765 249.56L118.788 136.253Z" fill="#116EFC"/>
<path opacity="0.15" d="M118.788 136.253L105.416 128.521V243.693C105.473 244.683 105.761 245.646 106.256 246.505C106.752 247.364 107.441 248.095 108.27 248.639L111.476 250.493C112.359 250.932 113.332 251.161 114.319 251.161C115.305 251.161 116.278 250.932 117.162 250.493L118.765 249.56L118.788 136.253Z" fill="black"/>
<path d="M263.761 49.2237V159.881C263.731 160.906 263.425 161.904 262.874 162.769C262.457 163.503 261.887 164.139 261.203 164.634L261.1 164.702L260.907 164.827L114.955 249.083C114.78 249.191 114.593 249.279 114.398 249.344C114.386 249.174 114.386 249.003 114.398 248.833V137.004C114.373 136.603 114.445 136.202 114.609 135.836C114.773 135.47 115.023 135.148 115.339 134.9C115.654 134.652 116.025 134.484 116.42 134.41C116.815 134.337 117.221 134.361 117.605 134.48L179.005 149.079L187.044 150.99C187.993 151.165 188.972 151.079 189.875 150.741C190.779 150.402 191.573 149.824 192.172 149.068L201.439 136.049L263.761 49.2237Z" fill="#455A64"/>
<path d="M266.001 49.4511V161.325C265.965 162.349 265.659 163.346 265.114 164.214C264.69 164.946 264.122 165.584 263.443 166.09L263.329 166.146C263.271 166.192 263.21 166.234 263.147 166.272L117.195 250.481C116.917 250.68 116.592 250.805 116.252 250.844C115.913 250.884 115.568 250.837 115.251 250.709C115.009 250.568 114.805 250.37 114.656 250.132C114.508 249.894 114.419 249.624 114.398 249.344C114.386 249.174 114.386 249.003 114.398 248.833V137.004C114.373 136.603 114.445 136.202 114.609 135.836C114.773 135.47 115.023 135.148 115.339 134.9C115.654 134.652 116.025 134.484 116.42 134.411C116.815 134.337 117.221 134.361 117.605 134.48L179.005 149.079L187.044 150.99C187.993 151.165 188.972 151.079 189.875 150.741C190.779 150.402 191.573 149.824 192.172 149.068L201.439 136.049L263.807 49.2237L264.125 48.7803C265.114 47.3135 266.001 47.5863 266.001 49.4511Z" fill="#116EFC"/>
<path d="M263.147 166.226L263.329 166.101L263.443 166.044C264.122 165.539 264.69 164.9 265.114 164.168C265.645 163.315 265.947 162.34 265.99 161.337L201.44 136.049L244.647 176.903L263.147 166.226Z" fill="#116EFC"/>
<path opacity="0.2" d="M263.147 166.226L263.329 166.101L263.443 166.044C264.122 165.539 264.69 164.9 265.114 164.168C265.645 163.315 265.947 162.34 265.99 161.337L201.44 136.049L244.647 176.903L263.147 166.226Z" fill="black"/>
<path d="M114.342 248.844C114.3 249.208 114.361 249.577 114.518 249.908C114.674 250.24 114.92 250.521 115.228 250.72C115.546 250.849 115.89 250.895 116.23 250.855C116.57 250.816 116.894 250.691 117.173 250.493L167.419 221.487L178.892 149.045L114.342 246.979V248.844Z" fill="#116EFC"/>
<path opacity="0.15" d="M185.1 139.164L115.217 250.709C114.909 250.51 114.663 250.229 114.506 249.897C114.349 249.566 114.288 249.197 114.33 248.833V246.979L175.992 148.374L176.47 147.612L182.598 137.788L185.1 139.164Z" fill="black"/>
<path d="M265.114 164.168C264.69 164.9 264.122 165.539 263.443 166.044L263.329 166.101L117.196 250.481C116.917 250.68 116.592 250.804 116.253 250.844C115.913 250.884 115.568 250.837 115.251 250.709L185.134 139.13C186.536 136.892 188.697 135.233 191.221 134.459C193.746 133.684 196.465 133.845 198.881 134.912L265.114 164.168Z" fill="#116EFC"/>
<path d="M265.114 164.179C264.696 164.913 264.126 165.549 263.443 166.044L263.34 166.112L117.184 250.493C116.903 250.687 116.578 250.809 116.239 250.847C115.9 250.884 115.556 250.837 115.24 250.709L117.184 247.616L260.805 164.68L260.918 164.611C261.523 164.168 262.037 163.612 262.431 162.974L265.114 164.179Z" fill="#116EFC"/>
<path opacity="0.15" d="M105.927 118.174L108.201 119.516C107.879 120.525 107.699 121.573 107.667 122.631V129.863L105.393 128.521V121.278C105.426 120.224 105.606 119.179 105.927 118.174Z" fill="black"/>
<path d="M119.663 134.07L117.525 133.559L115.831 134.536L113.489 133.183L107.724 129.863L109.964 128.533L119.663 134.07Z" fill="#116EFC"/>
<path opacity="0.1" d="M119.663 134.07L109.975 128.544L107.701 129.874L113.466 133.195L115.809 134.548C115.945 134.48 116.09 134.434 116.241 134.411C116.653 134.327 117.079 134.327 117.491 134.411L122.21 135.548L175.993 148.374L176.47 147.612L119.663 134.07Z" fill="black"/>
<path d="M292.972 138.527L282.182 132.274L282.091 132.217C277.383 129.556 270.914 129.943 263.762 134.093C249.367 142.405 237.689 162.622 237.689 179.245C237.689 187.546 240.611 193.379 245.307 196.108L255.143 201.793L257.417 197.938C260.045 197.356 262.568 196.374 264.899 195.027C279.294 186.716 290.971 166.499 290.971 149.875C290.969 147.629 290.694 145.392 290.153 143.212L292.972 138.527Z" fill="url(#paint0_linear_6001_13783)"/>
<path opacity="0.15" d="M238.644 170.501C238.008 173.377 237.676 176.312 237.655 179.257C237.655 187.557 240.577 193.39 245.273 196.119L255.108 201.804L257.382 197.95C260.011 197.368 262.534 196.386 264.864 195.039C267.412 193.548 269.794 191.791 271.971 189.797L238.644 170.501Z" fill="black"/>
<path d="M273.995 140.017C259.6 148.329 247.922 168.546 247.922 185.169C247.922 201.793 259.6 208.536 273.995 200.224C288.39 191.912 300.067 171.695 300.067 155.072C300.067 138.448 288.401 131.705 273.995 140.017Z" fill="url(#paint1_linear_6001_13783)"/>
<path d="M284.296 163.156V156.766C284.296 149.477 279.862 146.123 274.404 149.284C268.935 152.445 264.5 160.905 264.5 168.193V173.878C264.381 177.823 263.232 181.668 261.169 185.033C260.661 185.925 260.384 186.929 260.361 187.955C260.361 189.786 261.499 190.638 262.852 189.842L285.968 176.494C286.726 175.949 287.346 175.234 287.778 174.407C288.211 173.58 288.443 172.663 288.458 171.729C288.493 171.373 288.446 171.013 288.32 170.678C288.194 170.343 287.992 170.041 287.73 169.796C285.638 168.909 284.296 166.567 284.296 163.156Z" fill="white"/>
<path d="M279.145 182.486C279.145 185.988 277.019 190.047 274.404 191.582C271.789 193.117 269.651 191.491 269.651 188.001L279.145 182.486Z" fill="white"/>
<defs>
<linearGradient id="paint0_linear_6001_13783" x1="237.689" y1="166.161" x2="292.972" y2="166.161" gradientUnits="userSpaceOnUse">
<stop stop-color="#23E72D"/>
<stop offset="1" stop-color="#C8F41F"/>
</linearGradient>
<linearGradient id="paint1_linear_6001_13783" x1="247.922" y1="170.12" x2="300.067" y2="170.12" gradientUnits="userSpaceOnUse">
<stop stop-color="#23E72D"/>
<stop offset="1" stop-color="#C8F41F"/>
</linearGradient>
</defs>
</svg>
