<svg width="174" height="173" viewBox="0 0 174 173" fill="none" xmlns="http://www.w3.org/2000/svg">
<path d="M126.489 121.072L128.053 124.238L131.547 124.747L129.018 127.21L129.617 130.691L126.489 129.048L123.365 130.691L123.963 127.21L121.434 124.747L124.929 124.238L126.489 121.072Z" fill="#116EFC"/>
<path d="M133.945 118.266L134.682 119.757L136.326 119.996L135.136 121.159L135.416 122.799L133.945 122.024L132.471 122.799L132.755 121.159L131.561 119.996L133.208 119.757L133.945 118.266Z" fill="#116EFC"/>
<path d="M124.174 35.8664L125.406 32.0396C124.232 29.6756 123.876 26.9889 124.392 24.4005C124.909 21.8121 126.27 19.4683 128.262 17.7362C130.253 16.004 132.763 14.9815 135.398 14.8288C138.033 14.6761 140.644 15.4018 142.823 16.8923C145.001 18.3827 146.624 20.5536 147.436 23.065C148.248 25.5764 148.205 28.2862 147.312 30.7701C146.419 33.2539 144.727 35.3714 142.502 36.7908C140.276 38.2102 137.643 38.8513 135.014 38.6136C132.449 38.4389 130.022 37.3884 128.139 35.638L124.174 35.8664Z" fill="#FAFAFA"/>
<path d="M124.174 35.8664L124.437 35.8456L125.202 35.7903L128.139 35.5896C129.596 36.9363 131.389 37.864 133.329 38.2746C133.928 38.4077 134.537 38.4945 135.149 38.5341L136.118 38.5721C136.443 38.5721 136.779 38.5341 137.115 38.5168C140.15 38.2413 142.962 36.8077 144.969 34.5135C146.099 33.2392 146.939 31.7338 147.429 30.102C147.931 28.3584 148.032 26.524 147.726 24.7356C147.65 24.2758 147.544 23.8216 147.408 23.3758C147.347 23.15 147.272 22.9282 147.183 22.7115C147.097 22.49 147.021 22.2686 146.927 22.0506C146.542 21.1706 146.054 20.3391 145.474 19.5733C145.185 19.1915 144.872 18.8286 144.536 18.4868C144.374 18.3125 144.2 18.1485 144.017 17.9955C143.841 17.8398 143.671 17.6703 143.484 17.5284L142.917 17.1063L142.633 16.8987L142.329 16.7188L141.73 16.3728C141.526 16.2586 141.312 16.1721 141.104 16.0683C139.514 15.3157 137.775 14.9294 136.016 14.9378C134.256 14.9462 132.521 15.349 130.938 16.1167C128.196 17.4341 126.065 19.7574 124.991 22.6042C124.932 22.7634 124.877 22.9225 124.821 23.0782C124.759 23.2319 124.709 23.3904 124.672 23.5523C124.593 23.8706 124.517 24.1854 124.441 24.4934C124.336 25.0968 124.264 25.7055 124.226 26.3168C124.149 28.2942 124.565 30.2599 125.437 32.0362L124.51 34.8665L124.264 35.6C124.209 35.7661 124.178 35.8526 124.178 35.8526C124.178 35.8526 124.198 35.773 124.25 35.6104L124.472 34.8838L125.361 32.0154V32.0431C124.465 30.2635 124.032 28.2871 124.102 26.296C124.134 25.6779 124.202 25.0621 124.306 24.4519C124.382 24.1405 124.461 23.8221 124.537 23.5004C124.574 23.3368 124.623 23.176 124.683 23.0194C124.742 22.8603 124.797 22.7011 124.856 22.5385C125.434 20.9864 126.327 19.5711 127.481 18.3823C128.634 17.1935 130.021 16.2571 131.555 15.6323C133.089 15.0075 134.736 14.708 136.391 14.7526C138.047 14.7973 139.675 15.1852 141.173 15.8918C141.384 15.9922 141.602 16.0821 141.81 16.1998L142.419 16.5631L142.723 16.7464L143.014 16.9575L143.588 17.3831C143.779 17.5319 143.952 17.7014 144.131 17.8571C144.316 18.0133 144.491 18.1797 144.657 18.3553C144.997 18.7041 145.315 19.0739 145.609 19.4625C146.2 20.2328 146.698 21.0701 147.093 21.9572C147.187 22.1786 147.263 22.407 147.349 22.6284C147.441 22.854 147.518 23.0851 147.581 23.3204C147.718 23.7742 147.824 24.2365 147.899 24.7044C148.212 26.5194 148.108 28.3817 147.595 30.1505C147.103 31.8132 146.254 33.3484 145.107 34.6485C143.07 36.9644 140.221 38.4088 137.149 38.6828C136.803 38.6828 136.457 38.7313 136.139 38.7313L135.16 38.6898C134.541 38.6465 133.927 38.5563 133.322 38.4199C131.375 37.9934 129.58 37.0435 128.132 35.6726H128.16L125.195 35.8283L124.441 35.8629C124.257 35.8664 124.174 35.8664 124.174 35.8664Z" fill="#263238"/>
<path d="M129.319 26.296L131.281 24.5937L134.585 27.9879L141.997 21.8153L143.564 23.7702L134.07 31.4998L129.319 26.296Z" fill="#116EFC"/>
<path d="M103.646 120.924L37.2971 135.712C36.9131 135.799 36.5155 135.81 36.1272 135.744C35.739 135.677 35.3677 135.535 35.0348 135.324C34.7019 135.113 34.414 134.839 34.1877 134.516C33.9614 134.194 33.8011 133.83 33.716 133.445L12.1983 36.8249C12.1126 36.442 12.1032 36.046 12.1708 35.6596C12.2383 35.2731 12.3815 34.9038 12.592 34.5727C12.8025 34.2417 13.0763 33.9554 13.3976 33.7303C13.7189 33.5053 14.0815 33.3458 14.4646 33.261L80.8135 18.473C81.1966 18.3873 81.5928 18.3779 81.9795 18.4454C82.3662 18.5129 82.7358 18.656 83.0671 18.8665C83.3984 19.077 83.685 19.3507 83.9104 19.6721C84.1358 19.9935 84.2957 20.3561 84.3808 20.7393L105.912 117.36C105.998 117.743 106.007 118.139 105.94 118.525C105.872 118.912 105.729 119.281 105.519 119.612C105.308 119.943 105.034 120.229 104.713 120.454C104.392 120.679 104.029 120.839 103.646 120.924Z" fill="#E0E0E0"/>
<path d="M103.646 120.924L103.867 120.861C104.083 120.791 104.29 120.7 104.487 120.588C104.809 120.398 105.094 120.151 105.328 119.858C105.645 119.456 105.854 118.98 105.933 118.474C105.983 118.168 105.983 117.856 105.933 117.55C105.878 117.228 105.791 116.889 105.715 116.536C105.556 115.844 105.369 115.055 105.196 114.218C104.82 112.541 104.388 110.612 103.899 108.429C101.951 99.7207 99.1342 87.1193 95.6534 71.5459C93.9234 63.7609 92.0135 55.232 89.9686 46.0734C88.9491 41.4969 87.8938 36.7683 86.8027 31.8874C86.2607 29.4469 85.7094 26.973 85.1488 24.4657C84.8651 23.2132 84.5849 21.9503 84.2977 20.6804C84.1417 20.0475 83.7775 19.4854 83.2636 19.0844C82.7496 18.6834 82.1158 18.4669 81.464 18.4695C81.1389 18.4767 80.8159 18.5232 80.5021 18.6079L79.5333 18.8224L77.5853 19.2584L73.6547 20.1338L65.6552 21.9191L49.1718 25.604L14.4887 33.3267C13.7556 33.4892 13.1132 33.9279 12.6951 34.5516C12.2769 35.1753 12.1151 35.9361 12.2432 36.676C12.558 38.1465 12.8971 39.6205 13.2189 41.0875C13.874 44.017 14.5233 46.9291 15.1669 49.824L18.9729 66.9199C21.471 78.1268 23.8792 88.922 26.1731 99.2328C28.4671 109.544 30.6435 119.301 32.6849 128.473C32.9386 129.627 33.1912 130.761 33.4426 131.878C33.5706 132.438 33.6848 133.006 33.8197 133.556C33.9651 134.098 34.2629 134.587 34.6778 134.964C35.0901 135.336 35.5983 135.586 36.1449 135.684C36.4159 135.728 36.6917 135.736 36.9649 135.708C37.2348 135.674 37.5081 135.608 37.778 135.546L40.9992 134.829L53.2234 132.11L90.1139 123.913L100.148 121.692L102.757 121.117L103.646 120.924L102.76 121.131L100.151 121.719L90.1174 123.965L53.2338 132.21L41.0235 134.94L37.8022 135.66C37.5323 135.719 37.2624 135.788 36.9787 135.826C36.695 135.855 36.4088 135.845 36.1276 135.798C35.5551 135.699 35.023 135.438 34.5939 135.046C34.1648 134.654 33.8566 134.148 33.7056 133.587C33.5672 133.03 33.453 132.47 33.325 131.909C33.0735 130.786 32.8198 129.651 32.5638 128.504C30.5224 119.346 28.3391 109.561 26.0417 99.264C23.7442 88.967 21.3361 78.158 18.8345 66.951L15.0285 49.8586C14.3849 46.9661 13.7356 44.0516 13.0805 41.1152C12.7553 39.6482 12.4196 38.1811 12.1013 36.6968C11.9681 35.9217 12.1386 35.125 12.5774 34.4723C13.0162 33.8196 13.6895 33.361 14.4576 33.1918L49.1441 25.4587L65.6379 21.798L73.634 20.0161L77.5645 19.1407L79.516 18.684L80.4848 18.4695C80.8047 18.3866 81.1335 18.3424 81.464 18.338C82.1393 18.3396 82.7949 18.5659 83.3274 18.9812C83.8599 19.3966 84.239 19.9774 84.4049 20.632C84.6887 21.9053 84.9724 23.1647 85.2526 24.4207C85.8178 26.9303 86.3737 29.4008 86.9204 31.832C88.0022 36.7106 89.0552 41.4393 90.0793 46.018C92.1173 55.1766 94.0134 63.7055 95.7468 71.494C99.2068 87.064 102.009 99.6757 103.947 108.388C104.428 110.564 104.857 112.502 105.231 114.177C105.414 115.017 105.577 115.789 105.743 116.498C105.819 116.844 105.905 117.19 105.957 117.512C106.009 117.821 106.009 118.137 105.957 118.446C105.878 118.961 105.666 119.447 105.341 119.854C105.105 120.147 104.818 120.394 104.494 120.584C104.294 120.697 104.083 120.786 103.864 120.851L103.646 120.924Z" fill="#263238"/>
<g opacity="0.3">
<path d="M40.6603 132.29L101.113 118.47L99.2034 106.623L95.7746 99.9836L37.9442 122.699L40.6603 132.29Z" fill="black"/>
</g>
<g opacity="0.3">
<path d="M65.9009 22.016L68.188 25.7909L68.6309 27.7942L67.0808 28.1402L65.9009 22.016Z" fill="black"/>
</g>
<path d="M15.641 37.3854L36.6155 131.497L102.359 116.848L98.6083 100.018L81.3845 22.7323L15.641 37.3854Z" fill="white"/>
<path d="M15.641 37.3853L81.381 22.6769H81.4363V22.7357C87.2699 48.8898 94.5463 81.528 102.421 116.848V116.92H102.352L36.612 131.567H36.5498V131.501C24.201 75.9263 15.7655 37.9493 15.6375 37.3888C15.7655 37.9632 24.2564 75.9297 36.6778 131.501L36.5982 131.452L102.338 116.792L102.283 116.879C94.4183 81.5661 87.1488 48.9279 81.3256 22.7668L81.3948 22.8118L15.641 37.3853Z" fill="#263238"/>
<path d="M34.1536 26.1873L63.1469 19.7278C63.7138 19.6014 64.3078 19.7055 64.798 20.0171C65.2882 20.3287 65.6346 20.8223 65.7609 21.3892L67.4358 28.9069L34.1603 36.3205L32.4869 28.8096C32.4232 28.5279 32.4158 28.2364 32.4652 27.9519C32.5146 27.6673 32.6198 27.3954 32.7747 27.1517C32.9296 26.908 33.1312 26.6973 33.3679 26.5318C33.6045 26.3662 33.8716 26.2492 34.1536 26.1873Z" fill="#263238"/>
<path d="M52.0782 18.3899L43.6116 20.2756L46.217 27.3132L52.5937 25.8912L52.0782 18.3899Z" fill="#263238"/>
<path d="M63.1467 19.722C63.1467 19.76 56.6731 21.2374 48.6701 23.0228C40.6671 24.8082 34.1658 26.2302 34.1554 26.1922C34.145 26.1541 40.6291 24.6767 48.639 22.8913C56.6489 21.106 63.126 19.6943 63.1467 19.722Z" fill="#455A64"/>
<path d="M34.5671 34.6C34.529 34.6 34.1934 33.2506 33.8198 31.569C33.4461 29.8875 33.1693 28.5139 33.2108 28.5035C33.2523 28.4931 33.5845 29.8529 33.9581 31.5379C34.3318 33.2229 34.6052 34.6 34.5671 34.6Z" fill="#455A64"/>
<path d="M65.849 26.8635C65.571 25.9533 65.3401 25.0294 65.157 24.0955C64.9281 23.1827 64.7456 22.2588 64.6104 21.3275C64.8878 22.232 65.1187 23.1501 65.3024 24.0782C65.5319 24.9967 65.7144 25.9264 65.849 26.8635Z" fill="#455A64"/>
<path d="M64.5308 28.507C64.5308 28.545 57.8841 30.0605 49.6701 31.8908C41.456 33.7212 34.7921 35.1778 34.7748 35.1363C34.7575 35.0948 41.418 33.5828 49.6528 31.7524C57.8876 29.9221 64.51 28.4689 64.5308 28.507Z" fill="#455A64"/>
<path d="M47.0197 55.8824C47.0197 55.9239 42.539 56.955 36.9857 58.1937C31.4324 59.4324 26.9517 60.3977 26.9275 60.3597C26.9032 60.3216 31.4255 59.2871 36.9615 58.0518C42.4975 56.8166 47.0093 55.8444 47.0197 55.8824Z" fill="#263238"/>
<path d="M80.4814 52.1146C80.4814 52.1561 68.7624 54.803 54.2892 58.0277C39.816 61.2524 28.0693 63.837 28.0624 63.799C28.0555 63.7609 39.7779 61.1106 54.258 57.8858C68.7381 54.6611 80.4745 52.0765 80.4814 52.1146Z" fill="#263238"/>
<path d="M81.2044 55.36C81.2044 55.3981 69.482 58.045 55.0088 61.2732C40.5356 64.5014 28.7924 67.0825 28.782 67.041C28.7716 66.9995 40.501 64.356 54.9776 61.1313C69.4543 57.9066 81.1941 55.3116 81.2044 55.36Z" fill="#263238"/>
<path d="M81.9242 58.5848C81.9242 58.6228 70.2052 61.2697 55.732 64.4944C41.2588 67.7192 29.5121 70.3072 29.5017 70.2657C29.4913 70.2242 41.2207 67.5808 55.7008 64.3526C70.1809 61.1244 81.9138 58.5467 81.9242 58.5848Z" fill="#263238"/>
<path d="M82.6439 61.8198C82.6439 61.8579 70.9248 64.5048 56.4517 67.7295C41.9785 70.9542 30.2318 73.5388 30.2249 73.5008C30.2179 73.4627 41.9404 70.8158 56.4205 67.5876C70.9006 64.3595 82.6369 61.7783 82.6439 61.8198Z" fill="#263238"/>
<path d="M83.367 65.0481C83.367 65.0896 71.6445 67.7365 57.1713 70.9612C42.6982 74.1859 30.948 76.774 30.948 76.736C30.948 76.6979 42.667 74.051 57.1437 70.8228C71.6203 67.5946 83.3566 65.0135 83.367 65.0481Z" fill="#263238"/>
<path d="M41.11 87.8183C41.096 87.7837 41.0855 87.7478 41.0789 87.711L41.0028 87.4031C40.937 87.1228 40.8436 86.7319 40.7294 86.244C40.4976 85.2441 40.1724 83.8393 39.7848 82.1577L39.861 82.2062L34.1866 83.4795C34.1866 83.4795 34.2904 83.3168 34.2419 83.393V83.4172V83.4656L34.2627 83.5625L34.3077 83.7563L34.3907 84.1403C34.4495 84.3964 34.5049 84.6489 34.5602 84.9015C34.671 85.3998 34.7817 85.8911 34.8855 86.3686C35.0965 87.3201 35.2938 88.2197 35.4771 89.0466L35.401 88.9982L39.5011 88.1159L40.6671 87.8737L40.9785 87.8148L41.0893 87.7941C41.0893 87.7941 41.0616 87.7941 40.9924 87.8252L40.6983 87.8979L39.5565 88.1678L35.446 89.1469H35.3837V89.0847L34.7817 86.4101C34.6744 85.9326 34.5637 85.4413 34.4357 84.943C34.3803 84.6905 34.3215 84.4379 34.2661 84.1818C34.235 84.0573 34.2073 83.9258 34.1796 83.7978L34.1347 83.604L34.1139 83.5071V83.4587V83.4345V83.4172C34.0655 83.4968 34.1796 83.3134 34.1693 83.3307L39.8471 82.0747H39.9094V82.137L40.8021 86.289C40.9024 86.7734 40.982 87.1609 41.0408 87.4377C41.065 87.5623 41.0823 87.6591 41.0996 87.7387C41.1066 87.7647 41.11 87.7914 41.11 87.8183Z" fill="#263238"/>
<path d="M83.2878 73.8294L43.7003 82.6493L44.4362 85.9522L84.0237 77.1323L83.2878 73.8294Z" fill="#E0E0E0"/>
<path d="M43.3037 97.6654C43.2907 97.6293 43.2803 97.5923 43.2726 97.5547C43.2518 97.4751 43.2276 97.3713 43.1964 97.2467C43.1307 96.9665 43.0373 96.579 42.9231 96.0911C42.6913 95.0877 42.366 93.6691 41.9785 92.0014L42.0546 92.0498L36.3802 93.3231C36.3802 93.3439 36.484 93.1605 36.4356 93.2401V93.2573V93.2816V93.33L36.4564 93.4269L36.5013 93.6206C36.529 93.7521 36.5567 93.8802 36.5878 94.0082L36.7539 94.7659C36.8646 95.2676 36.9754 95.7555 37.0792 96.233C37.2902 97.1845 37.4874 98.084 37.6708 98.911L37.5947 98.8626L41.6983 97.9837L42.8608 97.7415L43.1722 97.6792C43.2083 97.6692 43.2455 97.6634 43.2829 97.6619L43.1895 97.6896L42.892 97.7623L41.7502 98.0356L37.6224 98.9871H37.5601V98.9248L36.9581 96.2502C36.8508 95.7728 36.7401 95.2815 36.6121 94.7832C36.5567 94.5341 36.4979 94.278 36.4425 94.0255C36.4148 93.8974 36.3837 93.7694 36.356 93.638L36.311 93.4442L36.2903 93.3473V93.2989V93.2573L36.3456 93.1674L42.02 91.9287H42.0823V91.9875C42.4491 93.6933 42.7743 95.1015 42.975 96.1395C43.0753 96.6239 43.1549 97.0114 43.2137 97.2882C43.238 97.4128 43.2553 97.5097 43.2726 97.5893C43.2862 97.6132 43.2967 97.6388 43.3037 97.6654Z" fill="#263238"/>
<path d="M85.4797 83.6769L45.8922 92.4967L46.6281 95.7996L86.2156 86.9798L85.4797 83.6769Z" fill="#E0E0E0"/>
<path d="M45.4973 107.509C45.4973 107.509 45.4973 107.468 45.4662 107.398C45.435 107.329 45.4212 107.215 45.39 107.09C45.3243 106.81 45.2309 106.423 45.1167 105.935C44.8849 104.935 44.5596 103.513 44.1721 101.845L44.2482 101.894L38.56 103.167C38.56 103.188 38.6638 103.004 38.6154 103.084V103.108V103.132V103.181L38.6361 103.278L38.6811 103.471C38.7088 103.603 38.7365 103.731 38.7676 103.859L38.9337 104.617C39.0444 105.118 39.1551 105.606 39.2589 106.084L39.8506 108.762L39.7745 108.717L43.878 107.834L45.0406 107.592L45.352 107.53C45.3888 107.526 45.4259 107.526 45.4627 107.53L45.3693 107.558L45.0717 107.63L43.9299 107.904L39.8021 108.855H39.7399V108.793C39.5565 107.969 39.3523 107.063 39.1378 106.118C39.0306 105.641 38.9198 105.153 38.7918 104.651C38.7365 104.402 38.6776 104.149 38.6223 103.893C38.5946 103.765 38.5635 103.637 38.5358 103.509L38.4943 103.316L38.47 103.219V103.167V103.108C38.4216 103.184 38.5358 103.001 38.5254 103.021L44.2033 101.766H44.2655V101.828L45.1582 105.98C45.2586 106.464 45.3381 106.852 45.397 107.132C45.4212 107.253 45.4419 107.35 45.4558 107.43C45.4732 107.454 45.4872 107.481 45.4973 107.509Z" fill="#263238"/>
<path d="M87.6758 93.524L48.0883 102.344L48.8242 105.647L88.4117 96.8269L87.6758 93.524Z" fill="#E0E0E0"/>
<path d="M35.657 85.7872L36.2522 84.8496L38.0202 85.8322L40.2969 82.3999L41.1757 83.0089L38.2417 87.3339L35.657 85.7872Z" fill="#116EFC"/>
<path d="M37.778 95.3023L38.3731 94.3646L40.1412 95.3472L42.4144 91.9149L43.2967 92.5239L40.3592 96.8454L37.778 95.3023Z" fill="#116EFC"/>
<path d="M39.9544 105.056L40.5495 104.122L42.3141 105.104L44.5908 101.672L45.4696 102.278L42.5356 106.603L39.9544 105.056Z" fill="#116EFC"/>
<path d="M58.0744 117.294C58.0744 117.336 54.739 118.114 50.6077 119.024C46.4765 119.934 43.1203 120.657 43.1134 120.619C43.1064 120.581 46.4453 119.803 50.5766 118.889C54.7078 117.976 58.064 117.259 58.0744 117.294Z" fill="#263238"/>
<path d="M65.5272 115.515C64.6241 115.794 63.7071 116.025 62.78 116.207C61.8669 116.435 60.9431 116.616 60.012 116.751C60.9141 116.473 61.8299 116.242 62.7557 116.059C64.2747 115.723 65.5203 115.477 65.5272 115.515Z" fill="#263238"/>
<path d="M90.2109 107.748C90.2109 107.786 87.2111 108.492 83.4951 109.319C79.779 110.146 76.755 110.786 76.7481 110.748C76.7411 110.71 79.7444 110.007 83.4639 109.177C87.1834 108.346 90.204 107.71 90.2109 107.748Z" fill="#263238"/>
<path d="M87 116.855C87 116.855 87.0312 116.761 87.0658 116.581C87.1115 116.315 87.0973 116.042 87.0242 115.782C86.9012 115.371 86.7414 114.971 86.5468 114.588C86.2709 114.08 86.1091 113.518 86.0727 112.941C86.0809 112.586 86.1633 112.237 86.3147 111.916C86.4661 111.595 86.683 111.309 86.9516 111.076C87.2663 110.815 87.6427 110.639 88.0449 110.564C88.447 110.49 88.8616 110.52 89.249 110.651C89.6744 110.78 90.0538 111.029 90.3424 111.367C90.4961 111.549 90.5871 111.776 90.6019 112.014C90.6058 112.142 90.5686 112.268 90.4957 112.373C90.4229 112.478 90.3182 112.557 90.1971 112.599C89.9708 112.672 89.7395 112.729 89.5051 112.768L88.8131 112.91C88.3494 113.004 87.8789 113.087 87.3945 113.149C86.4563 113.284 85.5039 113.29 84.5642 113.166C84.1396 113.075 83.6962 113.146 83.322 113.367C83.0247 113.667 82.773 114.008 82.5747 114.381C82.4542 114.564 82.287 114.712 82.0903 114.81C81.8902 114.898 81.6642 114.908 81.4571 114.837C81.1012 114.679 80.7626 114.484 80.4468 114.256C80.3002 114.159 80.1334 114.096 79.9589 114.073C79.7957 114.055 79.6314 114.095 79.4953 114.187C79.2559 114.406 79.0579 114.666 78.9105 114.955C78.7531 115.203 78.5382 115.409 78.284 115.556C78.0297 115.703 77.7438 115.787 77.4504 115.799C77.0066 115.817 76.573 115.663 76.2394 115.37C76.0298 115.189 75.8652 114.962 75.7585 114.706C75.7211 114.618 75.6944 114.527 75.6789 114.433C75.6789 114.433 75.71 114.526 75.7862 114.696C75.8983 114.94 76.0653 115.156 76.274 115.325C76.5994 115.601 77.0177 115.742 77.4435 115.72C77.7234 115.705 77.9955 115.623 78.2366 115.48C78.4777 115.338 78.6805 115.138 78.8275 114.9C78.9797 114.597 79.1861 114.325 79.4365 114.097C79.594 113.988 79.7852 113.937 79.9762 113.955C80.1656 113.983 80.347 114.05 80.5091 114.152C80.8197 114.372 81.1512 114.561 81.4986 114.716C81.6764 114.776 81.8701 114.767 82.0418 114.692C82.2178 114.605 82.3654 114.469 82.4674 114.301C82.6731 113.919 82.9342 113.569 83.2425 113.263C83.4341 113.126 83.6585 113.043 83.8929 113.021C84.123 112.996 84.3549 112.996 84.5849 113.021C85.5145 113.141 86.4561 113.136 87.3841 113.004C87.8616 112.941 88.3287 112.855 88.7923 112.765L89.4843 112.626C89.7065 112.585 89.926 112.531 90.1417 112.464C90.2365 112.434 90.3189 112.374 90.3763 112.292C90.4338 112.211 90.4632 112.113 90.46 112.014C90.4443 111.807 90.3645 111.61 90.2317 111.45C89.9586 111.125 89.5985 110.885 89.1937 110.758C88.8267 110.633 88.4341 110.604 88.0527 110.673C87.6714 110.742 87.3139 110.907 87.0139 111.153C86.7561 111.372 86.5471 111.643 86.4005 111.948C86.2539 112.253 86.1729 112.586 86.1627 112.924C86.1939 113.488 86.3448 114.039 86.6056 114.54C86.797 114.928 86.9511 115.334 87.0658 115.751C87.1334 116.018 87.1393 116.297 87.0831 116.567C87.0668 116.666 87.0389 116.762 87 116.855Z" fill="#263238"/>
<path d="M94.1518 112.426C94.0935 112.449 94.0333 112.468 93.9719 112.481L93.4459 112.606L91.5153 113.052C89.8891 113.433 87.6401 113.966 85.1662 114.592C82.6923 115.218 80.4606 115.824 78.8517 116.266L76.9417 116.792L76.4193 116.931C76.3594 116.95 76.2981 116.963 76.2359 116.972C76.2916 116.942 76.3509 116.919 76.4124 116.903L76.9244 116.74C77.3708 116.599 78.0178 116.394 78.8205 116.17C80.4294 115.699 82.6542 115.08 85.1316 114.44C87.6089 113.799 89.8579 113.294 91.4945 112.945C92.3111 112.768 92.9754 112.63 93.4356 112.54L93.9649 112.44C94.0267 112.429 94.0892 112.425 94.1518 112.426Z" fill="#263238"/>
<path d="M65.7721 36.5056L38.8998 42.4926L40.0246 47.5415L66.897 41.5545L65.7721 36.5056Z" fill="#E0E0E0"/>
<path d="M91.1935 118.439L99.8746 164.305L107.808 149.645L122.846 158.471L106.885 113.81L91.1935 118.439Z" fill="#116EFC"/>
<g opacity="0.3">
<path d="M94.1138 133.864C94.9402 134.02 95.7921 133.972 96.5961 133.726C97.4002 133.479 98.1323 133.041 98.7294 132.449C99.5217 131.632 100.048 130.518 101.044 129.971C101.94 129.48 103.044 129.549 104.03 129.823C105.016 130.096 105.944 130.549 106.93 130.805C107.903 131.053 108.915 131.105 109.908 130.958C110.902 130.81 111.856 130.467 112.715 129.947L110.21 122.993L98.5841 121.539L93.0481 128.2L94.1138 133.864Z" fill="black"/>
</g>
<path d="M107.244 147.825C107.196 147.825 105.902 143.071 104.355 137.185C102.809 131.3 101.587 126.511 101.643 126.501C101.698 126.491 102.982 131.248 104.528 137.14C106.075 143.033 107.293 147.811 107.244 147.825Z" fill="#263238"/>
<path d="M92.4634 120.823L83.7822 166.689L75.8484 152.032L60.8113 160.855L76.7723 116.194L92.4634 120.823Z" fill="#116EFC"/>
<g opacity="0.3">
<path d="M71.9974 129.553C71.9974 129.553 74.4679 131.584 77.4123 130.65C80.3568 129.715 82.1871 129.515 83.7822 130.65C85.3773 131.784 89.6919 135.476 89.6919 135.476L90.6918 130.186L84.8963 122.228L78.8482 123.449L74.544 123.868L72.942 126.902L71.9974 129.553Z" fill="black"/>
</g>
<path d="M143.363 79.4208C143.363 82.7112 139.159 85.545 138.544 88.6555C137.91 91.8595 140.699 96.0842 139.478 99.0355C138.256 101.987 133.25 103.046 131.475 105.713C129.7 108.381 130.634 113.377 128.361 115.654C126.088 117.931 121.095 116.972 118.42 118.768C115.746 120.564 114.742 125.525 111.742 126.771C108.795 127.992 104.57 125.203 101.362 125.837C98.2484 126.453 95.4182 130.656 92.1277 130.656C88.8372 130.656 86 126.453 82.8895 125.837C79.6855 125.203 75.4609 127.992 72.5095 126.771C69.5581 125.55 68.5028 120.543 65.8351 118.768C63.1675 116.993 58.1712 117.927 55.8911 115.654C53.611 113.381 54.5728 108.388 52.7771 105.713C50.9814 103.039 46.0197 102.035 44.7776 99.0355C43.5354 96.0357 46.345 91.8629 45.7118 88.6555C45.0959 85.5415 40.8885 82.7112 40.8885 79.4208C40.8885 76.1303 45.0959 73.2931 45.7118 70.1826C46.345 66.9786 43.5527 62.754 44.7776 59.8026C46.0024 56.8512 51.0056 55.7924 52.7771 53.1282C54.5486 50.464 53.6179 45.4643 55.8911 43.1842C58.1643 40.9041 63.1571 41.8659 65.8351 40.0702C68.5132 38.2745 69.5097 33.3128 72.5095 32.0707C75.5093 30.8285 79.6821 33.6381 82.8895 33.0049C86.0035 32.389 88.8372 28.1816 92.1277 28.1816C95.4182 28.1816 98.2519 32.389 101.362 33.0049C104.566 33.6381 108.791 30.8458 111.742 32.0707C114.742 33.3128 115.753 38.2987 118.42 40.0702C121.088 41.8417 126.084 40.911 128.361 43.1842C130.637 45.4574 129.679 50.4502 131.475 53.1282C133.271 55.8063 138.232 56.8028 139.478 59.8026C140.723 62.8024 137.91 66.9752 138.544 70.1826C139.159 73.2931 143.363 76.1199 143.363 79.4208Z" fill="#116EFC"/>
<path d="M80.1388 50.6994C80.1388 50.6994 80.1007 50.6544 80.0454 50.5575C79.99 50.4606 79.9035 50.3049 79.8101 50.1354C79.606 49.7686 79.3257 49.2289 78.9935 48.5576C78.3258 47.2152 77.4608 45.326 76.6269 43.1946C75.793 41.0633 75.1529 39.0842 74.7343 37.6586C74.5267 36.9355 74.3675 36.3508 74.2672 35.9286C74.2222 35.7418 74.1841 35.5826 74.1565 35.4581C74.1386 35.4045 74.1292 35.3485 74.1288 35.292C74.1556 35.3425 74.1765 35.3959 74.1911 35.4512L74.3329 35.9113C74.4679 36.3369 74.6443 36.9113 74.8554 37.6067C75.3052 39.0357 75.966 40.9975 76.793 43.1427C77.6199 45.2879 78.4711 47.1598 79.1077 48.5161L79.8724 50.1181L80.0765 50.5541C80.1016 50.6005 80.1225 50.6491 80.1388 50.6994Z" fill="#263238"/>
<path d="M84.6992 48.9658C84.6386 48.845 84.5933 48.7172 84.5642 48.5852C84.4916 48.3361 84.3947 47.9728 84.2805 47.523C84.0521 46.6269 83.7684 45.3743 83.5124 43.9834C83.2563 42.5925 83.0764 41.3227 82.9726 40.4023C82.9173 39.9421 82.8827 39.5685 82.8619 39.309C82.846 39.1756 82.846 39.0409 82.8619 38.9076C82.9017 39.036 82.9284 39.1682 82.9415 39.302L83.1076 40.385C83.246 41.3019 83.4536 42.5648 83.6992 43.9523C83.9449 45.3397 84.2182 46.5923 84.412 47.4953C84.5054 47.9174 84.5815 48.2773 84.6438 48.5679C84.6754 48.6984 84.694 48.8317 84.6992 48.9658Z" fill="#263238"/>
<path d="M92.7436 48.1666C92.6917 48.1666 92.5637 44.2845 92.4565 39.4993C92.3492 34.7141 92.3008 30.8285 92.3492 30.8251C92.3976 30.8216 92.5291 34.7037 92.6364 39.4958C92.7436 44.2879 92.7921 48.1666 92.7436 48.1666Z" fill="#263238"/>
<path d="M100.84 40.1912C100.888 40.1912 100.328 42.1461 99.5909 44.5266C98.854 46.9071 98.2069 48.8205 98.1723 48.8066C98.1377 48.7928 98.6844 46.8517 99.4214 44.4713C100.158 42.0908 100.788 40.1774 100.84 40.1912Z" fill="#263238"/>
<path d="M104.141 50.2218C104.148 50.1646 104.163 50.1086 104.186 50.0557L104.342 49.599C104.48 49.2046 104.688 48.6372 104.964 47.9382C105.508 46.5542 106.283 44.6201 107.168 42.5095C108.054 40.3989 108.878 38.4993 109.483 37.1292C109.781 36.4649 110.026 35.9182 110.213 35.5099L110.417 35.074C110.469 34.9771 110.497 34.9252 110.504 34.9286C110.491 34.9831 110.474 35.0363 110.452 35.0878L110.275 35.5376L109.601 37.1811C109.009 38.5858 108.217 40.4819 107.334 42.5821C106.452 44.6824 105.67 46.5785 105.082 47.9867L104.407 49.6267L104.217 50.0696C104.198 50.1233 104.172 50.1744 104.141 50.2218Z" fill="#263238"/>
<path d="M108.452 52.4777C108.505 52.3553 108.571 52.2393 108.649 52.1317C108.788 51.9102 108.995 51.5954 109.251 51.2113C109.77 50.4467 110.518 49.4017 111.386 48.2876C112.255 47.1735 113.088 46.2116 113.704 45.5196C114.012 45.1736 114.268 44.9003 114.448 44.7134C114.535 44.6098 114.634 44.5169 114.742 44.4366C114.675 44.5547 114.594 44.6639 114.5 44.7619C114.313 44.9902 114.078 45.2705 113.808 45.6027C113.216 46.3154 112.403 47.3015 111.535 48.4156C110.666 49.5298 109.909 50.5574 109.362 51.3047L108.715 52.187C108.638 52.2928 108.55 52.3902 108.452 52.4777Z" fill="#263238"/>
<path d="M114.756 57.6332C114.722 57.5986 117.462 54.9967 120.87 51.8239C124.278 48.6511 127.074 46.108 127.098 46.1426C127.122 46.1772 124.396 48.7825 120.984 51.9554C117.573 55.1282 114.791 57.6713 114.756 57.6332Z" fill="#263238"/>
<path d="M125.752 58.7092C125.418 58.9202 125.072 59.1098 124.714 59.2767C124.063 59.6227 123.181 60.1036 122.205 60.6607C121.23 61.2177 120.33 61.6814 119.662 61.9928C119.316 62.1485 119.06 62.2696 118.867 62.3388C118.772 62.3881 118.67 62.423 118.566 62.4426C118.899 62.2316 119.246 62.0421 119.604 61.8751C120.254 61.5291 121.136 61.0482 122.112 60.4911C123.088 59.9341 123.987 59.4531 124.655 59.159C125.001 59.0033 125.257 58.8822 125.451 58.813C125.545 58.7623 125.647 58.7272 125.752 58.7092Z" fill="#263238"/>
<path d="M135.921 62.927C135.938 62.9754 132.679 64.1657 128.655 65.5877C124.631 67.0098 121.334 68.1204 121.32 68.0755C121.306 68.0305 124.558 66.8368 128.586 65.4147C132.613 63.9927 135.904 62.882 135.921 62.927Z" fill="#263238"/>
<path d="M139.16 81.4275C139.16 81.476 135.613 81.1819 131.25 80.7667C126.887 80.3515 123.351 79.9743 123.358 79.9224C123.365 79.8705 126.901 80.1716 131.267 80.5868C135.634 81.002 139.163 81.3791 139.16 81.4275Z" fill="#263238"/>
<path d="M136.554 98.0218C136.533 98.0668 133.222 96.5444 129.16 94.6276C125.098 92.7107 121.821 91.1157 121.842 91.0707C121.863 91.0257 125.174 92.5446 129.236 94.4649C133.298 96.3852 136.575 97.9768 136.554 98.0218Z" fill="#263238"/>
<path d="M125.662 113.81C125.624 113.841 123.24 111.069 120.33 107.623C117.42 104.177 115.095 101.35 115.14 101.319C115.185 101.288 117.562 104.056 120.472 107.506C123.382 110.955 125.7 113.775 125.662 113.81Z" fill="#263238"/>
<path d="M116.569 115.91C116.462 115.79 116.365 115.66 116.282 115.522C116.105 115.266 115.856 114.889 115.559 114.422C114.957 113.485 114.151 112.173 113.299 110.703C112.448 109.232 111.722 107.876 111.223 106.897C110.971 106.402 110.767 106.001 110.635 105.72C110.557 105.578 110.492 105.428 110.441 105.274C110.539 105.403 110.625 105.541 110.698 105.686C110.864 105.99 111.078 106.378 111.338 106.838C111.874 107.81 112.621 109.153 113.469 110.623C114.317 112.094 115.106 113.412 115.68 114.363C115.95 114.82 116.178 115.197 116.355 115.495C116.441 115.625 116.513 115.764 116.569 115.91Z" fill="#263238"/>
<path d="M110.922 123.833C110.922 123.833 110.888 123.788 110.833 123.691L110.608 123.269C110.41 122.899 110.144 122.359 109.826 121.688C109.189 120.342 108.369 118.453 107.59 116.315C106.812 114.177 106.224 112.204 105.86 110.779C105.67 110.059 105.514 109.471 105.438 109.066C105.4 108.879 105.369 108.72 105.341 108.596C105.328 108.541 105.32 108.485 105.317 108.429C105.346 108.479 105.365 108.533 105.376 108.589L105.508 109.049C105.629 109.478 105.788 110.049 105.982 110.744C106.39 112.173 106.995 114.138 107.774 116.28C108.552 118.422 109.348 120.301 109.957 121.66L110.684 123.262C110.76 123.435 110.826 123.581 110.881 123.698C110.9 123.741 110.914 123.787 110.922 123.833Z" fill="#263238"/>
<path d="M99.4837 118.266C99.4088 117.868 99.3591 117.466 99.3349 117.062C99.2553 116.318 99.1273 115.291 98.9404 114.166C98.7536 113.042 98.5356 112.031 98.3695 111.301C98.2608 110.91 98.1776 110.513 98.1204 110.111C98.1719 110.207 98.2114 110.31 98.2381 110.416C98.3073 110.616 98.3938 110.907 98.4941 111.27C98.6913 111.993 98.9266 113 99.1169 114.139C99.2825 115.103 99.3979 116.075 99.4629 117.052C99.4871 117.426 99.501 117.744 99.501 117.941C99.5099 118.05 99.504 118.159 99.4837 118.266Z" fill="#263238"/>
<path d="M91.9997 128.227C91.9917 128.169 91.9917 128.11 91.9997 128.051C91.9997 127.913 91.9997 127.743 91.9997 127.542C91.9997 127.099 91.9997 126.459 91.9997 125.671C92.0274 124.089 92.1001 121.91 92.2246 119.505C92.3492 117.1 92.5049 114.92 92.6329 113.346C92.6952 112.557 92.754 111.92 92.799 111.481C92.8232 111.28 92.8405 111.111 92.8543 110.976C92.8584 110.916 92.87 110.857 92.8889 110.799C92.8971 110.859 92.8971 110.92 92.8889 110.979C92.8889 111.114 92.8889 111.284 92.8647 111.488C92.837 111.955 92.8024 112.585 92.7575 113.353C92.664 114.955 92.5395 117.121 92.4115 119.512C92.2834 121.903 92.1935 124.096 92.1347 125.674C92.107 126.442 92.0828 127.058 92.0655 127.542C92.0655 127.747 92.0447 127.913 92.0378 128.051C92.0339 128.111 92.0211 128.171 91.9997 128.227Z" fill="#263238"/>
<path d="M85.917 110.799C85.9146 111.098 85.8798 111.395 85.8132 111.685C85.7233 112.225 85.578 112.969 85.3877 113.782C85.1974 114.595 84.9967 115.329 84.8375 115.858C84.7685 116.147 84.6676 116.428 84.5365 116.695C84.5673 116.4 84.6264 116.108 84.713 115.823L85.2112 113.747C85.3911 112.969 85.5572 112.263 85.6887 111.671C85.7367 111.374 85.8131 111.082 85.917 110.799Z" fill="#263238"/>
<path d="M74.9177 105.53C74.4643 106.279 73.9591 106.996 73.4056 107.675C72.8979 108.39 72.3443 109.07 71.7483 109.713C72.2006 108.963 72.7059 108.246 73.2603 107.568C73.7657 106.852 74.3194 106.171 74.9177 105.53Z" fill="#263238"/>
<path d="M69.1499 101.641C69.1845 101.672 67.0393 104.194 64.3543 107.27C61.6694 110.346 59.4584 112.806 59.4204 112.782C59.3823 112.758 61.531 110.229 64.2159 107.153C66.9009 104.077 69.1118 101.606 69.1499 101.641Z" fill="#263238"/>
<path d="M66.2607 97.347C65.4122 98.1654 64.5218 98.9392 63.5931 99.6652C62.088 100.904 60.8424 101.88 60.8251 101.842C61.6742 101.025 62.5646 100.252 63.4927 99.5268C64.3783 98.7543 65.3021 98.0268 66.2607 97.347Z" fill="#263238"/>
<path d="M62.8838 90.8734C62.9046 90.9183 59.9151 92.4061 56.2025 94.1915C52.49 95.9769 49.4694 97.392 49.4452 97.347C49.4209 97.302 52.4138 95.8177 56.1264 94.0289C59.839 92.2401 62.863 90.8284 62.8838 90.8734Z" fill="#263238"/>
<path d="M61.5275 87.6451C61.4281 87.6888 61.3234 87.719 61.216 87.7351C61.0119 87.7835 60.7178 87.8458 60.3545 87.9116C59.6245 88.05 58.6072 88.2022 57.4792 88.3164C56.3513 88.4306 55.3237 88.479 54.5798 88.4894C54.2096 88.4894 53.9085 88.4894 53.7009 88.4894C53.5927 88.4964 53.484 88.4859 53.3792 88.4582C53.776 88.4037 54.1758 88.3725 54.5763 88.3648C55.3167 88.3198 56.3375 88.2506 57.462 88.1365C58.5865 88.0223 59.6002 87.8908 60.3337 87.7905C60.7277 87.7139 61.1266 87.6653 61.5275 87.6451Z" fill="#263238"/>
<path d="M60.4306 80.1889C60.2292 80.2056 60.0266 80.2056 59.8251 80.1889L58.1782 80.1058C56.7942 80.0366 54.8704 79.9743 52.7494 79.9847C50.6285 79.9951 48.7047 80.0816 47.3172 80.1646L45.6737 80.265C45.4728 80.288 45.2703 80.2949 45.0682 80.2857C45.2648 80.2386 45.4651 80.2085 45.6668 80.1958C46.0543 80.1508 46.6149 80.0955 47.3069 80.0366C48.6909 79.9225 50.6215 79.8186 52.746 79.8048C54.8704 79.791 56.7976 79.8775 58.1886 79.9778C58.8806 80.0297 59.4445 80.0781 59.8321 80.1197C60.033 80.1287 60.233 80.1518 60.4306 80.1889Z" fill="#263238"/>
<path d="M61.1088 73.6425C61.1088 73.691 58.8564 73.1062 56.1057 72.3381C53.355 71.57 51.1371 70.9126 51.1509 70.8641C51.1648 70.8157 53.4034 71.397 56.1541 72.1651C58.9048 72.9332 61.1227 73.5941 61.1088 73.6425Z" fill="#263238"/>
<path d="M62.5586 68.1619C62.5029 68.1587 62.4481 68.147 62.3959 68.1273L61.9358 67.9889C61.5413 67.8644 60.9704 67.6706 60.275 67.418C58.4578 66.7508 56.6769 65.9885 54.9396 65.1344C53.2031 64.2794 51.5133 63.3323 49.8777 62.2972C49.2514 61.8993 48.7497 61.5672 48.4106 61.3284L48.0231 61.0482C47.9366 60.9824 47.8916 60.9478 47.8951 60.9409C47.9474 60.962 47.9973 60.9887 48.0439 61.0205L48.4521 61.2696C48.7981 61.4911 49.3102 61.8059 49.9434 62.19C51.2132 62.9581 52.9917 63.9719 55.0192 64.958C57.0468 65.9441 58.9359 66.7468 60.3199 67.2866C61.0119 67.553 61.569 67.764 61.96 67.9094L62.4063 68.0789C62.4593 68.1023 62.5102 68.1301 62.5586 68.1619Z" fill="#263238"/>
<path d="M65.8144 62.626C65.7867 62.664 64.0359 61.4807 61.9046 59.9791C59.7732 58.4774 58.0674 57.2284 58.0986 57.1868C58.1297 57.1453 59.877 58.3321 62.0118 59.8337C64.1466 61.3354 65.842 62.5948 65.8144 62.626Z" fill="#263238"/>
<path d="M58.9325 45.8173C58.9325 45.8173 58.9809 45.8449 59.064 45.9107L59.41 46.2152L60.6867 47.3431L64.8768 51.0834L69.0841 54.8029L70.3574 55.9343L70.7034 56.2492C70.7452 56.2835 70.7824 56.323 70.8141 56.3668C70.8141 56.3668 70.7657 56.3426 70.6792 56.2768L70.3332 55.9897C70.0183 55.7371 69.572 55.3634 69.0218 54.8998C67.9216 53.9725 66.4199 52.675 64.7764 51.2183C63.1329 49.7617 61.6624 48.4192 60.6244 47.4365C60.0985 46.9452 59.6764 46.5473 59.3857 46.2636L59.057 45.9384C58.974 45.8622 58.9256 45.8207 58.9325 45.8173Z" fill="#263238"/>
<path d="M69.7242 46.1322C69.7242 46.1322 69.8176 46.2083 69.9595 46.3709C70.1013 46.5336 70.3055 46.7723 70.5442 47.0629C71.0251 47.665 71.6652 48.5161 72.3296 49.4849C72.9939 50.4537 73.5509 51.3603 73.935 52.028C74.1288 52.374 74.281 52.6335 74.3779 52.8238C74.4378 52.9185 74.4843 53.021 74.5163 53.1283C74.2627 52.7982 74.0315 52.4514 73.8243 52.0903C73.4125 51.4398 72.8382 50.5506 72.1773 49.5818C71.5165 48.613 70.8937 47.7584 70.4473 47.1391C70.1865 46.8181 69.945 46.4819 69.7242 46.1322Z" fill="#263238"/>
<g opacity="0.2">
<path d="M55.8947 43.1876L70.9491 56.3668L74.6894 53.3739L65.9563 39.9906C65.9563 39.9906 65.2851 40.4819 63.5343 40.9802C61.8631 41.4611 56.8981 41.5891 55.8947 43.1876Z" fill="black"/>
</g>
<g opacity="0.2">
<path d="M72.6514 32.0396L80.0005 50.4364L84.6992 48.9659L83.1318 33.0084C83.1318 33.0084 82.3256 33.1987 80.5298 32.9704C78.7895 32.7489 74.5717 31.0985 72.6514 32.0396Z" fill="black"/>
</g>
<g opacity="0.3">
<path d="M92.2488 28.1886L92.7436 48.1666L97.1447 48.3777L101.601 33.0429C100.675 32.8591 99.7947 32.4946 99.0097 31.9703C97.4873 30.9946 94.3802 28.0259 92.2488 28.1886Z" fill="black"/>
</g>
<g opacity="0.2">
<path d="M111.445 31.9634L104.141 50.381L108.106 52.2805L118.157 39.8729C117.402 39.2352 116.758 38.4763 116.251 37.6274C115.303 36.0946 113.67 32.5758 111.445 31.9634Z" fill="black"/>
</g>
<g opacity="0.2">
<path d="M128.6 43.4541L114.995 57.6401L118.026 61.7264L131.319 52.8549C130.881 52.0487 130.585 51.1733 130.444 50.2668C130.125 48.5368 130.08 45.3952 128.6 43.4541Z" fill="black"/>
</g>
<g opacity="0.2">
<path d="M139.339 59.4601L121.019 66.9994L122.538 71.6808L138.478 69.9508C138.478 69.9508 138.378 69.4595 138.589 67.6637C138.789 65.9234 140.63 62.0343 139.339 59.4601Z" fill="black"/>
</g>
<g opacity="0.2">
<path d="M143.398 79.4208L123.423 80.1128L123.257 84.5174L138.481 88.9738C138.582 88.3397 138.786 87.7263 139.083 87.1573C140.218 85.0398 143.398 82.0504 143.398 79.4208Z" fill="black"/>
</g>
<g opacity="0.2">
<path d="M139.713 98.3056L121.323 91.1399L119.465 95.15L131.98 105.056C132.638 104.426 133.366 103.873 134.149 103.409C135.672 102.437 139.291 100.862 139.713 98.3056Z" fill="black"/>
</g>
<g opacity="0.2">
<path d="M112.666 98.0217L108.113 101.828C108.459 102.174 114.524 112.498 118.265 118.872C118.313 118.83 118.364 118.79 118.417 118.754C120.877 117.107 125.257 117.768 127.728 116.138L112.666 98.0217Z" fill="black"/>
<path d="M104.3 105.246L97.5046 107.564L100.722 126.013C100.931 125.939 101.145 125.881 101.362 125.837C104.566 125.204 108.791 127.992 111.742 126.771C112.147 126.598 112.522 126.364 112.857 126.079L104.3 105.246Z" fill="black"/>
<path d="M91.8924 130.65L92.9754 106.547L87.0934 105.056L82.7234 125.816L82.8826 125.844C85.9274 126.435 88.6988 130.442 91.8924 130.65Z" fill="black"/>
<path d="M77.1183 102.454C77.1183 102.454 69.354 112.855 65.292 118.453C65.48 118.548 65.6625 118.653 65.8387 118.768C68.5063 120.553 69.5132 125.525 72.513 126.771C72.6514 126.826 72.7933 126.871 72.9351 126.913L83.7822 106.381L77.1183 102.454Z" fill="black"/>
<path d="M69.1499 94.0808L52.5903 105.461C52.6526 105.544 52.7218 105.623 52.7772 105.71C54.5764 108.395 53.6179 113.374 55.8912 115.65C56.101 115.857 56.3331 116.039 56.5832 116.194C62.434 109.599 72.9386 97.7588 73.3192 97.3471L69.1499 94.0808Z" fill="black"/>
<path d="M65.3543 85.9532L45.7741 89.1157C46.089 92.2574 43.6116 96.2225 44.7776 99.032C44.8479 99.2037 44.9324 99.3692 45.0302 99.5268C51.881 96.1153 66.195 89.0188 66.7902 88.9808L65.3543 85.9532Z" fill="black"/>
<path d="M64.2851 75.0474L45.7775 69.7086C45.7602 69.8678 45.7395 70.0269 45.7118 70.1826C45.0959 73.2966 40.8885 76.1304 40.8885 79.4208C40.8895 79.6399 40.908 79.8586 40.9439 80.0748H63.5342L64.2851 75.0474Z" fill="black"/>
<path d="M44.8538 59.6607C51.7738 63.3664 65.292 70.8642 65.292 70.8642L68.6205 64.5428L52.9882 52.7788C52.919 52.8999 52.8533 53.0245 52.7772 53.1248C51.016 55.7509 46.1962 56.7751 44.8538 59.6607Z" fill="black"/>
</g>
<path d="M143.363 79.4208L143.343 79.1994C143.334 78.9824 143.304 78.7668 143.253 78.5558C143.051 77.7261 142.7 76.9404 142.215 76.2376C141.62 75.2827 140.72 74.2135 139.793 72.8607C139.269 72.141 138.867 71.3403 138.602 70.4906C138.377 69.4986 138.377 68.4688 138.602 67.4769C138.796 66.4216 139.111 65.3352 139.384 64.183C139.658 63.0308 139.914 61.7852 139.658 60.5119C139.513 59.8674 139.218 59.2664 138.796 58.7577C138.344 58.2398 137.828 57.7817 137.26 57.3945C136.111 56.5779 134.79 55.9274 133.527 55.0763C132.873 54.655 132.28 54.1476 131.762 53.5677C131.254 52.9383 130.885 52.2084 130.679 51.426C130.236 49.8517 130.136 48.1701 129.8 46.4885C129.654 45.6323 129.365 44.8067 128.946 44.0458C128.49 43.2798 127.8 42.6814 126.977 42.34C126.127 41.9986 125.238 41.7661 124.33 41.648C123.413 41.4958 122.472 41.3885 121.531 41.2224C120.567 41.0834 119.632 40.7877 118.763 40.347C117.901 39.8292 117.172 39.1186 116.631 38.271C116.057 37.4476 115.562 36.5618 115.036 35.6864C114.533 34.7908 113.929 33.955 113.237 33.1952C112.524 32.4266 111.552 31.9495 110.507 31.8562C109.44 31.8167 108.374 31.9416 107.345 32.2264C106.307 32.479 105.241 32.7869 104.151 32.9911C103.049 33.2507 101.9 33.2293 100.809 32.9288C99.7451 32.5115 98.7501 31.9364 97.8575 31.223C96.9337 30.531 96.0341 29.839 95.048 29.2231C94.0619 28.6073 92.9443 28.1609 91.7817 28.2924H91.5637C91.4911 28.2924 91.4219 28.3235 91.3527 28.3374C91.2108 28.372 91.0655 28.3962 90.9271 28.4377C90.6484 28.5264 90.3757 28.6327 90.1105 28.756C89.5753 29.0106 89.0616 29.3079 88.5743 29.6453C87.5917 30.3373 86.6609 31.0915 85.6506 31.7766C85.1476 32.1287 84.6151 32.4367 84.059 32.697C83.4891 32.9519 82.879 33.1053 82.2563 33.1502C81.0079 33.1583 79.7651 32.9822 78.568 32.6278C77.3626 32.2836 76.1332 32.0304 74.89 31.87C74.2692 31.809 73.6425 31.851 73.0354 31.9946C72.4307 32.1627 71.873 32.4682 71.4058 32.8873C70.4508 33.7211 69.7865 34.8422 69.1222 35.9425C68.495 37.0946 67.7618 38.1858 66.932 39.2018C66.4927 39.7051 65.965 40.1237 65.375 40.437C64.7726 40.7218 64.1401 40.9376 63.4893 41.0806C62.1883 41.3677 60.8597 41.4888 59.5484 41.7241C58.237 41.9594 56.898 42.3296 55.95 43.25C55.4924 43.7374 55.1392 44.3132 54.912 44.9419C54.6829 45.5761 54.5149 46.2307 54.4103 46.8968C54.1681 48.2324 54.0643 49.6025 53.7183 50.9485C53.5696 51.6316 53.3213 52.2891 52.9813 52.8999C52.6231 53.5051 52.1535 54.0369 51.5973 54.4673C50.5039 55.3461 49.2618 55.9966 48.0715 56.7232C47.4752 57.0821 46.9031 57.4797 46.3588 57.9135C45.8174 58.3461 45.362 58.8766 45.0164 59.4774C44.6868 60.0892 44.52 60.7755 44.532 61.4703C44.5442 62.1688 44.6265 62.8643 44.7776 63.5463C45.0683 64.9303 45.5077 66.2901 45.743 67.6983C45.8824 68.421 45.9104 69.1608 45.826 69.892C45.7278 70.6213 45.493 71.3256 45.134 71.968C44.4109 73.2309 43.4697 74.3415 42.6359 75.5179C42.2077 76.0977 41.8347 76.7163 41.5218 77.3656C41.179 77.9989 40.9994 78.7076 40.9994 79.4277C40.9994 80.1479 41.179 80.8566 41.5218 81.4899C41.8341 82.1395 42.2072 82.7581 42.6359 83.3375C43.4697 84.5139 44.4109 85.6246 45.134 86.8875C45.4864 87.518 45.7209 88.2074 45.826 88.922C45.9139 89.6433 45.8906 90.3738 45.7568 91.0879C45.525 92.51 45.0856 93.8732 44.7915 95.2572C44.6416 95.9395 44.5593 96.6349 44.5458 97.3332C44.5322 98.029 44.6978 98.7165 45.0267 99.3297C45.3697 99.9323 45.8241 100.464 46.3658 100.897C46.91 101.331 47.4822 101.728 48.0785 102.087C49.2687 102.814 50.5005 103.471 51.6077 104.343C52.1629 104.775 52.6324 105.306 52.9917 105.911C53.3342 106.519 53.5827 107.176 53.7286 107.859C54.0539 109.208 54.1646 110.578 54.4206 111.914C54.5281 112.58 54.6972 113.234 54.9258 113.869C55.1476 114.497 55.4949 115.074 55.9465 115.564C56.9049 116.495 58.2543 116.865 59.5484 117.1C60.8424 117.336 62.1883 117.446 63.4893 117.744C64.141 117.887 64.7747 118.103 65.3785 118.387C65.9677 118.702 66.4952 119.12 66.9355 119.623C67.7569 120.64 68.4831 121.731 69.1049 122.882C69.7692 123.982 70.4335 125.103 71.3885 125.937C71.8549 126.355 72.4113 126.661 73.0147 126.83C73.627 126.984 74.2608 127.036 74.89 126.982C76.1309 126.815 77.3579 126.557 78.5611 126.21C79.7588 125.853 81.003 125.676 82.2529 125.684C82.8756 125.731 83.4856 125.886 84.0555 126.141C84.6112 126.402 85.1437 126.71 85.6471 127.062C86.6575 127.754 87.5847 128.518 88.5708 129.189C89.0561 129.529 89.5688 129.828 90.1036 130.082C90.369 130.205 90.6417 130.311 90.9202 130.4C91.062 130.439 91.2039 130.466 91.3458 130.501L91.5603 130.546H91.7748C92.9408 130.677 94.0619 130.2 95.0445 129.615C96.0271 129.03 96.9302 128.293 97.8506 127.615C98.7445 126.902 99.7406 126.327 100.805 125.909C101.897 125.611 103.046 125.589 104.148 125.847C105.238 126.055 106.29 126.363 107.341 126.615C108.372 126.897 109.439 127.022 110.507 126.985C111.55 126.888 112.521 126.411 113.234 125.643C113.923 124.88 114.527 124.044 115.033 123.148C115.555 122.276 116.05 121.391 116.625 120.564C117.168 119.718 117.898 119.007 118.759 118.488C119.628 118.047 120.563 117.752 121.527 117.616C122.472 117.446 123.41 117.339 124.326 117.19C125.235 117.066 126.125 116.828 126.973 116.481C127.796 116.138 128.486 115.54 128.942 114.775C129.359 114.013 129.646 113.188 129.793 112.332C130.139 110.651 130.229 108.966 130.676 107.391C130.879 106.609 131.248 105.88 131.759 105.253C132.275 104.672 132.868 104.164 133.523 103.745C134.786 102.893 136.108 102.243 137.253 101.426C137.824 101.04 138.341 100.581 138.793 100.06C139.214 99.5525 139.508 98.9524 139.651 98.309C139.771 97.6875 139.789 97.0504 139.703 96.4233C139.631 95.822 139.523 95.2257 139.377 94.6379C139.101 93.4857 138.789 92.3993 138.596 91.344C138.37 90.3521 138.37 89.3223 138.596 88.3303C138.861 87.4811 139.263 86.6807 139.786 85.9602C140.723 84.6074 141.626 83.5382 142.208 82.5833C142.693 81.8808 143.045 81.095 143.246 80.2651C143.298 80.0542 143.328 79.8385 143.336 79.6215L143.356 79.4035C143.356 79.4035 143.356 79.4762 143.356 79.6215C143.35 79.8394 143.322 80.0561 143.273 80.2685C143.076 81.1051 142.724 81.8972 142.235 82.604C141.644 83.5659 140.748 84.6385 139.813 85.9914C139.294 86.7062 138.898 87.5025 138.641 88.3476C138.415 89.3291 138.415 90.3487 138.641 91.3301C138.834 92.3681 139.149 93.465 139.429 94.6171C139.58 95.2095 139.696 95.8103 139.775 96.4163C139.862 97.0516 139.844 97.6966 139.723 98.3263C139.579 98.9844 139.28 99.5987 138.852 100.119C138.396 100.645 137.874 101.11 137.298 101.503C136.142 102.326 134.824 102.98 133.568 103.828C132.927 104.244 132.345 104.746 131.838 105.319C131.338 105.936 130.977 106.654 130.779 107.423C130.34 108.98 130.243 110.661 129.904 112.353C129.758 113.222 129.466 114.061 129.042 114.834C128.575 115.622 127.867 116.238 127.022 116.592C126.164 116.944 125.266 117.186 124.347 117.311C123.427 117.464 122.486 117.571 121.548 117.74C120.596 117.876 119.673 118.167 118.815 118.602C117.978 119.11 117.268 119.802 116.739 120.626C116.171 121.446 115.676 122.328 115.151 123.207C114.642 124.111 114.033 124.956 113.338 125.726C112.602 126.519 111.599 127.012 110.521 127.11C109.438 127.153 108.355 127.028 107.31 126.74C106.255 126.487 105.203 126.183 104.124 125.979C103.046 125.726 101.922 125.747 100.854 126.037C99.8053 126.451 98.8245 127.019 97.944 127.722C97.0271 128.397 96.124 129.124 95.1275 129.733C94.868 129.871 94.6224 130.034 94.3525 130.148C94.2176 130.21 94.0861 130.276 93.9511 130.331L93.5325 130.48C92.9648 130.675 92.3618 130.746 91.7644 130.688L91.5395 130.67C91.4669 130.67 91.3942 130.639 91.3181 130.625C91.1728 130.591 91.024 130.563 90.8821 130.522C90.5947 130.433 90.3137 130.324 90.0413 130.196C89.4984 129.939 88.9776 129.637 88.4843 129.293C87.4913 128.601 86.5606 127.847 85.5606 127.165C85.0639 126.821 84.5397 126.518 83.9933 126.259C83.4404 126.013 82.8493 125.864 82.246 125.819C81.0124 125.814 79.7848 125.99 78.6026 126.342C77.3869 126.7 76.1458 126.964 74.89 127.134C74.2484 127.197 73.6008 127.154 72.9732 127.006C72.3445 126.831 71.7645 126.514 71.2778 126.079C70.2951 125.217 69.6239 124.086 68.9596 122.982C68.344 121.841 67.6235 120.759 66.8074 119.751C66.3823 119.263 65.8709 118.859 65.2989 118.557C64.7092 118.277 64.0893 118.065 63.4512 117.927C62.1641 117.643 60.8389 117.522 59.5172 117.284C58.8513 117.173 58.197 117.001 57.5623 116.772C56.9186 116.536 56.3299 116.171 55.8323 115.699C55.36 115.194 54.9982 114.597 54.7701 113.945C54.5365 113.3 54.3639 112.635 54.2546 111.959C54.0124 110.613 53.9086 109.243 53.5626 107.914C53.4189 107.248 53.1763 106.608 52.8429 106.014C52.4927 105.428 52.0349 104.912 51.4935 104.495C50.4209 103.634 49.1822 102.983 47.9885 102.253C47.3863 101.89 46.8084 101.488 46.2585 101.049C45.6988 100.601 45.2292 100.05 44.8745 99.4265C44.5328 98.7888 44.3612 98.0739 44.3763 97.3505C44.3845 96.6345 44.468 95.9212 44.6254 95.2226C44.9195 93.8386 45.3589 92.4546 45.5873 91.0706C45.7179 90.3735 45.74 89.6605 45.653 88.9566C45.5482 88.2572 45.3135 87.5836 44.961 86.9705C44.269 85.7249 43.314 84.6212 42.4733 83.4344C42.0351 82.8431 41.6518 82.2131 41.328 81.5522C40.9761 80.8944 40.7919 80.1599 40.7919 79.4139C40.7919 78.6679 40.9761 77.9334 41.328 77.2756C41.6473 76.6167 42.0273 75.9889 42.4629 75.4003C43.3037 74.2135 44.2413 73.1098 44.9472 71.8676C45.2993 71.2532 45.534 70.5785 45.6392 69.8781C45.7199 69.1739 45.6966 68.4616 45.57 67.7641C45.3381 66.3801 44.8987 64.9961 44.6046 63.6121C44.4501 62.9142 44.3678 62.2023 44.359 61.4876C44.3452 60.764 44.5179 60.0491 44.8607 59.4116C45.2177 58.7908 45.687 58.2417 46.2447 57.7924C46.7937 57.3527 47.3717 56.9504 47.9747 56.5883C49.1684 55.8582 50.3967 55.2043 51.4796 54.3462C52.02 53.9292 52.4767 53.4139 52.8256 52.8273C53.1574 52.232 53.3988 51.5906 53.5418 50.9243C53.8636 49.5956 53.9743 48.2289 54.2338 46.883C54.342 46.2064 54.5134 45.5415 54.7459 44.8969C54.9545 44.2372 55.3177 43.6368 55.8052 43.1457C56.2926 42.6547 56.8903 42.2871 57.5485 42.0736C58.1831 41.8437 58.8375 41.6722 59.5034 41.5615C60.8251 41.3228 62.1503 41.2155 63.4374 40.9214C64.0742 40.7789 64.6938 40.5678 65.285 40.2917C65.8554 39.9875 66.3654 39.5818 66.7901 39.0945C67.6062 38.0864 68.3267 37.0045 68.9423 35.8629C69.6066 34.7591 70.2778 33.6277 71.2639 32.7696C71.753 32.3284 72.3383 32.0074 72.9732 31.832C73.601 31.686 74.2483 31.6428 74.89 31.704C76.1381 31.8708 77.372 32.1299 78.5818 32.479C79.7635 32.8338 80.9914 33.011 82.2252 33.0049C82.8229 32.9573 83.4081 32.8075 83.9552 32.562C84.5034 32.3067 85.0279 32.0033 85.5226 31.6555C86.526 30.9635 87.4567 30.2058 88.4497 29.5311C88.9422 29.1864 89.4631 28.8843 90.0067 28.628C90.2788 28.5012 90.5584 28.3914 90.8441 28.2993C90.9894 28.2578 91.1382 28.2336 91.2835 28.199L91.5015 28.1505H91.7264C92.3238 28.0941 92.9263 28.1649 93.4944 28.3581L93.9131 28.5069C94.048 28.5623 94.1795 28.628 94.3144 28.6903C94.5878 28.8079 94.8334 28.9671 95.0895 29.1055C96.0894 29.7145 96.989 30.4411 97.9094 31.1158C98.789 31.8188 99.7686 32.3867 100.816 32.8008C101.884 33.0934 103.008 33.1136 104.085 32.8596C105.165 32.6589 106.217 32.3544 107.272 32.1019C108.317 31.8145 109.4 31.6885 110.483 31.7282C111.56 31.8271 112.563 32.3199 113.299 33.1122C113.996 33.8833 114.605 34.7292 115.116 35.6345C115.642 36.5099 116.133 37.3957 116.701 38.2122C117.229 39.0379 117.939 39.7315 118.777 40.2398C119.634 40.6759 120.558 40.967 121.51 41.1013C122.448 41.2709 123.389 41.3781 124.309 41.5304C125.227 41.6577 126.126 41.8995 126.984 42.25C127.829 42.6036 128.538 43.2183 129.008 44.0043C129.43 44.7778 129.722 45.6161 129.869 46.4851C130.215 48.177 130.305 49.8586 130.741 51.4156C130.942 52.1838 131.302 52.9008 131.8 53.5193C132.306 54.0941 132.888 54.597 133.53 55.014C134.786 55.8617 136.108 56.5156 137.26 57.3391C137.835 57.7313 138.358 58.1965 138.813 58.7231C139.242 59.2419 139.542 59.8549 139.689 60.5119C139.809 61.1427 139.827 61.7889 139.741 62.4253C139.661 63.0303 139.546 63.6299 139.395 64.221C139.118 65.3767 138.8 66.4597 138.606 67.5115C138.381 68.4929 138.381 69.5126 138.606 70.494C138.863 71.3391 139.26 72.1354 139.779 72.8503C140.71 74.2066 141.606 75.2723 142.201 76.2376C142.689 76.9449 143.041 77.7369 143.239 78.5731C143.287 78.7856 143.315 79.0023 143.322 79.2201C143.363 79.3447 143.363 79.4208 143.363 79.4208Z" fill="#263238"/>
<path d="M82.502 126.982C82.5504 126.982 81.2737 132.172 79.651 138.545C78.0282 144.919 76.6719 150.077 76.6235 150.067C76.575 150.057 77.8518 144.877 79.4745 138.5C81.0972 132.123 82.4674 126.954 82.502 126.982Z" fill="#263238"/>
<path d="M92.1278 110.831C109.475 110.831 123.538 96.7679 123.538 79.4207C123.538 62.0735 109.475 48.0109 92.1278 48.0109C74.7806 48.0109 60.7179 62.0735 60.7179 79.4207C60.7179 96.7679 74.7806 110.831 92.1278 110.831Z" fill="white"/>
<path d="M72.7863 68.5356C72.3538 68.9681 69.9733 73.3 69.7553 76.8742C69.5374 80.4484 70.0529 100.509 70.0529 100.509L70.1463 101.842C75.8 108.454 96.3524 118.294 114.863 101.807L115.901 89.4652L112.846 63.3387L102.224 60.7403L99.7362 56.7094L83.1559 60.5915L81.675 64.0861L72.7863 68.5356Z" fill="#455A64"/>
<path d="M98.5979 46.2048C99.328 43.4887 100.044 40.7553 100.297 37.9561C100.549 35.157 100.318 32.2644 99.2034 29.6833C99.0339 29.2923 97.6326 26.68 97.2105 26.7457C96.9095 26.7907 97.816 29.2473 97.6776 29.5137C96.3455 32.0983 96.1033 35.1328 96.4874 38.0149C96.8836 40.8139 97.5915 43.5597 98.5979 46.2013" fill="#263238"/>
<path d="M98.3211 35.4788C98.1896 28.4308 93.9754 22.6353 86.9343 22.964L86.2838 23.0332C83.1345 23.3652 80.2255 24.8705 78.1355 27.2496C76.0455 29.6288 74.9276 32.7074 75.0042 35.8733C75.1564 41.9802 75.3986 48.7272 75.7827 51.9727C76.575 58.6885 83.3947 59.0276 83.3947 59.0276L83.7095 63.446L86.5986 66.5842L99.9923 58.2802L98.3211 35.4788Z" fill="#FFBF9D"/>
<path d="M83.412 59.0794C83.412 59.0794 87.6782 58.8822 91.896 55.5675C91.896 55.5675 90.4843 61.6606 83.7096 61.7609L83.412 59.0794Z" fill="#FF9A6C"/>
<path d="M78.8759 41.3504C78.8997 41.603 79.0219 41.836 79.2161 41.9992C79.4104 42.1624 79.661 42.2425 79.9139 42.2223C80.0371 42.2192 80.1583 42.1916 80.2706 42.1409C80.3829 42.0903 80.484 42.0177 80.5678 41.9274C80.6516 41.8371 80.7165 41.731 80.7587 41.6153C80.8009 41.4996 80.8196 41.3766 80.8135 41.2535C80.7889 41.0013 80.6665 40.7688 80.4724 40.6058C80.2784 40.4428 80.0282 40.3623 79.7755 40.3816C79.6522 40.3842 79.5307 40.4116 79.4182 40.4621C79.3057 40.5125 79.2045 40.5851 79.1206 40.6755C79.0366 40.7659 78.9717 40.8722 78.9297 40.9881C78.8877 41.104 78.8694 41.2273 78.8759 41.3504Z" fill="#263238"/>
<path d="M76.7376 38.5133C76.8691 38.624 77.5404 38.0116 78.5749 37.9043C79.6094 37.797 80.4191 38.2503 80.5194 38.0946C80.5679 38.0358 80.4226 37.8213 80.0662 37.6137C79.5866 37.3522 79.0381 37.2447 78.4953 37.3057C77.9578 37.3611 77.4515 37.5852 77.0491 37.9458C76.755 38.2261 76.6719 38.4614 76.7376 38.5133Z" fill="#263238"/>
<path d="M88.0069 40.5754C88.0307 40.828 88.1529 41.061 88.3471 41.2242C88.5414 41.3874 88.792 41.4675 89.0449 41.4473C89.1681 41.4442 89.2893 41.4166 89.4016 41.3659C89.5139 41.3153 89.6149 41.2427 89.6988 41.1524C89.7826 41.0621 89.8475 40.956 89.8897 40.8403C89.9319 40.7245 89.9505 40.6015 89.9445 40.4785C89.9208 40.2257 89.7987 39.9923 89.6045 39.8285C89.4104 39.6648 89.1597 39.5839 88.9065 39.6031C88.7832 39.6067 88.6618 39.6348 88.5495 39.6858C88.4372 39.7368 88.3362 39.8097 88.2524 39.9003C88.1687 39.9908 88.1038 40.0972 88.0616 40.2131C88.0195 40.329 88.0009 40.4522 88.0069 40.5754Z" fill="#263238"/>
<path d="M86.9067 37.8627C87.0381 37.9769 87.7128 37.361 88.7439 37.2538C89.775 37.1465 90.5916 37.5998 90.6884 37.4475C90.7369 37.3853 90.595 37.1707 90.2386 36.9666C89.7583 36.7038 89.2083 36.5962 88.6643 36.6586C88.1261 36.7117 87.6192 36.9361 87.2181 37.2988C86.9274 37.5756 86.8444 37.8143 86.9067 37.8627Z" fill="#263238"/>
<path d="M84.0348 46.1979C84.0348 46.139 83.3809 46.0941 82.3256 46.0698C82.0592 46.0698 81.8031 46.0456 81.7408 45.8692C81.6886 45.5995 81.7213 45.3203 81.8343 45.0699L82.4017 42.9939C83.1837 40.0183 83.72 37.5825 83.6023 37.5513C83.4847 37.5202 82.7477 39.9076 81.9657 42.8866L81.4329 44.9799C81.3026 45.3121 81.2928 45.6793 81.4052 46.0179C81.4525 46.1081 81.5198 46.1861 81.602 46.2461C81.6841 46.3061 81.779 46.3464 81.8792 46.3639C82.0298 46.3824 82.182 46.3824 82.3325 46.3639C83.3878 46.319 84.0383 46.2567 84.0348 46.1979Z" fill="#263238"/>
<path d="M87.1523 46.5923C86.9827 46.5923 87.1004 47.7203 86.225 48.6199C85.3496 49.5195 84.149 49.5195 84.149 49.6786C84.149 49.7478 84.4362 49.8689 84.9448 49.8274C85.5999 49.7659 86.2124 49.4756 86.6748 49.0074C87.116 48.5544 87.3641 47.9478 87.3668 47.3155C87.3841 46.8414 87.2284 46.5785 87.1523 46.5923Z" fill="#263238"/>
<path d="M86.5225 33.6624C86.654 33.9322 87.6712 33.69 88.8995 33.7108C90.1278 33.7316 91.1451 33.9565 91.2765 33.6866C91.3354 33.5586 91.1382 33.3129 90.7126 33.0811C90.148 32.8074 89.5287 32.6652 88.9013 32.6652C88.2738 32.6652 87.6545 32.8074 87.0899 33.0811C86.654 33.2887 86.4637 33.5343 86.5225 33.6624Z" fill="#263238"/>
<path d="M76.8034 35.0324C77.0075 35.2469 77.6961 34.9286 78.5507 34.8248C79.4053 34.721 80.1492 34.8248 80.2807 34.5549C80.343 34.4269 80.2046 34.2089 79.8655 34.0151C79.4112 33.7936 78.9015 33.7118 78.4007 33.7802C77.9 33.8486 77.4307 34.064 77.0525 34.3992C76.7826 34.6725 76.71 34.9251 76.8034 35.0324Z" fill="#263238"/>
<path d="M98.2969 40.52C98.4077 40.4578 102.774 38.6655 103.113 43.288C103.452 47.9106 98.764 47.2809 98.7329 47.1494C98.7018 47.0179 98.2969 40.52 98.2969 40.52Z" fill="#FFBF9D"/>
<path d="M100.013 45.2983C100.034 45.2983 100.096 45.3467 100.238 45.3986C100.435 45.4669 100.651 45.4557 100.84 45.3675C101.314 45.153 101.667 44.3502 101.629 43.5164C101.613 43.1197 101.508 42.7318 101.321 42.3815C101.267 42.2408 101.179 42.1153 101.066 42.0158C100.953 41.9164 100.817 41.846 100.67 41.8106C100.577 41.7921 100.48 41.8072 100.396 41.8535C100.312 41.8997 100.248 41.974 100.214 42.0632C100.158 42.1981 100.196 42.2881 100.172 42.2985C100.148 42.3088 100.068 42.2258 100.089 42.0355C100.107 41.9185 100.165 41.8112 100.252 41.731C100.372 41.6263 100.529 41.5728 100.688 41.5822C100.88 41.6049 101.063 41.6771 101.219 41.7918C101.375 41.9064 101.498 42.0595 101.577 42.2362C101.804 42.621 101.933 43.056 101.951 43.5025C101.989 44.4333 101.577 45.3398 100.913 45.5785C100.792 45.6241 100.662 45.6418 100.533 45.6305C100.404 45.6191 100.28 45.5789 100.169 45.5128C100.03 45.409 99.9992 45.3052 100.013 45.2983Z" fill="#FF9A6C"/>
<path d="M77.4988 28.0259C76.7273 27.6592 78.8136 25.0953 80.6128 24.1438C83.3082 22.7079 87.4948 21.6595 90.1002 22.2201C93.2384 22.9121 95.8957 24.2615 97.6222 26.9672C99.3488 29.6729 100.141 32.9011 100.259 36.1085C100.293 37.0877 100.259 38.1118 99.7882 38.9699C99.2103 40.0321 98.0132 40.7553 98.1585 42.16C98.1931 42.4137 98.1767 42.6717 98.1101 42.9189C98.0436 43.166 97.9283 43.3974 97.771 43.5994C96.9821 44.5544 95.8957 43.7759 95.3663 42.9593C94.2349 41.2293 93.9823 39.0668 93.7609 36.9977C93.6017 35.5307 93.446 34.029 93.7609 32.5897C93.9339 31.8043 94.2522 31.0534 94.3836 30.2611C94.5151 29.4688 94.4356 28.5865 93.9096 27.9775C93.787 27.8498 93.6527 27.7339 93.5083 27.6315C92.8275 27.109 92.0197 26.7778 91.1681 26.6719C90.3166 26.5661 89.4522 26.6895 88.6643 27.0295C86.1212 28.1159 81.7719 29.7767 80.554 28.9671C78.8067 27.8045 78.35 26.9879 78.35 26.9879L77.4988 28.0259Z" fill="#263238"/>
<path d="M72.7863 68.5356C72.5199 68.9059 68.7381 70.1618 67.3022 72.5527C65.8663 74.9436 64.4477 85.6765 64.4477 85.6765L63.5343 92.728C65.3335 95.5721 67.7486 99.34 70.309 101.997L72.7863 68.5356Z" fill="#455A64"/>
<g opacity="0.3">
<path d="M101.203 78.8879C101.305 80.3351 101.58 81.7649 102.02 83.1472C102.515 84.507 103.383 85.7872 104.653 86.4896C105.182 86.7802 105.781 86.974 106.227 87.3892C106.674 87.8044 106.944 88.4756 107.376 88.9635C107.917 89.5 108.585 89.8915 109.317 90.1018C111.378 90.8576 113.565 91.21 115.76 91.1398C115.829 90.3994 115.832 87.6798 115.901 86.9359L101.203 78.8879Z" fill="black"/>
</g>
<path d="M112.846 63.3387C112.846 63.3387 117.614 64.7504 119.012 66.7814C120.41 68.8125 122.884 76.6874 123.392 78.1475C123.901 79.6077 123.455 82.9915 122.503 85.4135C121.552 87.8355 119.898 89.9427 117.043 90.2575C114.189 90.5724 109.677 88.9254 108.66 87.8355C107.642 86.7456 107.224 84.334 107.224 84.334C108.491 84.1118 109.741 83.7985 110.964 83.3964" fill="#455A64"/>
<path d="M110.964 83.4205L110.905 83.4447L110.725 83.5105C110.566 83.5658 110.327 83.6454 110.013 83.7388C109.103 84.0109 108.179 84.2326 107.245 84.4031L107.283 84.3512C107.399 84.9457 107.562 85.53 107.77 86.0985C107.884 86.4208 108.022 86.7343 108.182 87.0362C108.346 87.3589 108.563 87.6523 108.822 87.9047C109.115 88.156 109.438 88.3699 109.784 88.5413C110.15 88.7331 110.525 88.9052 110.909 89.0569C111.732 89.3861 112.579 89.6544 113.441 89.8596C114.373 90.0881 115.327 90.21 116.286 90.2229C116.535 90.2251 116.785 90.2135 117.033 90.1883C117.283 90.1596 117.532 90.1157 117.777 90.0568C118.279 89.9438 118.762 89.756 119.209 89.4997C120.14 88.9615 120.921 88.1991 121.482 87.2819C122.076 86.3294 122.53 85.2971 122.832 84.2163C123.078 83.3858 123.262 82.538 123.382 81.6801C123.511 80.8494 123.552 80.0075 123.507 79.1682C123.479 78.7643 123.397 78.3662 123.261 77.9848C123.129 77.5973 123.001 77.2133 122.877 76.8327L122.133 74.6079C121.642 73.1616 121.157 71.7949 120.673 70.5251C120.248 69.3435 119.735 68.1951 119.14 67.0893C118.865 66.6193 118.498 66.2098 118.06 65.8852C117.679 65.582 117.274 65.3101 116.849 65.0721C116.167 64.6827 115.461 64.3361 114.735 64.0341C114.14 63.7885 113.67 63.6155 113.351 63.5013L112.988 63.3733C112.945 63.3617 112.903 63.3455 112.864 63.3248C112.907 63.3305 112.95 63.3409 112.992 63.356L113.362 63.4667C113.687 63.5705 114.165 63.7331 114.767 63.9684C115.498 64.2572 116.211 64.5912 116.901 64.9683C117.334 65.2063 117.747 65.4782 118.137 65.7814C118.587 66.1118 118.966 66.5295 119.251 67.0097C119.859 68.1215 120.382 69.2782 120.815 70.4697C121.309 71.7361 121.797 73.1062 122.292 74.5525C122.538 75.2757 122.787 76.0196 123.043 76.7773C123.171 77.1544 123.299 77.5385 123.427 77.926C123.569 78.3205 123.657 78.7326 123.686 79.1509C123.736 80.0028 123.695 80.8575 123.565 81.7009C123.443 82.5681 123.257 83.425 123.008 84.2647C122.699 85.364 122.233 86.4128 121.624 87.3787C121.047 88.3205 120.243 89.1021 119.285 89.652C118.824 89.9144 118.326 90.1068 117.808 90.2229C117.556 90.2829 117.301 90.3279 117.043 90.3578C116.787 90.3578 116.531 90.4028 116.282 90.3924C115.31 90.3747 114.343 90.2471 113.4 90.0118C112.529 89.8031 111.676 89.5289 110.846 89.1918C110.46 89.0355 110.082 88.8588 109.715 88.6624C109.359 88.4841 109.027 88.2621 108.725 88.0015C108.458 87.7365 108.236 87.4291 108.068 87.0916C107.907 86.785 107.77 86.467 107.656 86.1401C107.453 85.5613 107.295 84.9679 107.182 84.3651V84.3201H107.227C108.445 84.109 109.379 83.8703 110.013 83.6973L110.732 83.4932L110.916 83.4413C110.943 83.4205 110.964 83.4171 110.964 83.4205Z" fill="#263238"/>
<path d="M119.714 80.8706C119.68 80.8706 119.569 80.2824 119.171 79.4035C118.648 78.2611 117.919 77.2252 117.019 76.3484C116.52 75.8738 115.956 75.473 115.344 75.1581L114.926 74.9713C114.787 74.909 114.642 74.8813 114.51 74.8363C114.262 74.758 114.005 74.7046 113.746 74.6772L113.573 74.6529H113.102C112.94 74.6505 112.778 74.6644 112.618 74.6945C112.479 74.7224 112.338 74.7375 112.196 74.7394C112.327 74.6852 112.464 74.6468 112.604 74.6253C112.765 74.5796 112.931 74.5552 113.099 74.5526H113.41H113.58L113.76 74.5734C114.028 74.592 114.293 74.6384 114.552 74.7118C114.697 74.7481 114.84 74.792 114.981 74.8433L115.417 75.0301C116.052 75.3436 116.635 75.7519 117.147 76.2411C118.066 77.1297 118.795 78.1963 119.289 79.3759C119.377 79.5765 119.453 79.7821 119.517 79.9917C119.57 80.1493 119.614 80.3099 119.649 80.4727C119.683 80.6029 119.705 80.7361 119.714 80.8706Z" fill="#263238"/>
<path d="M122.316 76.5905C122.12 76.0869 121.879 75.6017 121.597 75.1407C120.88 74.0463 119.806 73.2334 118.559 72.8398C117.095 72.3935 115.673 72.5319 114.68 72.6253L113.493 72.7672C113.349 72.7931 113.203 72.8059 113.057 72.8052C113.194 72.7518 113.337 72.7158 113.483 72.698C113.76 72.6426 114.175 72.5699 114.666 72.5007C115.978 72.2716 117.323 72.3282 118.611 72.6668C119.316 72.8787 119.97 73.2319 120.534 73.7048C120.996 74.0974 121.391 74.5625 121.704 75.0819C121.918 75.4228 122.089 75.7889 122.212 76.1718C122.263 76.3069 122.298 76.4474 122.316 76.5905Z" fill="#263238"/>
<path d="M118.721 71.4732C116.856 71.0334 114.906 71.11 113.081 71.6946C113.321 71.5385 113.584 71.4217 113.86 71.3486C114.515 71.1473 115.193 71.0311 115.877 71.0026C116.562 70.9784 117.246 71.0411 117.915 71.1895C118.196 71.2433 118.468 71.3389 118.721 71.4732Z" fill="#263238"/>
<path d="M111.005 64.5289C111.033 64.5289 110.964 65.0168 110.909 65.7988C110.763 67.8017 110.936 69.8149 111.421 71.7638L111.296 71.8053C111.154 71.4074 111.044 71.0822 110.971 70.8538C110.926 70.7425 110.893 70.6264 110.874 70.5078C110.944 70.6153 111 70.7316 111.04 70.8538C111.134 71.0718 111.262 71.3901 111.421 71.7846L111.296 71.8226C111.022 70.8653 110.84 69.8839 110.753 68.892C110.662 67.8659 110.672 66.8334 110.781 65.8091C110.826 65.4181 110.877 65.1171 110.919 64.8853C110.931 64.763 110.96 64.643 111.005 64.5289Z" fill="#263238"/>
<path d="M104.262 55.6541C104.262 55.6541 101.788 55.6541 101.477 58.6262C101.238 60.9098 101.477 63.1242 101.477 64.1276C101.477 65.131 101.037 68.6844 101.037 68.6844C101.037 68.6844 99.3487 70.1826 99.3764 71.9818C99.4041 73.781 100.691 74.3415 100.691 74.3415C100.475 74.899 100.428 75.5076 100.555 76.0919C100.681 76.6762 100.977 77.2105 101.404 77.6285C101.404 77.6285 100.688 79.2859 101.276 80.3965C101.615 80.949 102.144 81.3587 102.764 81.5487C102.662 81.7673 102.609 82.0052 102.607 82.2463C102.605 82.4873 102.655 82.7259 102.754 82.946C102.852 83.1661 102.997 83.3625 103.177 83.5219C103.358 83.6814 103.571 83.8002 103.802 83.8703C104.633 84.1278 105.504 84.2345 106.372 84.1852L108.22 84.1506L109.846 85.0502C109.846 85.0502 112.635 83.8358 112.704 82.1923L112.777 80.5487C112.777 80.5487 111.978 77.8499 111.912 76.9849C111.846 76.1199 112.556 74.0543 112.126 73.1271C111.697 72.1998 110.199 71.6531 110.341 70.3591C110.483 69.065 110.199 68.3453 109.556 67.6291C108.912 66.9129 106.071 65.4874 106.071 65.4874C106.071 65.4874 105.341 63.4114 105.341 61.9893C105.341 60.5673 106.763 56.1973 104.262 55.6541Z" fill="#FFBF9D"/>
<path d="M105.93 66.0271C105.717 66.2011 105.485 66.3498 105.238 66.47C104.802 66.726 104.2 67.0651 103.508 67.4319C102.816 67.7986 102.214 68.1239 101.778 68.3488C101.542 68.4912 101.291 68.6072 101.03 68.6948C101.242 68.5187 101.475 68.3689 101.722 68.2484C102.158 67.9924 102.76 67.6533 103.452 67.2865C104.144 66.9198 104.746 66.5945 105.182 66.3696C105.417 66.2272 105.668 66.1122 105.93 66.0271Z" fill="#FF9A6C"/>
<path d="M107.556 71.6219C107.556 71.6219 107.487 71.7015 107.338 71.8157C107.131 71.9779 106.917 72.1291 106.694 72.269C105.964 72.7372 105.187 73.1291 104.376 73.4384C103.565 73.7529 102.725 73.9848 101.868 74.1304C101.522 74.1823 101.269 74.2135 101.086 74.2239C100.99 74.2419 100.891 74.2419 100.795 74.2239C100.795 74.1962 101.196 74.1408 101.833 74.0059C102.673 73.8295 103.497 73.5889 104.3 73.2862C105.101 72.9764 105.876 72.6038 106.618 72.1721C106.921 71.9729 107.234 71.7893 107.556 71.6219Z" fill="#FF9A6C"/>
<path d="M109.68 69.8401C109.725 69.8574 109.632 70.1861 109.334 70.4387C109.037 70.6913 108.718 70.7674 108.708 70.7224C108.698 70.6774 108.954 70.546 109.213 70.3038C109.473 70.0616 109.632 69.8194 109.68 69.8401Z" fill="#FF9A6C"/>
<path d="M108.66 76.5178C108.327 76.6792 107.979 76.8068 107.622 76.8984C106.77 77.1517 105.903 77.3493 105.027 77.4901C104.15 77.633 103.264 77.7162 102.376 77.7392C102.008 77.7676 101.638 77.756 101.272 77.7046C101.636 77.6529 102.002 77.6228 102.369 77.6146C103.061 77.5662 103.978 77.4762 104.999 77.3136C106.02 77.151 106.93 76.9399 107.587 76.7739C107.939 76.6677 108.297 76.5822 108.66 76.5178Z" fill="#FF9A6C"/>
<path d="M110.922 76.1199C110.975 75.9397 111.039 75.7629 111.113 75.5905C111.25 75.1679 111.296 74.7209 111.248 74.2792C111.193 73.8378 111.041 73.4138 110.805 73.037C110.693 72.8866 110.59 72.7295 110.497 72.5665C110.497 72.5492 110.694 72.6772 110.912 72.9644C111.192 73.3439 111.368 73.7897 111.424 74.2579C111.48 74.7261 111.413 75.2008 111.23 75.6355C111.089 75.9504 110.94 76.1199 110.922 76.1199Z" fill="#FF9A6C"/>
<path d="M108.798 81.5279C108.515 81.6324 108.219 81.7021 107.919 81.7355C107.2 81.8489 106.474 81.9056 105.746 81.9051C105.017 81.9038 104.289 81.8424 103.57 81.7217C103.269 81.6878 102.974 81.6169 102.691 81.5106C102.992 81.5159 103.291 81.5448 103.587 81.5971C104.304 81.6781 105.025 81.7209 105.746 81.7251C106.466 81.7237 107.186 81.6844 107.902 81.6075C108.198 81.5571 108.498 81.5305 108.798 81.5279Z" fill="#FF9A6C"/>
<path d="M104.397 62.0238C104.397 62.0446 104.283 62.138 104.051 62.2211C103.746 62.323 103.422 62.3561 103.102 62.3178C102.783 62.2795 102.476 62.1708 102.203 61.9996C101.996 61.8647 101.899 61.747 101.913 61.7297C102.295 61.9219 102.703 62.0593 103.124 62.138C103.551 62.1608 103.98 62.1223 104.397 62.0238Z" fill="#FF9A6C"/>
<path d="M111.435 76.3171C111.466 76.4024 111.48 76.4929 111.476 76.5836C111.476 76.8295 111.447 77.0745 111.39 77.3136C111.324 77.6146 111.21 77.9641 111.099 78.3516C110.965 78.7571 110.921 79.1869 110.971 79.6111C111.03 80.0505 111.358 80.4034 111.41 80.8497C111.446 81.227 111.349 81.6049 111.137 81.9189C111.008 82.1271 110.858 82.3218 110.691 82.5002C110.573 82.6282 110.5 82.6905 110.49 82.6835C110.48 82.6766 110.729 82.3791 111.026 81.8566C111.205 81.562 111.282 81.2166 111.244 80.874C111.203 80.4968 110.871 80.1439 110.791 79.6422C110.738 79.1915 110.789 78.7347 110.94 78.3066C111.061 77.9157 111.185 77.5731 111.265 77.2686C111.345 76.9561 111.401 76.638 111.435 76.3171Z" fill="#FF9A6C"/>
<path d="M112.365 78.4901C112.422 78.5915 112.461 78.7013 112.483 78.8153C112.545 79.0264 112.628 79.3378 112.704 79.7253C112.798 80.1812 112.854 80.6442 112.87 81.1093C112.9 81.691 112.794 82.2716 112.559 82.8047C112.287 83.3152 111.926 83.7733 111.493 84.1576C111.149 84.4711 110.783 84.7591 110.397 85.0191C110.068 85.244 109.791 85.4101 109.597 85.5174C109.502 85.5818 109.398 85.633 109.289 85.6696C109.272 85.6454 109.687 85.3824 110.327 84.9153C110.699 84.6452 111.052 84.3517 111.386 84.0365C111.797 83.6605 112.141 83.217 112.403 82.7251C112.625 82.2162 112.73 81.6642 112.711 81.1093C112.703 80.6513 112.662 80.1945 112.587 79.7426C112.452 78.9711 112.338 78.497 112.365 78.4901Z" fill="#263238"/>
<path d="M86.2596 66.9717C86.1156 66.887 85.9811 66.7873 85.8582 66.6741L84.8202 65.8057L84.1005 65.2002C83.9776 65.0851 83.8403 64.9862 83.6922 64.9061C83.6205 64.8693 83.541 64.8502 83.4604 64.8502C83.3798 64.8502 83.3003 64.8693 83.2286 64.9061C82.931 65.0618 82.7303 65.4424 82.4778 65.7607C82.2252 66.079 81.9761 66.4527 81.7131 66.7987C81.2979 67.3592 80.8931 67.8955 80.5229 68.3938L80.298 68.6913L80.3706 68.3246C80.569 67.2956 80.8573 66.286 81.2322 65.3074C81.3706 64.9614 81.4951 64.6639 81.5782 64.4736C81.6171 64.3714 81.6695 64.2748 81.7339 64.1864C81.7101 64.292 81.6765 64.3951 81.6335 64.4943C81.5609 64.6916 81.4536 64.9787 81.3291 65.3455C80.9907 66.3291 80.7259 67.3364 80.5367 68.3592L80.381 68.29L81.5678 66.6914L82.3324 65.6534L82.6992 65.1656C82.8156 64.9923 82.9723 64.8498 83.1559 64.7504C83.2521 64.7082 83.3566 64.6885 83.4615 64.6927C83.5664 64.6969 83.669 64.7249 83.7614 64.7746C83.9186 64.8631 84.064 64.9713 84.1939 65.0964L84.8859 65.7192L85.8963 66.6292C86.0262 66.7336 86.1477 66.8481 86.2596 66.9717Z" fill="#263238"/>
<path d="M100.868 64.0479C100.828 64.0934 100.782 64.1341 100.733 64.169L100.324 64.4874L98.7986 65.6326L93.7089 69.3798L93.6328 69.4352L93.5809 69.3556C93.5393 69.2933 93.4978 69.2241 93.4528 69.1584L90.8994 65.124L90.9928 65.1551C90.0088 65.546 89.0597 66.0194 88.1556 66.5703C87.8303 66.7675 87.5778 66.9163 87.4048 67.0443C87.3207 67.1077 87.2302 67.1622 87.1349 67.2069C87.2083 67.1306 87.2894 67.0622 87.3771 67.0028C87.5432 66.8817 87.7888 66.7052 88.1106 66.4942C89.0032 65.9131 89.9485 65.4173 90.934 65.0133L90.9928 64.9891L91.0274 65.041C91.7782 66.207 92.6605 67.5875 93.6051 69.0615C93.6501 69.1272 93.6916 69.1964 93.7331 69.2587L93.6016 69.2345L98.7259 65.5323L100.283 64.4285L100.712 64.1379C100.812 64.0722 100.864 64.041 100.868 64.0479Z" fill="#263238"/>
<path d="M69.8142 77.8085C69.83 77.8882 69.8369 77.9694 69.8349 78.0507C69.8349 78.2306 69.8349 78.4624 69.8522 78.7427C69.8522 79.3689 69.8834 80.2443 69.9007 81.3169C69.9422 83.4898 70.0287 86.5069 70.1429 89.8112C70.2571 93.1155 70.3228 96.1326 70.3297 98.309C70.3297 99.3989 70.3297 100.278 70.3297 100.887C70.3297 101.174 70.3297 101.409 70.3124 101.579C70.3162 101.661 70.3104 101.743 70.2951 101.824C70.2901 101.743 70.2901 101.66 70.2951 101.579C70.2951 101.402 70.2951 101.167 70.2744 100.887C70.2744 100.257 70.2467 99.3816 70.2259 98.3124C70.1879 96.1361 70.0979 93.1224 69.9872 89.8147C69.8765 86.5069 69.8073 83.4933 69.8003 81.3169C69.8003 80.2305 69.8003 79.3482 69.8003 78.7427C69.8003 78.452 69.8003 78.2202 69.8003 78.0507C69.7998 77.9697 69.8044 77.8888 69.8142 77.8085Z" fill="#263238"/>
<path d="M86.3738 109.059C86.3622 109.028 86.3553 108.995 86.353 108.962C86.353 108.886 86.353 108.789 86.3219 108.668C86.2942 108.395 86.2561 108.018 86.2112 107.537C86.1143 106.554 86.0036 105.115 85.8928 103.367C85.7821 101.62 85.6887 99.5026 85.6299 97.1706C85.5711 94.8386 85.5641 92.2678 85.6299 89.5586C85.6956 86.8494 85.8167 84.2994 85.9759 81.9708C86.135 79.6422 86.3219 77.5455 86.5087 75.7913C86.6956 74.037 86.8547 72.615 87.007 71.6393C87.0762 71.1583 87.1281 70.7846 87.1661 70.5148C87.1869 70.3937 87.2007 70.2968 87.2146 70.2207C87.2163 70.1875 87.2233 70.1548 87.2353 70.1238C87.2407 70.157 87.2407 70.1909 87.2353 70.2241C87.2353 70.3002 87.218 70.3971 87.2076 70.5182C87.1765 70.7881 87.135 71.1652 87.0796 71.6462C86.962 72.6288 86.8097 74.0474 86.6402 75.7982C86.4707 77.5489 86.2942 79.6492 86.1454 81.9777C85.9966 84.3063 85.8825 86.8702 85.8202 89.5621C85.7579 92.2539 85.7752 94.8178 85.8202 97.1498C85.8652 99.4819 85.9517 101.579 86.0485 103.34C86.1454 105.101 86.2319 106.53 86.308 107.513C86.3392 107.993 86.3669 108.374 86.3842 108.647C86.3842 108.769 86.3842 108.865 86.4015 108.942C86.3955 108.981 86.3862 109.021 86.3738 109.059Z" fill="#263238"/>
<path d="M76.0629 52.426L75.6962 52.6682L74.6167 53.3602C74.1392 53.6681 73.5787 54.1075 72.9213 54.5919C72.5753 54.841 72.2569 55.1421 71.8833 55.4465L71.3193 55.9206C71.1255 56.0866 70.9421 56.2666 70.7449 56.4569C68.8313 58.242 67.1503 60.2613 65.7418 62.4669L65.1259 63.4564C64.9079 63.7851 64.7418 64.1484 64.5411 64.4944C64.3405 64.8404 64.1432 65.2141 63.9633 65.5947C63.7834 65.9753 63.6173 66.3663 63.4305 66.7607C63.344 66.958 63.2471 67.1517 63.1641 67.3559C63.081 67.56 63.0084 67.7676 62.9288 67.9787C62.7731 68.3939 62.607 68.8125 62.4548 69.245C62.1987 70.1204 61.8735 71.0062 61.6797 71.9507C60.6933 76.0377 60.5287 80.2799 61.1953 84.431C62.0628 89.7765 64.3012 94.8058 67.692 99.0282C71.0829 103.251 75.5104 106.522 80.5426 108.523C85.5748 110.524 91.0398 111.186 96.4043 110.445C101.769 109.704 106.85 107.585 111.151 104.295C112.237 103.46 113.27 102.559 114.244 101.596L114.936 100.863C115.171 100.62 115.4 100.375 115.628 100.115L116.285 99.3574C116.493 99.0944 116.697 98.8315 116.905 98.572C120.035 94.5408 122.123 89.8003 122.984 84.77C123.187 83.6022 123.324 82.424 123.396 81.2408C123.43 80.6561 123.43 80.0783 123.451 79.5108C123.472 78.9434 123.41 78.3656 123.389 77.8016C123.389 77.5213 123.365 77.2376 123.354 76.9574C123.344 76.6771 123.292 76.4038 123.264 76.127C123.195 75.5768 123.129 75.0301 123.064 74.4904C122.998 73.9506 122.856 73.4247 122.752 72.8988C122.665 72.3773 122.55 71.8609 122.406 71.3522L121.977 69.854C121.91 69.6082 121.828 69.3667 121.731 69.1308C121.642 68.8921 121.552 68.6534 121.465 68.4181C121.282 67.951 121.119 67.4735 120.922 67.0341C120.725 66.5947 120.51 66.1483 120.306 65.7158C118.801 62.5876 116.783 59.7339 114.334 57.2734C112.479 55.4301 110.409 53.8165 108.168 52.4675L106.847 51.7097C106.647 51.5928 106.441 51.4865 106.231 51.3914L105.649 51.1146L104.611 50.6233C104.3 50.4641 103.992 50.3742 103.733 50.2773L102.528 49.8137L102.12 49.6476L102.535 49.7964L103.743 50.2462C104.006 50.35 104.314 50.4399 104.629 50.5922L105.667 51.0766L106.251 51.3534C106.463 51.446 106.67 51.55 106.871 51.6648L108.196 52.419C110.451 53.7595 112.534 55.3699 114.4 57.2146C116.863 59.6733 118.896 62.5283 120.413 65.6605C120.617 66.0999 120.825 66.5393 121.036 66.9891C121.247 67.4389 121.382 67.9129 121.583 68.3731L121.853 69.0859C121.949 69.3229 122.031 69.5656 122.098 69.8125C122.244 70.3107 122.389 70.8089 122.534 71.3176C122.684 71.8282 122.805 72.3469 122.898 72.8711C123.001 73.397 123.126 73.9091 123.216 74.4662C123.306 75.0232 123.347 75.5595 123.417 76.1131C123.448 76.3899 123.493 76.6667 123.51 76.947C123.527 77.2272 123.534 77.511 123.545 77.7947C123.565 78.3621 123.596 78.933 123.61 79.5247C123.624 80.1163 123.593 80.6838 123.555 81.2547C123.201 87.5883 120.929 93.6645 117.04 98.6758L116.41 99.4647L115.746 100.229C115.531 100.489 115.299 100.738 115.054 100.98L114.362 101.721C113.381 102.689 112.341 103.595 111.248 104.433C106.926 107.737 101.821 109.865 96.4319 110.609C91.0428 111.353 85.5528 110.688 80.4972 108.678C75.4415 106.669 70.9928 103.384 67.5846 99.1438C64.1764 94.9034 61.925 89.8523 61.05 84.4829C60.6989 82.3185 60.5829 80.1224 60.704 77.9331C60.7913 75.9137 61.0822 73.9082 61.5725 71.9473C61.7662 70.9992 62.0949 70.1135 62.351 69.2312C62.5067 68.8021 62.6762 68.38 62.8354 67.9614C62.9149 67.7538 62.9945 67.5462 63.0706 67.3386C63.1468 67.131 63.254 66.9407 63.3405 66.74C63.5239 66.3455 63.6865 65.958 63.8768 65.574C64.0671 65.1899 64.2713 64.8335 64.4616 64.4702C64.6519 64.1069 64.8318 63.7471 65.0498 63.4149L65.6726 62.4254C67.0885 60.2164 68.7828 58.1988 70.7138 56.4223C70.911 56.2389 71.0944 56.052 71.2881 55.886L71.8556 55.4119C72.2293 55.1109 72.5476 54.8134 72.8936 54.5642C73.5683 54.0798 74.1219 53.6473 74.6028 53.3429L75.6927 52.6509C75.928 52.4986 76.0629 52.426 76.0629 52.426Z" fill="#263238"/>
</svg>
