<svg width="60" height="60" viewBox="0 0 60 60" fill="none" xmlns="http://www.w3.org/2000/svg">
<g clip-path="url(#clip0_4051_4303)">
<path d="M30 60C46.5685 60 60 46.5685 60 30C60 13.4315 46.5685 0 30 0C13.4315 0 0 13.4315 0 30C0 46.5685 13.4315 60 30 60Z" fill="url(#paint0_linear_4051_4303)"/>
<path d="M42.8729 28.5368L23.5756 18.011C22.4651 17.4053 21.1108 18.2091 21.1108 19.4742V40.5258C21.1108 41.7909 22.4649 42.5947 23.5756 41.989L42.8729 31.4632C44.0311 30.8314 44.0311 29.1686 42.8729 28.5368Z" fill="white"/>
<path d="M37.7802 7.03932C37.6402 7.03932 37.4981 7.01764 37.358 6.97311C36.6712 6.75397 35.9637 6.56295 35.2552 6.40557C34.5065 6.23905 34.0345 5.49737 34.2016 4.74807C34.3665 3.99936 35.1032 3.52358 35.8585 3.69397C36.6473 3.86916 37.4362 4.08245 38.2023 4.32655C38.9325 4.55987 39.3362 5.34104 39.1028 6.07194C38.9151 6.66233 38.3682 7.03932 37.7802 7.03932Z" fill="white"/>
<path d="M52.0803 18.5123C51.6028 18.5123 51.1384 18.266 50.8801 17.8244C48.7664 14.2085 45.7358 11.186 42.1138 9.08361C41.4509 8.69842 41.2252 7.84822 41.6104 7.18529C41.9966 6.52177 42.8431 6.29443 43.5093 6.68127C47.5446 9.02443 50.9224 12.3931 53.2781 16.4225C53.6656 17.0849 53.442 17.9356 52.7801 18.3224C52.5598 18.4516 52.319 18.5123 52.0803 18.5123Z" fill="white"/>
<path d="M35.2513 52.1184C20.7817 50.9321 9.06787 39.2183 7.88159 24.7487C7.64745 21.8926 7.81455 19.1124 8.33217 16.4576C8.81909 13.9601 5.38467 12.6645 4.09795 14.8597C1.12737 19.9278 -0.397828 25.9454 0.0895551 32.3482C1.20131 46.9555 13.0445 58.7986 27.6517 59.9103C34.0546 60.3977 40.0721 58.8725 45.1402 55.9019C47.3355 54.6152 46.0399 51.1808 43.5423 51.6677C40.8876 52.1854 38.1074 52.3526 35.2513 52.1184Z" fill="url(#paint1_linear_4051_4303)"/>
<path d="M25.5094 32.4373V19.0656L23.576 18.011C22.4654 17.4053 21.1113 18.2091 21.1113 19.4742V40.5258C21.1113 41.7908 22.4654 42.5947 23.576 41.989L42.8733 31.4631C43.4544 31.1461 43.7433 30.5694 43.7411 29.9937L28.3652 34.5673C26.9405 34.991 25.5094 33.9237 25.5094 32.4373Z" fill="#E4EAF8"/>
</g>
<defs>
<linearGradient id="paint0_linear_4051_4303" x1="0" y1="30" x2="60" y2="30" gradientUnits="userSpaceOnUse">
<stop stop-color="#23E72D"/>
<stop offset="1" stop-color="#C8F41F"/>
</linearGradient>
<linearGradient id="paint1_linear_4051_4303" x1="0" y1="36.8695" x2="46.2608" y2="36.8695" gradientUnits="userSpaceOnUse">
<stop stop-color="#23E72D"/>
<stop offset="1" stop-color="#C8F41F"/>
</linearGradient>
<clipPath id="clip0_4051_4303">
<rect width="60" height="60" fill="white"/>
</clipPath>
</defs>
</svg>
