<svg width="26" height="26" viewBox="0 0 26 26" fill="none" xmlns="http://www.w3.org/2000/svg">
<path d="M2.70837 12.9997C2.70837 8.14814 2.70837 5.72237 4.21555 4.21519C5.72273 2.70801 8.1485 2.70801 13 2.70801C17.8516 2.70801 20.2773 2.70801 21.7845 4.21519C23.2917 5.72237 23.2917 8.14814 23.2917 12.9997C23.2917 17.8512 23.2917 20.277 21.7845 21.7842C20.2773 23.2913 17.8516 23.2913 13 23.2913C8.1485 23.2913 5.72273 23.2913 4.21555 21.7842C2.70837 20.277 2.70837 17.8512 2.70837 12.9997Z" stroke="#E6E6E6" stroke-width="1.5" stroke-linejoin="round"/>
<path d="M17.875 13C17.875 15.6924 15.6924 17.875 13 17.875C10.3076 17.875 8.125 15.6924 8.125 13C8.125 10.3076 10.3076 8.125 13 8.125C15.6924 8.125 17.875 10.3076 17.875 13Z" stroke="#E6E6E6" stroke-width="1.5"/>
<path d="M18.9668 7.0415L18.9571 7.0415" stroke="#E6E6E6" stroke-width="2" stroke-linecap="round" stroke-linejoin="round"/>
</svg>
