<svg width="34" height="30" viewBox="0 0 34 30" fill="none" xmlns="http://www.w3.org/2000/svg">
<path d="M18.582 29.6533H15.3257C7.23296 29.6533 0.672424 23.0928 0.672424 15C0.672424 6.90722 7.23289 0.34668 15.3257 0.34668H18.582C26.6748 0.34668 33.2353 6.90715 33.2353 15C33.2353 23.0928 26.6748 29.6533 18.582 29.6533Z" fill="#4182C3"/>
<path d="M15.3257 29.6533C23.4185 29.6533 29.979 23.0928 29.979 15C29.979 6.90718 23.4185 0.34668 15.3257 0.34668C7.23293 0.34668 0.672424 6.90718 0.672424 15C0.672424 23.0928 7.23293 29.6533 15.3257 29.6533Z" fill="#64AFE1"/>
<path d="M15.3257 26.397C21.6201 26.397 26.7227 21.2944 26.7227 15C26.7227 8.70564 21.6201 3.60303 15.3257 3.60303C9.03132 3.60303 3.92871 8.70564 3.92871 15C3.92871 21.2944 9.03132 26.397 15.3257 26.397Z" fill="#4182C3"/>
<path d="M20.6505 19.5669C20.5485 19.4254 20.3846 19.3416 20.2102 19.3416H13.8971L17.4711 8.10915C17.5236 7.94416 17.4942 7.76405 17.392 7.62423C17.2898 7.48448 17.1271 7.40186 16.9539 7.40186H15.3258C15.0898 7.40186 14.8808 7.55443 14.8089 7.77918L10.4671 21.347C10.4144 21.5121 10.4435 21.6924 10.5457 21.8324C10.6479 21.9724 10.8108 22.0551 10.9841 22.0551H19.6675C19.9011 22.0551 20.1085 21.9056 20.1824 21.6841L20.7251 20.0559C20.7802 19.8904 20.7525 19.7085 20.6505 19.5669Z" fill="#D7E6F0"/>
<path d="M10.9839 16.6281C10.7567 16.6281 10.5449 16.4843 10.4692 16.2569C10.3744 15.9726 10.528 15.6652 10.8124 15.5705L17.325 13.3996C17.6097 13.3048 17.9167 13.4585 18.0115 13.7429C18.1062 14.0272 17.9526 14.3346 17.6683 14.4293L11.1557 16.6002C11.0987 16.6191 11.0408 16.6281 10.9839 16.6281Z" fill="white"/>
<path d="M10.9841 22.0554C10.9293 22.0554 10.8736 22.0471 10.8186 22.0295C10.5331 21.9381 10.3757 21.6326 10.467 21.3472L14.8088 7.77929C14.9001 7.49382 15.2057 7.33657 15.4911 7.42775C15.7766 7.51913 15.9339 7.82461 15.8426 8.11008L11.5009 21.6779C11.4271 21.9084 11.2138 22.0554 10.9841 22.0554Z" fill="white"/>
</svg>
