<svg width="225" height="131" viewBox="0 0 225 131" fill="none" xmlns="http://www.w3.org/2000/svg">
<path d="M55.9403 97.133L40.1115 81.2308L48.0704 66.6131C56.0294 56.4205 72.8807 57.0759 72.8807 57.0759C81.1941 56.5108 89.5458 57.0237 97.7276 58.6017C111.113 61.2232 110.033 70.063 110.033 70.063L111.826 102.869L113.75 129.582L64.3869 130.579L55.9403 97.154" fill="#116EFC"/>
<path d="M82.5332 129.016L38.3183 129.541C35.8826 129.569 33.4796 128.978 31.3351 127.822C29.1907 126.667 27.375 124.986 26.0588 122.936C24.7425 120.886 23.9688 118.536 23.8103 116.105C23.6519 113.674 24.1139 111.243 25.1529 109.04L44.0595 73.9796L61.283 85.6193L49.5332 109.984L85.3225 110.623L82.5332 129.016Z" fill="#116EFC"/>
<path d="M108.471 64.7151L143.951 119.495L123.251 120.847C123.251 120.847 110.888 101.369 111.166 101.768C111.658 102.502 108.471 64.7151 108.471 64.7151Z" fill="#116EFC"/>
<path d="M60.3917 88.7704C60.393 88.6742 60.4089 88.5787 60.4389 88.4872C60.4913 88.2775 60.549 88.0154 60.6276 87.6903C60.7902 87.0035 61.0313 86.0073 61.2778 84.7699C61.5242 83.5325 61.8021 82.0435 61.9751 80.3867C62.1881 78.5911 62.1881 76.7766 61.9751 74.9811C61.6906 73.2006 61.0696 71.4906 60.1453 69.9425C59.4024 68.6679 58.5234 67.4778 57.5237 66.3929C56.8499 65.6513 56.1321 64.951 55.3741 64.2957C55.0851 64.0696 54.8086 63.8281 54.5457 63.5721C54.631 63.6145 54.7118 63.6655 54.7868 63.7242C54.9336 63.8343 55.1696 63.9863 55.4422 64.2118C56.2307 64.8343 56.9736 65.5124 57.6653 66.2409C58.6987 67.3177 59.6064 68.5085 60.3707 69.7904C61.3275 71.3625 61.9687 73.106 62.2582 74.9234C62.4658 76.7412 62.4517 78.5775 62.2163 80.3919C62.0392 81.8683 61.7872 83.3348 61.4613 84.7856C61.1886 86.0282 60.937 87.0192 60.722 87.7008C60.6276 88.0416 60.5437 88.3037 60.4861 88.482C60.464 88.5809 60.4324 88.6775 60.3917 88.7704Z" fill="#263238"/>
<path d="M58.9656 90.6578C58.8899 90.9309 58.788 91.196 58.6615 91.4495C58.4517 91.9738 58.1371 92.6764 57.7334 93.5468C56.9312 95.3242 55.7935 97.7674 54.4827 100.441C53.1719 103.115 51.9346 105.511 51.017 107.257C50.5557 108.117 50.1782 108.83 49.9108 109.286C49.7831 109.54 49.6358 109.784 49.4703 110.015C49.5645 109.748 49.6802 109.488 49.8164 109.239C50.0838 108.715 50.4298 108.012 50.865 107.168L54.2573 100.352C55.5418 97.694 56.711 95.2927 57.5814 93.4943C57.9903 92.6502 58.3259 91.9476 58.588 91.3971C58.693 91.1405 58.8193 90.8933 58.9656 90.6578Z" fill="#263238"/>
<path d="M82.5332 129.016C82.5332 129.016 82.5332 128.985 82.5332 128.927C82.5332 128.869 82.5332 128.765 82.5332 128.654C82.5594 128.403 82.5961 128.051 82.638 127.606C82.7429 126.673 82.8897 125.346 83.0732 123.673C83.4612 120.281 84.0169 115.51 84.6461 109.884L84.772 110.021H71.7114L48.8988 109.984L41.978 109.942L40.0957 109.916H39.6028H39.4351C39.4908 109.909 39.5471 109.909 39.6028 109.916H40.0957L41.978 109.889L48.8988 109.847L71.7481 109.811H84.8087H84.9502V109.947C84.2581 115.568 83.6762 120.339 83.2567 123.726C83.047 125.393 82.874 126.72 82.7324 127.653C82.6765 128.093 82.6293 128.443 82.5908 128.702L82.5489 128.969C82.5436 128.985 82.5384 129.016 82.5332 129.016Z" fill="#263238"/>
<path d="M49.8426 110.372C49.5259 110.022 49.2317 109.653 48.9618 109.266C47.5487 107.492 45.7989 106.014 43.8131 104.919C43.3889 104.714 42.9759 104.486 42.5757 104.237C43.0411 104.346 43.488 104.523 43.9022 104.762C45.9705 105.784 47.7592 107.293 49.1138 109.161C49.4115 109.529 49.6567 109.936 49.8426 110.372Z" fill="#263238"/>
<path d="M112.56 113.843C112.522 113.693 112.497 113.541 112.487 113.387C112.45 113.067 112.403 112.632 112.34 112.081C112.22 110.949 112.057 109.307 111.884 107.278C111.522 103.215 111.108 97.5944 110.741 91.3866C110.374 85.1788 110.117 79.5477 109.97 75.4738C109.897 73.4343 109.844 71.8037 109.823 70.645C109.823 70.0944 109.823 69.6593 109.797 69.3342C109.789 69.1823 109.789 69.03 109.797 68.8781C109.826 69.0284 109.842 69.1811 109.844 69.3342C109.844 69.654 109.886 70.0944 109.918 70.645C109.976 71.8089 110.054 73.45 110.154 75.4634C110.348 79.5372 110.636 85.1578 111.003 91.3709C111.37 97.5839 111.758 103.194 112.052 107.263C112.209 109.271 112.335 110.933 112.424 112.076C112.466 112.6 112.497 113.061 112.524 113.381C112.55 113.534 112.562 113.688 112.56 113.843Z" fill="#263238"/>
<path d="M134.55 111.735C134.362 111.592 134.187 111.435 134.025 111.263L132.589 109.879L127.655 105.045L127.875 104.956C127.833 106.246 127.791 107.64 127.744 109.093C127.697 110.545 127.639 111.987 127.592 113.287V113.591L127.377 113.376L122.575 108.474L121.201 107.042C121.03 106.88 120.872 106.705 120.729 106.518C120.916 106.662 121.091 106.819 121.253 106.99L122.679 108.369L127.555 113.203L127.33 113.292C127.372 111.981 127.419 110.566 127.466 109.098C127.514 107.63 127.571 106.251 127.618 104.961V104.662L127.828 104.872L132.688 109.779L134.078 111.216C134.249 111.375 134.407 111.549 134.55 111.735Z" fill="#E0E0E0"/>
<path d="M84.017 116.574C84.017 116.574 92.8358 114.032 95.7562 113.287C96.894 112.999 101.765 115.568 105.131 117.707C105.131 117.707 109.766 120.454 109.393 121.298C108.979 122.232 107.296 122.043 104.544 120.774C104.544 120.774 105.498 123.537 103.626 123.474C103.626 123.474 104.554 126.463 102.803 126.772C101.052 127.082 100.643 123.27 99.1013 123.065C97.5599 122.861 94.3825 122.651 94.3825 122.651C94.3825 122.651 91.7243 127.055 89.6638 127.37C87.6032 127.685 82.8478 127.124 82.8478 127.124L84.017 116.574Z" fill="#FFBE9D"/>
<path d="M99.0698 117.183C99.9332 117.567 100.758 118.032 101.534 118.572C102.357 119.038 103.133 119.582 103.852 120.197C102.163 119.351 100.561 118.342 99.0698 117.183Z" fill="#EB996E"/>
<path d="M98.5508 118.897C99.5581 119.214 100.537 119.616 101.476 120.098C102.448 120.492 103.384 120.968 104.276 121.519C103.268 121.205 102.29 120.805 101.351 120.323C100.377 119.931 99.4406 119.453 98.5508 118.897Z" fill="#EB996E"/>
<path d="M99.4945 122.992C100.826 122.987 102.153 123.163 103.437 123.516C102.105 123.52 100.779 123.344 99.4945 122.992Z" fill="#EB996E"/>
<path d="M72.5399 25.5704C72.6437 25.9101 72.6452 26.2729 72.5442 26.6135C72.4431 26.9541 72.244 27.2574 71.9717 27.4856C71.6993 27.7137 71.3658 27.8566 71.0128 27.8965C70.6598 27.9363 70.3028 27.8713 69.9865 27.7095C68.7911 27.1066 68.6391 25.455 68.875 24.139C69.1109 22.823 69.5566 21.4126 69.0061 20.191C68.5814 19.2577 67.6638 18.6652 66.9508 17.9312C66.3215 17.2932 65.8487 16.518 65.5695 15.6665C65.2902 14.8151 65.212 13.9104 65.3412 13.0237C65.4923 12.1396 65.8846 11.3143 66.4748 10.639C67.0651 9.96363 67.8303 9.46437 68.6862 9.19624C70.4427 8.70863 72.6081 9.24867 73.9293 7.9746C74.8783 7.05182 74.936 5.54706 75.67 4.44601C76.8078 2.73677 79.2143 2.46413 81.2487 2.74201C83.283 3.0199 85.3487 3.67527 87.3411 3.17718C89.0032 2.76298 90.3664 1.60426 91.9288 0.891199C93.6317 0.112799 95.5352 -0.113948 97.3733 0.242663C99.2114 0.599274 100.892 1.52141 102.18 2.88013C103.469 4.23885 104.3 5.9662 104.558 7.82064C104.817 9.67509 104.489 11.5639 103.621 13.2229C103.042 14.437 102.057 15.4107 100.837 15.9755" fill="#263238"/>
<path d="M82.659 68.8833C83.996 68.8807 85.3192 68.6127 86.5519 68.0949C87.7846 67.5771 88.9022 66.8197 89.8401 65.8668C90.7779 64.9138 91.5173 63.7842 92.0153 62.5434C92.5134 61.3026 92.7602 59.9753 92.7414 58.6384L92.6103 49.0016C92.6103 49.0016 100.706 48.1889 101.24 40.167C101.775 32.1451 101.392 13.6318 101.392 13.6318C96.9382 11.422 91.9751 10.4403 87.0149 10.7877C82.0547 11.1352 77.277 12.7993 73.1742 15.6084L71.9369 16.4631L72.5398 58.9005C72.5716 61.5619 73.6522 64.1032 75.547 65.9724C77.4417 67.8416 79.9974 68.8877 82.659 68.8833Z" fill="#FFBE9D"/>
<path d="M99.2743 28.1919C98.9815 28.1582 98.7114 28.018 98.5153 27.7981C98.3192 27.5781 98.2108 27.2937 98.2108 26.9991C98.2108 26.7044 98.3192 26.42 98.5153 26.2C98.7114 25.9801 98.9815 25.8399 99.2743 25.8063C99.338 25.7905 99.4046 25.7905 99.4683 25.8063C99.761 25.8399 100.031 25.9801 100.227 26.2C100.423 26.42 100.532 26.7044 100.532 26.9991C100.532 27.2937 100.423 27.5781 100.227 27.7981C100.031 28.018 99.761 28.1582 99.4683 28.1919C99.404 28.2023 99.3385 28.2023 99.2743 28.1919Z" fill="#263238"/>
<path d="M100.847 25.6018C100.716 25.7381 99.9611 25.0775 98.8548 25.0198C97.7485 24.9621 96.9149 25.4812 96.8048 25.3344C96.6947 25.1876 96.8834 25.025 97.2504 24.7786C97.7409 24.4639 98.3193 24.315 98.9007 24.3537C99.4822 24.3924 100.036 24.6167 100.48 24.9936C100.81 25.2872 100.915 25.5703 100.847 25.6018Z" fill="#263238"/>
<path d="M88.0594 25.8744C88.2496 26.0061 88.3965 26.1913 88.4814 26.4065C88.5663 26.6217 88.5855 26.8573 88.5365 27.0834C88.4875 27.3095 88.3725 27.516 88.2061 27.6767C88.0397 27.8374 87.8293 27.9452 87.6017 27.9863C87.374 28.0274 87.1392 28.0001 86.9271 27.9077C86.715 27.8154 86.535 27.6622 86.41 27.4675C86.285 27.2728 86.2205 27.0454 86.2248 26.8141C86.2291 26.5828 86.3019 26.358 86.434 26.168C86.6108 25.9138 86.8813 25.7402 87.186 25.6851C87.4907 25.6301 87.8048 25.6982 88.0594 25.8744Z" fill="#263238"/>
<path d="M88.7881 25.9216C88.6518 26.0579 87.8968 25.3973 86.7958 25.3396C85.6947 25.2819 84.8558 25.801 84.7405 25.6542C84.6828 25.586 84.8244 25.3449 85.1861 25.0984C85.6766 24.7837 86.255 24.6348 86.8365 24.6735C87.4179 24.7122 87.9715 24.9365 88.4159 25.3134C88.7462 25.607 88.8511 25.8639 88.7881 25.9216Z" fill="#263238"/>
<path d="M92.7414 35.2857C92.7414 35.2018 93.4282 35.097 94.5503 35.0026C94.8386 35.0026 95.0746 34.9345 95.1008 34.7824C95.1219 34.4933 95.0658 34.2038 94.9382 33.9435C94.6918 33.1937 94.4454 32.4387 94.1832 31.647C93.1346 28.3806 92.4478 25.6909 92.6103 25.6385C92.7729 25.586 93.7481 28.1918 94.781 31.4583C95.0221 32.2552 95.2581 33.0312 95.4835 33.7652C95.65 34.1469 95.6832 34.5735 95.5779 34.9764C95.5311 35.0852 95.4592 35.1813 95.368 35.257C95.2769 35.3326 95.1691 35.3856 95.0536 35.4116C94.8902 35.4481 94.7224 35.4604 94.5555 35.4483C93.423 35.4273 92.7414 35.3749 92.7414 35.2857Z" fill="#263238"/>
<path d="M89.0713 36.3135C90.7565 37.1786 92.5524 37.8084 94.4088 38.1853C94.0018 38.7443 93.4175 39.1492 92.7511 39.3339C92.0847 39.5186 91.3753 39.4722 90.7386 39.2024C88.374 38.1905 89.0713 36.3135 89.0713 36.3135Z" fill="white"/>
<path d="M92.6419 48.8862C88.9303 48.7539 85.3421 47.5201 82.334 45.3419C82.334 45.3419 84.4941 51.2509 92.5423 50.9677L92.6419 48.8862Z" fill="#EB996E"/>
<path d="M101.461 15.661C101.461 15.661 96.6109 18.1252 90.1881 15.0737C85.9936 13.0709 81.0809 12.1428 80.0218 13.008C78.9627 13.8731 78.8211 18.1724 74.7105 19.5094C74.7105 19.5094 75.1562 27.72 71.874 27.4893C68.5918 27.2586 70.3955 14.5022 70.3955 14.5022L78.3282 10.4336L87.037 8.61426L95.2948 9.61569L101.702 11.2358L101.461 15.661Z" fill="#263238"/>
<path d="M72.4717 24.852C72.3406 24.7839 67.0451 22.9173 66.9245 28.4173C66.804 33.9173 72.3459 32.9054 72.3564 32.7481C72.3669 32.5908 72.4717 24.852 72.4717 24.852Z" fill="#FFBE9D"/>
<path d="M70.7205 30.6247C70.7205 30.6247 70.6209 30.6928 70.4584 30.761C70.2281 30.8545 69.9704 30.8545 69.7401 30.761C69.1633 30.5355 68.6915 29.6023 68.6915 28.6113C68.6908 28.1389 68.7928 27.672 68.9903 27.2429C69.0468 27.0726 69.1434 26.9184 69.2721 26.7933C69.4008 26.6683 69.5577 26.5761 69.7296 26.5246C69.8406 26.5044 69.9551 26.5205 70.0561 26.5706C70.1572 26.6207 70.2394 26.702 70.2906 26.8025C70.3588 26.9545 70.3221 27.0646 70.3483 27.0751C70.3745 27.0856 70.4689 26.986 70.4322 26.7605C70.4033 26.6233 70.3295 26.4997 70.2224 26.4092C70.074 26.2925 69.886 26.238 69.6981 26.2572C69.4711 26.2963 69.2579 26.3931 69.0789 26.5381C68.9 26.6831 68.7611 26.8716 68.6757 27.0856C68.4336 27.5577 68.3077 28.0808 68.3087 28.6113C68.3087 29.7176 68.8645 30.7715 69.651 31.0179C69.798 31.0628 69.9532 31.0748 70.1054 31.053C70.2576 31.0313 70.4032 30.9763 70.5318 30.8921C70.7205 30.761 70.7205 30.6352 70.7205 30.6247Z" fill="#EB996E"/>
<path d="M69.6719 7.63905C70.2992 7.45501 70.9694 7.47917 71.5818 7.70791C72.1943 7.93665 72.7162 8.35765 73.0694 8.90787C72.5805 8.53763 72.0532 8.22122 71.4965 7.96412C70.9012 7.79265 70.2897 7.68371 69.6719 7.63905Z" fill="#263238"/>
<path d="M72.9803 4.34631C73.08 4.34631 72.9279 5.50503 73.1167 6.87872C73.2798 7.70459 73.5385 8.50868 73.8874 9.2748C73.8874 9.2748 73.6567 9.08081 73.426 8.67185C73.13 8.12758 72.9346 7.53433 72.8493 6.92066C72.6965 6.06375 72.7413 5.18328 72.9803 4.34631Z" fill="#263238"/>
<path d="M95.5727 22.9487C95.5413 22.8858 95.7772 22.6918 96.2229 22.5136C97.4059 22.056 98.7193 22.0692 99.893 22.5503C100.333 22.739 100.569 22.933 100.538 22.9959C100.47 23.1427 99.4107 22.7285 98.0527 22.7285C96.6948 22.7285 95.6357 23.1113 95.5727 22.9487Z" fill="#263238"/>
<path d="M83.3039 21.8059C83.2725 21.743 83.5084 21.5542 83.9541 21.3707C84.5408 21.1439 85.1655 21.0318 85.7944 21.0404C86.426 21.0402 87.0515 21.165 87.6347 21.4074C88.0751 21.5961 88.3058 21.7901 88.2796 21.8583C88.2534 21.9265 87.1524 21.5909 85.7892 21.5857C84.426 21.5804 83.3773 21.9527 83.3039 21.8059Z" fill="#263238"/>
<path d="M94.6237 23.8296C94.6355 23.9376 94.6355 24.0466 94.6237 24.1547C94.6237 24.3854 94.6237 24.679 94.6499 25.0407C94.6762 25.4025 94.6499 25.8901 94.6814 26.4144C94.6616 27.0195 94.7504 27.6233 94.9435 28.1971C95.1964 28.9414 95.634 29.6094 96.2154 30.1385C96.7967 30.6676 97.5029 31.0405 98.2677 31.2223C98.7065 31.3296 99.1592 31.3685 99.6099 31.3377C100.079 31.3166 100.541 31.2192 100.978 31.0493C101.911 30.6998 102.706 30.0579 103.243 29.2195C103.752 28.4188 104.008 27.4833 103.977 26.535C103.977 25.5965 103.977 24.6947 103.977 23.8296L104.103 23.9554L97.2872 23.8925L95.3106 23.8558H94.7863H94.5923C94.8168 23.8309 95.0427 23.8204 95.2686 23.8244L97.2138 23.7877L104.103 23.7247H104.276V23.8558C104.276 24.7209 104.276 25.6227 104.276 26.5612C104.311 27.5612 104.043 28.5483 103.505 29.3925C102.935 30.2802 102.093 30.9591 101.104 31.3272C100.64 31.5056 100.149 31.6066 99.6518 31.6261C99.1778 31.6542 98.7022 31.61 98.2414 31.495C97.4394 31.3011 96.7007 30.9041 96.0965 30.3421C95.4923 29.7802 95.0429 29.0721 94.7915 28.2862C94.6032 27.6865 94.525 27.0577 94.5608 26.4302C94.5608 25.9059 94.5608 25.4182 94.587 25.0198C94.6132 24.6213 94.587 24.3749 94.6132 24.1442C94.6083 24.0392 94.6118 23.934 94.6237 23.8296Z" fill="#263238"/>
<path d="M81.7729 23.557C81.7729 23.557 81.7729 23.6776 81.7729 23.8821V24.7682C81.7729 25.1562 81.7729 25.6176 81.7991 26.1471C81.7854 26.7519 81.874 27.3546 82.0613 27.9298C82.3028 28.6201 82.6992 29.2461 83.22 29.7596C83.8214 30.3441 84.5696 30.7553 85.3854 30.9498C86.2875 31.1671 87.2341 31.1068 88.1013 30.7767C89.0314 30.4277 89.8239 29.7878 90.3611 28.9521C90.8719 28.1521 91.1296 27.2165 91.1004 26.2677C91.1004 25.3292 91.1004 24.4221 91.1004 23.557L91.2262 23.6829L84.4102 23.6199L82.4388 23.5885H81.9145H81.7205C81.9433 23.5637 82.1675 23.5532 82.3916 23.557L84.3368 23.5256L91.2262 23.4626H91.352V23.5885C91.352 24.4536 91.352 25.3606 91.352 26.2992C91.3837 27.2994 91.1133 28.286 90.5761 29.1304C90.0062 30.015 89.1658 30.6918 88.18 31.0599C87.7153 31.2378 87.2248 31.3388 86.7276 31.3587C86.2518 31.3868 85.7746 31.3426 85.312 31.2276C84.4553 31.0167 83.6722 30.5762 83.047 29.9536C82.5062 29.4102 82.1003 28.7476 81.8621 28.0189C81.6738 27.4192 81.5956 26.7904 81.6314 26.1628C81.6314 25.6385 81.6314 25.1509 81.6628 24.7524C81.6943 24.354 81.6628 24.1075 81.6628 23.8769C81.682 23.765 81.7192 23.657 81.7729 23.557Z" fill="#263238"/>
<path d="M94.7391 24.2123C93.54 24.3943 92.3204 24.3943 91.1213 24.2123C92.3199 24.0236 93.5405 24.0236 94.7391 24.2123Z" fill="#263238"/>
<path d="M71.7692 24.2806C73.4361 24.1416 75.1092 24.0908 76.7815 24.1285C78.455 24.0811 80.1299 24.1213 81.7992 24.2491C80.1326 24.3946 78.4591 24.4453 76.7868 24.4012C75.1133 24.4546 73.4381 24.4144 71.7692 24.2806Z" fill="#263238"/>
<path d="M125.705 123.223C126.883 125.409 128.667 127.209 130.844 128.406C133.02 129.603 135.496 130.147 137.973 129.971C140.901 129.766 143.67 128.569 145.826 126.578C147.981 124.586 149.393 121.92 149.828 119.018L152.869 84.209L140.689 81.1995L135.714 108.463C135.714 108.463 133.113 119.888 125.705 123.223Z" fill="#FFBE9D"/>
<path d="M140.579 83.7213L140.983 77.6131C140.983 77.6131 142.708 63.9077 142.708 62.5655C142.708 61.024 143.447 60.6465 144.019 60.6885C144.905 60.7462 145.534 61.842 145.592 63.1684C145.592 63.6246 145.55 70.8705 145.55 70.8705C145.969 70.1858 146.437 69.5322 146.95 68.9149C147.998 67.5569 150.536 66.7809 153.121 66.8648C155.706 66.9487 156.413 67.2004 156.429 68.2018C156.42 68.3932 156.368 68.5801 156.277 68.7488C156.187 68.9175 156.059 69.0639 155.905 69.177C155.428 69.5747 154.821 69.7836 154.201 69.7642C150.064 69.6908 148.958 71.8982 148.958 71.8982L148.905 72.7004C148.905 72.7004 151.417 70.902 153.42 71.6518C153.715 71.7612 153.986 71.9288 154.216 72.1446C154.78 72.1469 155.334 72.2965 155.822 72.5787C156.31 72.8609 156.717 73.2658 157 73.7533C157.284 74.2408 157.435 74.794 157.438 75.3579C157.442 75.9219 157.298 76.477 157.022 76.9682C156.914 77.2203 156.731 77.4332 156.499 77.5785C156.266 77.7238 155.995 77.7944 155.721 77.7809C155.444 77.6977 155.193 77.5442 154.992 77.3353C154.875 77.2356 154.751 77.1445 154.62 77.0626L154.159 79.2804C154.159 79.2804 152.853 84.2089 152.528 86.4215" fill="#FFBE9D"/>
<path d="M141.769 83.2441C142.524 83.4539 143.306 82.8981 143.715 82.227C144.124 81.5559 144.297 80.7642 144.653 80.0616C145.733 77.9644 148.323 76.9682 149.314 74.8185C149.451 74.5197 149.524 74.1107 149.262 73.9115C149 73.7122 148.675 73.8748 148.407 74.0216L141.591 77.7966" fill="#FFBE9D"/>
<path d="M141.586 77.7861C141.798 77.5979 142.032 77.436 142.283 77.3038C142.745 77.0154 143.421 76.6169 144.26 76.1293L147.222 74.4358L148.077 73.9534C148.395 73.7016 148.801 73.5865 149.204 73.6336C149.329 73.6739 149.438 73.7512 149.518 73.8551C149.597 73.9591 149.643 74.0848 149.65 74.2156C149.663 74.4311 149.626 74.6467 149.54 74.8448C149.382 75.1946 149.185 75.5253 148.952 75.8305C148.009 77.0573 146.787 77.8281 145.906 78.7247C145.478 79.1304 145.114 79.5989 144.826 80.1141C144.569 80.5964 144.407 81.0998 144.207 81.5559C144.085 81.9366 143.881 82.286 143.609 82.5794C143.337 82.8729 143.005 83.1033 142.635 83.2547C142.074 83.4224 141.759 83.2547 141.78 83.2232C142.052 83.2316 142.322 83.187 142.577 83.0921C142.905 82.9247 143.194 82.691 143.427 82.4058C143.66 82.1206 143.831 81.7901 143.93 81.4353C144.097 80.9274 144.292 80.4287 144.512 79.941C144.801 79.3829 145.178 78.8748 145.628 78.4363C146.53 77.4925 147.726 76.7008 148.606 75.5631C148.814 75.2884 148.99 74.9911 149.131 74.677C149.262 74.3781 149.241 74.0793 149.073 74.0478C148.905 74.0164 148.575 74.1579 148.287 74.3205L147.416 74.7923L144.412 76.4282C143.552 76.8843 142.839 77.2409 142.367 77.4768C142.123 77.6162 141.86 77.7204 141.586 77.7861Z" fill="#EB996E"/>
<path d="M148.811 72.7581C148.857 72.262 149.021 71.784 149.288 71.3634C149.599 70.9321 150.04 70.6122 150.546 70.4512C151.181 70.2426 151.845 70.1364 152.513 70.1366C153.198 70.1434 153.883 70.0837 154.557 69.9583C155.122 69.8431 155.647 69.5808 156.078 69.1981C156.221 69.0658 156.332 68.9026 156.403 68.7209C156.474 68.5392 156.503 68.3438 156.487 68.1494C156.479 68.0065 156.432 67.8686 156.35 67.751C156.324 67.751 156.35 67.903 156.377 68.1547C156.374 68.3304 156.334 68.5035 156.258 68.662C156.181 68.8204 156.072 68.9604 155.936 69.0722C155.517 69.4021 155.024 69.6252 154.5 69.7224C153.84 69.8309 153.171 69.88 152.502 69.8692C151.809 69.8616 151.12 69.9697 150.462 70.189C149.913 70.3804 149.442 70.7493 149.126 71.2376C148.92 71.5662 148.801 71.9413 148.779 72.3282C148.75 72.4716 148.761 72.6205 148.811 72.7581Z" fill="#EB996E"/>
<path d="M145.555 62.6547C145.51 63.1342 145.51 63.6169 145.555 64.0965C145.555 65.0822 145.555 66.2619 145.592 67.5622C145.628 68.8625 145.592 70.0422 145.592 71.0279C145.56 71.5085 145.571 71.9909 145.623 72.4697C145.738 71.9994 145.796 71.5171 145.796 71.0331C145.859 70.147 145.901 68.9359 145.896 67.5622C145.891 66.1885 145.838 64.9721 145.775 64.086C145.753 63.6024 145.68 63.1225 145.555 62.6547Z" fill="#EB996E"/>
<path d="M150.447 74.3676C150.593 74.3324 150.734 74.2778 150.866 74.2051C151.037 74.1177 151.225 74.0678 151.416 74.0588C151.608 74.0497 151.799 74.0818 151.978 74.1527C152.087 74.2122 152.18 74.2989 152.246 74.4046C152.312 74.5102 152.35 74.6311 152.355 74.7556C152.372 75.0683 152.349 75.3819 152.287 75.6889C152.2 76.0747 152.262 76.4791 152.46 76.8214C152.585 76.9973 152.75 77.1412 152.942 77.2414C153.133 77.3416 153.345 77.3953 153.561 77.3981C153.773 77.3967 153.983 77.3522 154.178 77.2675C154.372 77.1828 154.548 77.0596 154.694 76.9053C154.967 76.6311 155.15 76.2798 155.218 75.8986C155.3 75.282 155.291 74.6566 155.192 74.0426C155.137 73.6273 155.011 73.2246 154.819 72.8524C154.673 72.5902 154.536 72.4906 154.526 72.5011C154.515 72.5116 154.61 72.6427 154.72 72.8996C154.864 73.2765 154.954 73.6719 154.987 74.074C155.056 74.6651 155.047 75.2626 154.961 75.8514C154.894 76.1849 154.721 76.4877 154.468 76.7146C154.215 76.9415 153.895 77.0801 153.556 77.1098C153.385 77.1087 153.217 77.0679 153.065 76.9906C152.913 76.9132 152.781 76.8014 152.68 76.6641C152.522 76.3766 152.472 76.0417 152.539 75.7204C152.597 75.3899 152.611 75.0531 152.581 74.7189C152.565 74.5593 152.509 74.4064 152.417 74.275C152.325 74.1436 152.201 74.0382 152.056 73.9692C151.852 73.8915 151.633 73.8634 151.416 73.8871C151.199 73.9108 150.991 73.9856 150.808 74.1055C150.562 74.2523 150.415 74.3309 150.447 74.3676Z" fill="#EB996E"/>
<path d="M154.573 76.6851C154.536 76.8219 154.551 76.9675 154.615 77.0941C154.689 77.2739 154.803 77.4345 154.948 77.5636C155.094 77.6926 155.267 77.7867 155.454 77.8386C155.736 77.8993 156.03 77.8857 156.305 77.7994C156.581 77.713 156.83 77.5567 157.027 77.3457C157.5 76.8264 157.753 76.1445 157.735 75.4425C157.735 74.7489 157.518 74.0727 157.116 73.5078C156.788 73.0471 156.34 72.6846 155.821 72.4592C155.481 72.3056 155.114 72.2184 154.741 72.2023C154.479 72.2023 154.337 72.2023 154.337 72.2442C154.821 72.3066 155.293 72.4409 155.737 72.6427C156.203 72.8739 156.603 73.2182 156.901 73.6441C157.25 74.1728 157.432 74.7936 157.425 75.4268C157.443 76.0556 157.226 76.6684 156.817 77.1465C156.651 77.3347 156.439 77.4773 156.203 77.5608C155.966 77.6443 155.712 77.6659 155.464 77.6236C155.299 77.5866 155.144 77.5146 155.009 77.4124C154.875 77.3102 154.763 77.1801 154.683 77.0311C154.61 76.8319 154.61 76.6851 154.573 76.6851Z" fill="#EB996E"/>
<path d="M149.592 81.5297C149.367 81.4585 149.125 81.4585 148.9 81.5297C148.31 81.6588 147.779 81.9795 147.39 82.442L147.631 82.5154C147.599 82.1908 147.547 81.8685 147.474 81.5506C147.265 80.4234 146.748 79.3762 145.98 78.5254C146.493 79.5089 146.901 80.5441 147.196 81.6136C147.269 81.9386 147.322 82.2532 147.359 82.5468L147.4 82.8719L147.605 82.615C147.953 82.1865 148.417 81.8678 148.942 81.6974C149.335 81.5769 149.592 81.5664 149.592 81.5297Z" fill="#EB996E"/>
<path d="M149.723 69.2033C149.655 69.2348 149.933 69.7276 150.573 70.0265C151.212 70.3253 151.778 70.1523 151.752 70.0789C151.726 70.0055 151.228 70.0107 150.704 69.7643C150.179 69.5179 149.791 69.1509 149.723 69.2033Z" fill="#EB996E"/>
<path d="M138.482 87.6746L153.787 88.7704C153.787 88.7704 151.433 115.851 150.976 120.051C150.52 124.25 147.831 130.584 138.482 130.584C129.134 130.584 127.393 127.401 123.235 120.848C128.138 117.45 135.923 107.305 135.923 107.305L138.482 87.6746Z" fill="#116EFC"/>
<path d="M145.697 91.3185C145.618 91.5468 145.523 91.7693 145.413 91.9844L144.559 93.788L141.539 100.022L141.387 99.8385L145.356 98.6588L149.388 97.4739L149.681 97.39L149.54 97.6574L146.394 103.766L145.466 105.522C145.363 105.737 145.242 105.942 145.104 106.135C145.184 105.911 145.279 105.692 145.387 105.48C145.607 105.029 145.911 104.431 146.247 103.692L149.293 97.542L149.445 97.7255L145.419 98.9209L141.444 100.085L141.156 100.169L141.292 99.9014L144.422 93.7303C144.805 93.0015 145.115 92.4038 145.345 91.9581C145.444 91.7354 145.562 91.5214 145.697 91.3185Z" fill="#E0E0E0"/>
<path d="M144.249 117.366C144.015 117.416 143.776 117.448 143.536 117.46L141.544 117.633L134.655 118.158L134.739 117.932L137.759 120.764L140.815 123.647L141.035 123.857H140.731L133.879 124.234L131.897 124.318C131.66 124.339 131.421 124.339 131.184 124.318C131.417 124.272 131.654 124.244 131.892 124.234L133.868 124.072L140.716 123.6L140.637 123.826L137.57 120.947L134.56 118.105L134.34 117.901H134.639L141.534 117.487L143.531 117.387C143.77 117.362 144.01 117.355 144.249 117.366Z" fill="#E0E0E0"/>
<path d="M171.498 20.6262L155.889 15.0214L140.454 20.5528C138.482 21.4808 136.752 22.0418 136.752 23.8769V33.0313C136.715 39.4611 138.471 45.7738 141.822 51.2615C145.17 56.7995 150.132 61.1811 156.041 63.8187C162.333 61.7687 167.052 56.2949 169.962 51.618C173.322 46.1331 175.086 39.8201 175.058 33.3879V25.1562C175.058 22.5347 173.663 21.2554 171.498 20.6262Z" fill="#116EFC"/>
<g opacity="0.3">
<path d="M156.041 58.492C151.358 56.38 147.434 52.8854 144.795 48.4777C142.138 44.141 140.742 39.1501 140.763 34.0645V27.6679C140.763 26.2104 141.644 24.8472 143.384 24.0345L155.894 19.3577V15.0426L140.454 20.5531C138.833 21.2609 136.752 22.0421 136.752 23.8772V33.0316C136.715 39.4613 138.471 45.7741 141.822 51.2618C145.17 56.7998 150.132 61.1814 156.041 63.819V58.492Z" fill="black"/>
</g>
<g opacity="0.4">
<path d="M156.041 63.8028C157.1 63.4569 158.126 63.0183 159.108 62.4921C161.523 61.1262 163.718 59.4047 165.62 57.3853C167.34 55.5326 168.854 53.4986 170.134 51.319C173.534 45.7936 175.245 39.3954 175.058 32.9106V25.3553C175.058 21.5908 173.118 21.3129 171.492 20.6051L155.884 15.0002V19.3153L168.541 24.0708C170.281 24.8834 171.162 26.2466 171.162 27.699V34.1217C171.183 39.2057 169.787 44.195 167.13 48.5297C164.548 52.9171 160.671 56.3972 156.031 58.4916L156.041 63.8028Z" fill="black"/>
</g>
<path opacity="0.5" d="M160.031 33.6551V32.4178C160.031 31.3429 159.604 30.312 158.844 29.5519C158.084 28.7919 157.053 28.3649 155.978 28.3649C154.903 28.3649 153.872 28.7919 153.112 29.5519C152.352 30.312 151.925 31.3429 151.925 32.4178V33.6761C151.389 33.7565 150.899 34.0266 150.545 34.4374C150.191 34.8483 149.996 35.3725 149.996 35.9149V43.2028C149.996 43.8035 150.234 44.3796 150.659 44.8044C151.084 45.2292 151.66 45.4678 152.261 45.4678H159.853C160.454 45.4678 161.03 45.2292 161.454 44.8044C161.879 44.3796 162.118 43.8035 162.118 43.2028V35.9149C162.118 35.3447 161.904 34.7954 161.517 34.3765C161.13 33.9576 160.599 33.7 160.031 33.6551ZM157.079 41.3834H155.097L155.407 39.9521C155.19 39.8108 155.024 39.6033 154.935 39.3604C154.846 39.1175 154.837 38.8523 154.911 38.6042C154.985 38.3561 155.137 38.1385 155.344 37.9838C155.551 37.829 155.803 37.7454 156.062 37.7454C156.321 37.7454 156.573 37.829 156.78 37.9838C156.988 38.1385 157.139 38.3561 157.213 38.6042C157.287 38.8523 157.278 39.1175 157.189 39.3604C157.1 39.6033 156.934 39.8108 156.717 39.9521C156.854 40.4869 157.079 41.3834 157.079 41.3834ZM159.176 33.6446H152.801V32.4178C152.834 31.5967 153.184 30.8204 153.777 30.2513C154.369 29.6822 155.159 29.3644 155.981 29.3644C156.803 29.3644 157.592 29.6822 158.185 30.2513C158.778 30.8204 159.127 31.5967 159.161 32.4178L159.176 33.6446Z" fill="white"/>
<path d="M143.295 33.566C143.159 33.1558 143.079 32.7289 143.059 32.2972C142.943 31.2652 142.901 30.2261 142.933 29.188C142.933 28.5798 142.991 28.0031 143.044 27.4788C143.07 27.0006 143.189 26.5322 143.395 26.0998C143.542 25.8037 143.781 25.5629 144.076 25.413C144.291 25.3134 144.422 25.3186 144.422 25.3344C144.046 25.5071 143.743 25.8082 143.568 26.1837C143.4 26.603 143.308 27.0484 143.295 27.4997C143.253 28.024 143.222 28.5955 143.206 29.1985C143.169 30.3992 143.206 31.4897 143.253 32.2814C143.301 32.7079 143.315 33.1374 143.295 33.566Z" fill="white"/>
<path d="M143.521 37.5455C143.447 37.5455 143.379 37.1732 143.369 36.7066C143.358 36.2399 143.416 35.8624 143.489 35.8624C143.563 35.8624 143.631 36.2347 143.641 36.7013C143.652 37.1679 143.599 37.5455 143.521 37.5455Z" fill="white"/>
<path d="M128.038 85.4619L110.636 128.497H79.2562V130.442H172.725L191.846 85.4619H128.038Z" fill="#263238"/>
<path d="M154.641 110.87C154.012 113.035 152.177 114.404 150.541 113.932C148.905 113.46 148.093 111.31 148.722 109.145C149.351 106.98 151.191 105.611 152.827 106.083C154.463 106.555 155.276 108.704 154.641 110.87Z" fill="#FAFAFA"/>
</svg>
