<svg width="87" height="87" viewBox="0 0 87 87" fill="none" xmlns="http://www.w3.org/2000/svg">
<g clip-path="url(#clip0_4116_6090)">
<path d="M43.4 86.9999C67.3691 86.9999 86.8 67.5691 86.8 43.5999C86.8 19.6308 67.3691 0.199951 43.4 0.199951C19.4308 0.199951 0 19.6308 0 43.5999C0 67.5691 19.4308 86.9999 43.4 86.9999Z" fill="#32BA7C"/>
<path d="M32.3105 63.1779L54.6266 85.494C73.1093 80.5653 86.8001 63.7256 86.8001 43.6C86.8001 43.1893 86.8001 42.7786 86.8001 42.3678L69.2758 26.2126L32.3105 63.1779Z" fill="#0AA06E"/>
<path d="M44.4951 53.3205C46.4118 55.2372 46.4118 58.523 44.4951 60.4397L40.5247 64.4101C38.608 66.3268 35.3222 66.3268 33.4055 64.4101L16.0181 46.8858C14.1014 44.969 14.1014 41.6832 16.0181 39.7665L19.9885 35.7962C21.9052 33.8795 25.191 33.8795 27.1077 35.7962L44.4951 53.3205Z" fill="white"/>
<path d="M59.6917 23.0638C61.6084 21.147 64.8942 21.147 66.8109 23.0638L70.7813 27.0341C72.698 28.9508 72.698 32.2366 70.7813 34.1533L40.6614 64.1363C38.7447 66.053 35.4589 66.053 33.5422 64.1363L29.5718 60.166C27.6551 58.2492 27.6551 54.9634 29.5718 53.0467L59.6917 23.0638Z" fill="white"/>
</g>
<defs>
<clipPath id="clip0_4116_6090">
<rect width="86.8" height="86.8" fill="white" transform="translate(0 0.199951)"/>
</clipPath>
</defs>
</svg>
