<svg width="35" height="36" viewBox="0 0 35 36" fill="none" xmlns="http://www.w3.org/2000/svg">
<g clip-path="url(#clip0_6055_4266)">
<path d="M34.2543 22.2027C33.4274 25.5371 31.63 28.5513 29.0895 30.8639C26.549 33.1764 23.3797 34.6835 19.9824 35.1942C16.5852 35.705 13.1128 35.1966 10.0046 33.7333C6.89641 32.27 4.29211 29.9176 2.52125 26.9738C0.750396 24.03 -0.107438 20.627 0.056299 17.1955C0.220036 13.764 1.39798 10.4581 3.44109 7.6963C5.4842 4.93445 8.30064 2.84071 11.534 1.68002C14.7674 0.519326 18.2725 0.34384 21.6056 1.17577C26.0694 2.28989 29.9086 5.12997 32.2802 9.07237C34.6517 13.0148 35.3617 17.7372 34.2543 22.2027Z" fill="#26A17B"/>
<g opacity="0.24">
<path d="M17.4056 35.3614C15.9888 35.3514 14.5785 35.1692 13.2056 34.8187C9.88234 33.9815 6.88111 32.1796 4.57994 29.6399C2.27877 27.1003 0.780586 23.9365 0.274077 20.547C-0.232432 17.1575 0.275389 13.6939 1.73358 10.5925C3.19177 7.49105 5.53512 4.89048 8.46848 3.1183C10.7626 1.7381 13.3447 0.907073 16.0132 0.69015C18.6817 0.473227 21.3642 0.876287 23.851 1.86783C26.3379 2.85938 28.5619 4.41255 30.349 6.40598C32.1362 8.39941 33.4382 10.7791 34.1534 13.3591C34.8685 15.9391 34.9773 18.6495 34.4714 21.2785C33.9655 23.9076 32.8585 26.384 31.2369 28.5143C29.6153 30.6447 27.5231 32.3712 25.1238 33.5589C22.7244 34.7467 20.0829 35.3636 17.4056 35.3614ZM17.4056 3.88883C14.2586 3.89127 11.2028 4.94581 8.72404 6.88474C6.24532 8.82367 4.48601 11.5357 3.72589 14.5895C3.2271 16.4033 3.09607 18.2986 3.34054 20.1638C3.585 22.029 4.20001 23.8265 5.14939 25.4505C6.09878 27.0746 7.36335 28.4923 8.86873 29.6204C10.3741 30.7485 12.0899 31.5642 13.9152 32.0194C15.7404 32.4746 17.6383 32.5602 19.4971 32.2712C21.3559 31.9821 23.1382 31.3243 24.739 30.3363C26.3398 29.3483 27.7269 28.0501 28.8187 26.5182C29.9104 24.9862 30.6847 23.2514 31.0961 21.4158C31.6079 19.3363 31.6409 17.1677 31.1926 15.0737C30.7443 12.9796 29.8264 11.0146 28.5081 9.32693C27.1898 7.63924 25.5055 6.27288 23.5823 5.33086C21.6591 4.38885 19.5471 3.89578 17.4056 3.88883Z" fill="white"/>
</g>
<g opacity="0.3">
<path d="M33.7334 12.0987L0.263988 20.7862C-0.427109 16.5167 0.500052 12.1429 2.864 8.52102C5.22794 4.8991 8.85848 2.28979 13.045 1.20378C17.2316 0.117782 21.6727 0.63328 25.4992 2.64938C29.3256 4.66548 32.2619 8.03704 33.7334 12.1041V12.0987Z" fill="white"/>
</g>
<path d="M31.0907 21.4158C30.4152 24.1232 28.952 26.5695 26.8862 28.4454C24.8203 30.3212 22.2446 31.5423 19.4847 31.9543C16.7248 32.3662 13.9048 31.9505 11.3812 30.7597C8.85763 29.5688 6.74385 27.6564 5.30717 25.2642C3.8705 22.8721 3.17547 20.1076 3.30998 17.3204C3.44449 14.5332 4.4025 11.8485 6.06285 9.60577C7.72321 7.36305 10.0113 5.66307 12.6379 4.7208C15.2644 3.77853 18.1114 3.63629 20.8187 4.31208C24.4489 5.2182 27.5704 7.52918 29.4967 10.7367C31.4231 13.9442 31.9964 17.7855 31.0907 21.4158Z" fill="#26A17B"/>
<path d="M26.0877 17.9972C26.0877 16.9119 23.1086 15.9895 19.1474 15.7779V14.036H24.0908V10.4004H10.5739V14.036H15.5172V15.7887C11.632 16.0112 8.72351 16.9119 8.72351 17.9972C8.72351 19.0825 11.632 19.9832 15.5172 20.2111V26.4731H19.1474V20.2166C23.1086 20.0049 26.0877 19.0825 26.0877 17.9972ZM17.4056 19.0825C13.1568 19.0825 9.7111 18.4259 9.7111 17.6119C9.7111 16.9228 12.1801 16.3476 15.5172 16.1848V18.2957C16.1196 18.3282 16.7544 18.3499 17.4056 18.3499C18.0567 18.3499 18.5939 18.3499 19.1474 18.3065V16.174C22.5606 16.3259 25.1164 16.9119 25.1164 17.6065C25.1001 18.4205 21.6544 19.0825 17.4056 19.0825Z" fill="white"/>
</g>
<defs>
<clipPath id="clip0_6055_4266">
<rect width="34.7337" height="34.7337" fill="white" transform="translate(0.0414429 0.633057)"/>
</clipPath>
</defs>
</svg>
