<svg width="61" height="61" viewBox="0 0 61 61" fill="none" xmlns="http://www.w3.org/2000/svg">
<g clip-path="url(#clip0_6018_3631)">
<path d="M30.5 60.5C47.0685 60.5 60.5 47.0685 60.5 30.5C60.5 13.9315 47.0685 0.5 30.5 0.5C13.9315 0.5 0.5 13.9315 0.5 30.5C0.5 47.0685 13.9315 60.5 30.5 60.5Z" fill="white"/>
<path d="M43.373 29.0368L24.0758 18.511C22.9652 17.9053 21.611 18.7091 21.611 19.9742V41.0258C21.611 42.2909 22.9651 43.0947 24.0758 42.489L43.373 31.9632C44.5312 31.3314 44.5312 29.6686 43.373 29.0368Z" fill="#116EFC"/>
<path d="M38.28 7.53938C38.14 7.53938 37.9979 7.5177 37.8579 7.47317C37.171 7.25403 36.4636 7.06301 35.755 6.90563C35.0063 6.73911 34.5343 5.99743 34.7014 5.24813C34.8663 4.49942 35.6031 4.02364 36.3583 4.19403C37.1471 4.36923 37.936 4.58251 38.7021 4.82661C39.4323 5.05993 39.836 5.8411 39.6027 6.572C39.4149 7.16239 38.868 7.53938 38.28 7.53938Z" fill="#116EFC"/>
<path d="M52.5801 19.0124C52.1027 19.0124 51.6383 18.7661 51.38 18.3245C49.2663 14.7086 46.2357 11.6861 42.6137 9.58373C41.9508 9.19854 41.7251 8.34834 42.1102 7.68541C42.4965 7.0219 43.3429 6.79455 44.0092 7.18139C48.0445 9.52455 51.4223 12.8932 53.778 16.9226C54.1654 17.5851 53.9418 18.4357 53.28 18.8226C53.0597 18.9517 52.8188 19.0124 52.5801 19.0124Z" fill="#116EFC"/>
<path d="M35.7513 52.6185C21.2817 51.4322 9.56787 39.7184 8.38159 25.2488C8.14745 22.3927 8.31455 19.6125 8.83217 16.9576C9.31909 14.4601 5.88467 13.1646 4.59795 15.3598C1.62737 20.4279 0.102172 26.4455 0.589555 32.8482C1.70131 47.4555 13.5445 59.2986 28.1517 60.4104C34.5546 60.8978 40.5721 59.3726 45.6402 56.402C47.8355 55.1153 46.5399 51.6809 44.0423 52.1678C41.3876 52.6855 38.6074 52.8526 35.7513 52.6185Z" fill="white"/>
<path d="M26.0093 32.9373V19.5656L24.0759 18.511C22.9653 17.9053 21.6112 18.7091 21.6112 19.9742V41.0258C21.6112 42.2908 22.9653 43.0947 24.0759 42.489L43.3732 31.9631C43.9543 31.6461 44.2432 31.0694 44.2409 30.4937L28.8651 35.0673C27.4403 35.491 26.0093 34.4237 26.0093 32.9373Z" fill="#116EFC"/>
</g>
<defs>
<clipPath id="clip0_6018_3631">
<rect width="60" height="60" fill="white" transform="translate(0.5 0.5)"/>
</clipPath>
</defs>
</svg>
