<svg width="25" height="25" viewBox="0 0 25 25" fill="none" xmlns="http://www.w3.org/2000/svg">
<g clip-path="url(#clip0_6057_4448)">
<path d="M0 12.5C0 5.59644 5.59644 0 12.5 0C19.4036 0 25 5.59644 25 12.5C25 19.4036 19.4036 25 12.5 25C5.59644 25 0 19.4036 0 12.5Z" fill="white"/>
<g clip-path="url(#clip1_6057_4448)">
<path d="M12.5 25C19.4036 25 25 19.4036 25 12.5C25 5.59644 19.4036 0 12.5 0C5.59644 0 0 5.59644 0 12.5C0 19.4036 5.59644 25 12.5 25Z" fill="#2AA81A"/>
<path d="M16.9096 8.09041C15.8694 7.03847 14.4874 6.39308 13.0131 6.27076C11.5389 6.14843 10.0694 6.55723 8.87011 7.42335C7.6708 8.28946 6.82068 9.55583 6.47321 10.9938C6.12575 12.4318 6.30384 13.9466 6.97535 15.2648L6.31745 18.4588C6.31041 18.4907 6.31013 18.5238 6.31665 18.5558C6.32317 18.5878 6.33633 18.6181 6.35528 18.6447C6.38242 18.685 6.42122 18.716 6.46649 18.7336C6.51175 18.7513 6.56132 18.7547 6.60857 18.7434L9.73357 18.0016C11.0481 18.6555 12.5521 18.8217 13.9777 18.4707C15.4033 18.1196 16.6581 17.2741 17.5188 16.0846C18.3794 14.8951 18.7901 13.4388 18.6776 11.9749C18.5651 10.511 17.9369 9.1345 16.9046 8.09041H16.9096ZM15.9326 15.8815C15.2132 16.5996 14.2869 17.0742 13.2838 17.2385C12.2807 17.4029 11.2514 17.2487 10.3405 16.7976L9.90298 16.5805L7.98357 17.0345V17.0098L8.38817 15.074L8.17436 14.6529C7.7086 13.7395 7.54415 12.7021 7.7046 11.6895C7.86505 10.6768 8.34216 9.74105 9.06745 9.0164C9.97815 8.10664 11.2128 7.59563 12.5 7.59563C13.7873 7.59563 15.0219 8.10664 15.9326 9.0164L15.954 9.046C16.8528 9.95865 17.3546 11.1895 17.35 12.4705C17.3454 13.7514 16.8347 14.9787 15.9293 15.8848L15.9326 15.8815Z" fill="white"/>
<path d="M15.7632 14.4736C15.528 14.8437 15.1546 15.296 14.6892 15.4095C13.8668 15.6068 12.6151 15.4095 11.0477 13.9604L11.028 13.9423C9.66449 12.6693 9.30265 11.6085 9.38324 10.768C9.43094 10.2894 9.82896 9.85846 10.1645 9.57557C10.2178 9.53059 10.281 9.49871 10.3488 9.48248C10.4167 9.46625 10.4874 9.46613 10.5553 9.48211C10.6233 9.49809 10.6865 9.52974 10.74 9.57452C10.7935 9.61931 10.8358 9.67599 10.8635 9.74004L11.3684 10.8815C11.4014 10.955 11.4138 11.036 11.4042 11.116C11.3946 11.1959 11.3635 11.2718 11.3142 11.3354L11.0576 11.6644C11.0043 11.7327 10.9725 11.8153 10.9663 11.9017C10.9602 11.9881 10.9799 12.0744 11.023 12.1496C11.2668 12.5088 11.5584 12.8331 11.8898 13.1134C12.2464 13.4566 12.6508 13.7463 13.0905 13.9736C13.1707 14.0059 13.2588 14.0137 13.3434 13.9958C13.4281 13.9779 13.5055 13.9353 13.5658 13.8733L13.8602 13.5739C13.9162 13.5137 13.9878 13.4701 14.0671 13.4481C14.1463 13.426 14.2301 13.4263 14.3092 13.4489L15.5099 13.7927C15.5779 13.812 15.6404 13.8471 15.6924 13.8951C15.7443 13.9431 15.7843 14.0027 15.8089 14.069C15.8336 14.1353 15.8423 14.2065 15.8343 14.2768C15.8264 14.3471 15.802 14.4145 15.7632 14.4736Z" fill="white"/>
</g>
</g>
<defs>
<clipPath id="clip0_6057_4448">
<path d="M0 12.5C0 5.59644 5.59644 0 12.5 0C19.4036 0 25 5.59644 25 12.5C25 19.4036 19.4036 25 12.5 25C5.59644 25 0 19.4036 0 12.5Z" fill="white"/>
</clipPath>
<clipPath id="clip1_6057_4448">
<rect width="25" height="25" fill="white"/>
</clipPath>
</defs>
</svg>
