<svg width="39" height="39" viewBox="0 0 39 39" fill="none" xmlns="http://www.w3.org/2000/svg">
<g clip-path="url(#clip0_6259_544)">
<path d="M19.6662 38.8769H9.11177C4.08754 38.8769 0 34.7894 0 29.7651V9.11177C0 4.08754 4.08754 0 9.11177 0H9.56736C10.4061 0 11.086 0.67989 11.086 1.51863C11.086 2.35737 10.4061 3.03726 9.56736 3.03726H9.11177C5.76229 3.03726 3.03726 5.76229 3.03726 9.11177V29.7651C3.03726 33.1146 5.76229 35.8396 9.11177 35.8396H19.6662C23.0157 35.8396 25.7408 33.1146 25.7408 29.7651V27.2594C25.7408 26.4207 26.4207 25.7408 27.2594 25.7408C28.0981 25.7408 28.778 26.4207 28.778 27.2594V29.7651C28.778 34.7894 24.6905 38.8769 19.6662 38.8769ZM13.6784 22.3346C13.6784 22.3346 14.427 21.4846 15.5116 21.4846C15.8847 21.4846 16.2614 21.5641 16.6113 21.7383C17.9989 22.4292 19.4978 22.7794 21.066 22.7794H21.0709H28.8152H28.82C31.4858 22.7794 33.9968 21.7529 35.8907 19.8889C37.7905 18.0191 38.8508 15.5209 38.8764 12.8545C38.8764 12.8497 38.8764 12.8448 38.8764 12.8399V10.1135C38.9004 7.41007 37.8715 4.8691 35.9784 2.95783C34.0893 1.05044 31.5591 0 28.8539 0H21.1089C18.4222 0 15.8956 1.05712 13.9945 2.97651C12.0951 4.89416 11.0625 7.42845 11.0864 10.1135L11.086 21.2608C11.086 21.875 11.456 22.4288 12.0234 22.6639C12.2114 22.7417 12.4086 22.7795 12.6042 22.7795C12.9995 22.7794 13.3879 22.6251 13.6784 22.3346ZM21.0669 19.7422C19.9719 19.7422 18.9283 19.499 17.965 19.0195C16.744 18.4116 15.3791 18.2962 14.1233 18.6317C14.1233 18.6317 14.1236 10.0968 14.1236 10.0919C14.1056 8.22079 14.8261 6.45296 16.1524 5.11383C17.4787 3.7747 19.2391 3.03726 21.1089 3.03726H28.8539C30.7423 3.03726 32.5062 3.7681 33.8205 5.09523C35.1405 6.42798 35.8575 8.20242 35.8393 10.0919C35.8393 10.0968 35.8392 12.8322 35.8392 12.8322C35.7989 16.6438 32.652 19.7422 28.8193 19.7422C28.8183 19.7422 28.8169 19.7422 28.816 19.7422H21.0703C21.0692 19.7422 21.068 19.7422 21.0669 19.7422ZM30.3726 10.3267H19.5903C18.7516 10.3267 18.0717 9.64679 18.0717 8.80805C18.0717 7.96931 18.7516 7.28942 19.5903 7.28942H30.3726C31.2113 7.28942 31.8912 7.96931 31.8912 8.80805C31.8912 9.64679 31.2113 10.3267 30.3726 10.3267ZM27.3353 14.1232C27.3353 13.2845 26.6554 12.6046 25.8167 12.6046H19.5903C18.7516 12.6046 18.0717 13.2845 18.0717 14.1232C18.0717 14.962 18.7516 15.6419 19.5903 15.6419H25.8167C26.6554 15.6419 27.3353 14.962 27.3353 14.1232ZM14.5029 28.6262C13.4545 28.6262 12.6046 29.4761 12.6046 30.5244C12.6046 31.5728 13.4545 32.4227 14.5029 32.4227C15.5513 32.4227 16.4012 31.5728 16.4012 30.5244C16.4012 29.4761 15.5513 28.6262 14.5029 28.6262Z" fill="white"/>
</g>
<defs>
<clipPath id="clip0_6259_544">
<rect width="38.8769" height="38.8769" fill="white"/>
</clipPath>
</defs>
</svg>
