<svg width="24" height="24" viewBox="0 0 24 24" fill="none" xmlns="http://www.w3.org/2000/svg">
<path d="M5.30991 21.9636C2.10708 19.8087 0 16.1505 0 12C0 5.37258 5.37258 0 12 0C18.6274 0 24 5.37258 24 12C24 16.1505 21.8929 19.8087 18.6901 21.9636H5.30991Z" fill="#4A7AFF"/>
<path d="M10.4734 21.9635H18.6899C21.8927 19.8087 23.9998 16.1504 23.9998 11.9999C23.9998 11.1469 23.9108 10.3147 23.7415 9.51201L18.8677 4.63818L10.4734 21.9635Z" fill="#0053BF"/>
<path d="M15.2046 23.5673C16.4612 23.2199 17.635 22.6733 18.69 21.9635L16.5458 14.0298H7.45387L5.30976 21.9635C6.36473 22.6732 7.53853 23.2199 8.79511 23.5673H15.2046Z" fill="#E9EDF5"/>
<path d="M18.6904 21.9635L16.5463 14.0298H11.9836V23.5673H15.205C16.4616 23.2199 17.6355 22.6733 18.6904 21.9635Z" fill="#CDD2E1"/>
<path d="M9.85553 5.9752L5.13203 4.63818L6.32781 9.1822L9.85553 5.9752Z" fill="#E9EDF5"/>
<path d="M8.70442 6.56061L6.47383 5.9292L7.03853 8.07504L8.70442 6.56061Z" fill="#BEC3D2"/>
<path d="M14.1445 5.9752L18.868 4.63818L17.6723 9.1822L14.1445 5.9752Z" fill="#CDD2E1"/>
<path d="M15.2957 6.56061L17.5263 5.9292L16.9616 8.07504L15.2957 6.56061Z" fill="#9196AA"/>
<path d="M18.1537 11.1217C18.1537 14.5207 15.3983 15.8406 11.9993 15.8406C8.60033 15.8406 5.84492 14.5207 5.84492 11.1217C5.84492 7.72269 8.60033 4.96729 11.9993 4.96729C15.3983 4.96729 18.1537 7.72269 18.1537 11.1217Z" fill="white"/>
<path d="M12.0003 4.96729C11.9947 4.96729 11.9892 4.96747 11.9836 4.96752V15.8405C11.9892 15.8405 11.9947 15.8406 12.0003 15.8406C15.3993 15.8406 18.1547 14.5207 18.1547 11.1217C18.1547 7.72269 15.3993 4.96729 12.0003 4.96729Z" fill="#E9EDF5"/>
<path d="M8.88659 10.7245C9.26881 10.7245 9.57866 10.4146 9.57866 10.0324C9.57866 9.65018 9.26881 9.34033 8.88659 9.34033C8.50438 9.34033 8.19453 9.65018 8.19453 10.0324C8.19453 10.4146 8.50438 10.7245 8.88659 10.7245Z" fill="#636978"/>
<path d="M15.1151 10.7245C15.4973 10.7245 15.8072 10.4146 15.8072 10.0324C15.8072 9.65018 15.4973 9.34033 15.1151 9.34033C14.7329 9.34033 14.423 9.65018 14.423 10.0324C14.423 10.4146 14.7329 10.7245 15.1151 10.7245Z" fill="#414952"/>
<path d="M12.9852 11.1023C12.9852 10.6341 12.5441 10.5181 12 10.5181C11.4559 10.5181 11.0148 10.6341 11.0148 11.1023C11.0148 11.344 11.2773 11.562 11.5313 11.7164V13.5803H12.4688V11.7164C12.7227 11.562 12.9852 11.344 12.9852 11.1023Z" fill="#636978"/>
<path d="M12.9855 11.1023C12.9855 10.6341 12.5444 10.5181 12.0003 10.5181C11.9947 10.5181 11.9892 10.5183 11.9836 10.5183V13.5803H12.469V11.7163C12.723 11.562 12.9855 11.344 12.9855 11.1023Z" fill="#414952"/>
<path d="M12.0005 16.6958C10.2305 16.6958 8.7957 18.1306 8.7957 19.9005V23.5672C9.81584 23.8493 10.8905 24 12.0005 24C13.1104 24 14.1851 23.8493 15.2052 23.5673V19.9006C15.2052 18.1306 13.7704 16.6958 12.0005 16.6958Z" fill="white"/>
<path d="M12.0003 16.6958C11.9947 16.6958 11.9892 16.6962 11.9836 16.6962V23.9998C11.9892 23.9998 11.9947 24 12.0003 24C13.1102 24 14.1849 23.8493 15.205 23.5673V19.9006C15.205 18.1306 13.7702 16.6958 12.0003 16.6958Z" fill="#E9EDF5"/>
</svg>
