<svg width="40" height="40" viewBox="0 0 40 40" fill="none" xmlns="http://www.w3.org/2000/svg">
<path d="M0 20C0 8.95431 8.95431 0 20 0C31.0457 0 40 8.95431 40 20C40 31.0457 31.0457 40 20 40C8.95431 40 0 31.0457 0 20Z" fill="#116EFC"/>
<path fill-rule="evenodd" clip-rule="evenodd" d="M20.3414 9.04388C18.2094 8.97288 16.0554 9.55454 14.1958 10.7959C12.1071 12.1915 10.6474 14.2525 9.97511 16.5565C9.78945 16.5339 9.56711 16.5439 9.30311 16.6185C8.31745 16.8982 7.57611 17.7059 7.24278 18.4172C6.81045 19.3442 6.62811 20.5702 6.82045 21.8359C7.01145 23.0975 7.54445 24.1375 8.21111 24.7832C8.87978 25.4292 9.63478 25.6392 10.3848 25.4815C11.5014 25.2432 12.0551 25.0649 11.8988 24.0245L11.1418 18.9815C11.2944 16.2522 12.7074 13.6829 15.0708 12.1029C18.2341 9.98988 22.3814 10.1252 25.3988 12.4415C27.4978 14.0509 28.7164 16.4622 28.8571 18.9935L28.3278 22.5212C27.1471 25.7522 24.2201 27.9902 20.8331 28.3079H18.5778C17.9958 28.3079 17.5271 28.7765 17.5271 29.3579V29.9119C17.5271 30.4935 17.9958 30.9622 18.5778 30.9622H21.4214C22.0031 30.9622 22.4698 30.4935 22.4698 29.9119V29.6222C25.0238 28.9989 27.2531 27.4292 28.7048 25.2402L29.6158 25.4819C30.3571 25.6742 31.1211 25.4292 31.7894 24.7835C32.4561 24.1375 32.9888 23.0979 33.1801 21.8362C33.3731 20.5705 33.1854 19.3465 32.7581 18.4175C32.3291 17.4885 31.6901 16.8985 30.9524 16.6869C30.6434 16.5979 30.3081 16.5652 30.0204 16.5565C29.4124 14.4732 28.1608 12.5785 26.3568 11.1952C24.5831 9.83421 22.4734 9.11388 20.3414 9.04388Z" fill="white"/>
<path fill-rule="evenodd" clip-rule="evenodd" d="M23.6696 18.1167C24.4212 18.1167 25.0306 18.726 25.0322 19.4797C25.0306 20.2314 24.4212 20.8424 23.6696 20.8424C22.9159 20.8424 22.3049 20.2314 22.3049 19.4797C22.3049 18.7264 22.9162 18.1167 23.6696 18.1167ZM19.9996 18.1167C20.7529 18.1167 21.3622 18.726 21.3622 19.4797C21.3622 20.2314 20.7529 20.8424 19.9996 20.8424C19.2456 20.8424 18.6362 20.2314 18.6362 19.4797C18.6362 18.7264 19.2456 18.1167 19.9996 18.1167ZM16.3309 18.1167C17.0826 18.1167 17.6936 18.726 17.6936 19.4797C17.6936 20.2314 17.0826 20.8424 16.3309 20.8424C15.5776 20.8424 14.9679 20.2314 14.9679 19.4797C14.9679 18.7264 15.5776 18.1167 16.3309 18.1167ZM19.9996 12.2627C16.0029 12.2627 12.7822 15.3774 12.7822 19.4797C12.7822 21.45 13.5272 23.1914 14.7409 24.469L14.3102 26.3997C14.1682 27.035 14.6089 27.4624 15.1799 27.1444L17.0652 26.0927C17.9612 26.4817 18.9522 26.6967 19.9996 26.6967C23.9976 26.6967 27.2162 23.584 27.2162 19.4797C27.2162 15.3774 23.9976 12.2627 19.9996 12.2627Z" fill="white"/>
</svg>

