<svg width="48" height="50" viewBox="0 0 48 50" fill="none" xmlns="http://www.w3.org/2000/svg">
<path d="M0.0742188 23.9258V26.0742C0.0742188 39.2871 10.7871 50 24 50C37.2129 50 47.9258 39.2871 47.9258 26.0742V23.9258H0.0742188Z" fill="#DB5800"/>
<path d="M24 47.8516C37.2138 47.8516 47.9258 37.1396 47.9258 23.9258C47.9258 10.7119 37.2138 0 24 0C10.7862 0 0.0742188 10.7119 0.0742188 23.9258C0.0742188 37.1396 10.7862 47.8516 24 47.8516Z" fill="#FFCE33"/>
<path d="M47.9258 23.9258V24.4141C47.6621 11.4258 37.0469 0.976562 24 0.976562C10.9531 0.976562 0.337891 11.4258 0.0839844 24.4141C0.0839844 24.248 0.0742188 24.0918 0.0742188 23.9258C0.0742188 10.7129 10.7871 0 24 0C37.2129 0 47.9258 10.7129 47.9258 23.9258Z" fill="#FFF0B3"/>
<path d="M42.8086 25.2344C42.8086 35.625 34.3906 44.043 24 44.043C13.6094 44.043 5.19141 35.625 5.19141 25.2344C5.19141 25.0684 5.19141 24.9121 5.20117 24.7461C5.45508 34.9121 13.7754 43.0664 24 43.0664C34.2246 43.0664 42.5449 34.9121 42.8086 24.7461V25.2344Z" fill="#FFF0B3"/>
<g opacity="0.6">
<path d="M42.8477 9.18945L2.42773 34.2871C0.914062 31.1523 0.0742188 27.6367 0.0742188 23.9258C0.0742188 22.793 0.152344 21.6895 0.308594 20.5957L31.5391 1.21094C36.0605 2.71484 39.9766 5.51758 42.8477 9.18945ZM47.7109 20.6934L10.582 43.7402C12.916 45.3223 15.5527 46.5137 18.375 47.1875L47.3398 29.209C47.7207 27.5098 47.9258 25.7422 47.9258 23.9258C47.9258 22.832 47.8477 21.748 47.7109 20.6934ZM45.4062 13.2227L4.91797 38.3594C5.57227 39.2285 6.28516 40.0488 7.05664 40.8203L46.666 16.2305C46.3145 15.1953 45.8848 14.1895 45.4062 13.2227Z" fill="#FFF0B3"/>
</g>
<path d="M24 43.0664C34.3877 43.0664 42.8086 34.6455 42.8086 24.2578C42.8086 13.8701 34.3877 5.44922 24 5.44922C13.6123 5.44922 5.19141 13.8701 5.19141 24.2578C5.19141 34.6455 13.6123 43.0664 24 43.0664Z" fill="#F28A00"/>
<path d="M42.8086 24.2578C42.8086 24.5898 42.7988 24.9219 42.7793 25.2441C42.2715 15.3223 34.0586 7.42188 24 7.42188C13.9414 7.42188 5.72852 15.3223 5.21094 25.2441C5.19141 24.9121 5.18164 24.5898 5.18164 24.2578C5.19141 13.8672 13.6094 5.44922 24 5.44922C34.3906 5.44922 42.8086 13.8672 42.8086 24.2578Z" fill="#DB5800"/>
<path d="M33.5215 27.5195L33.4434 27.5391C33.1211 25.6348 31.832 24.6875 29.9961 24.248C31.2852 23.584 32.1348 22.4707 32.1055 20.6641V19.668L32.0078 19.707C31.5195 17.1777 29.1367 16.3086 26.1777 16.0449V12.0508H23.7461V15.9375C23.1113 15.9375 22.457 15.9473 21.8027 15.9668V12.0508H19.3711V16.0449C18.8438 16.0547 18.3262 16.0645 17.8184 16.0645V16.0547H14.4687V18.6523C14.4687 18.6523 16.2656 18.6133 16.2363 18.6523C17.2227 18.6523 17.5449 19.2285 17.6328 19.7168V24.2676C17.7012 24.2676 17.7891 24.2676 17.8867 24.2871C17.8086 24.2871 17.7207 24.2871 17.6328 24.2871V30.6641C17.5938 30.9766 17.4082 31.4648 16.7148 31.4648C16.7441 31.4941 14.9473 31.4648 14.9473 31.4648L14.6348 33.3301L14.459 33.3887V34.3652H17.623C18.209 34.3652 18.7949 34.375 19.3613 34.375V38.418H21.793V34.4238C22.457 34.4336 23.1016 34.4434 23.7363 34.4434V38.418H26.168V34.3848C30.2598 34.1504 33.1211 33.1152 33.4727 29.2871C33.502 28.9941 33.5117 28.7207 33.5117 28.4668L33.5215 27.5195ZM21.8711 18.8281C23.248 18.8281 27.5547 18.3887 27.5547 21.2598C27.5547 24.0039 23.248 23.6816 21.8711 23.6914V18.8281ZM21.8711 31.4844V26.1328C23.5215 26.1328 28.6875 25.6543 28.6875 28.8086C28.6875 31.8262 23.5117 31.4746 21.8711 31.4844Z" fill="#BC4C00"/>
<path d="M32.0859 19.1895C31.8125 16.3086 29.3223 15.3418 26.1875 15.0684V11.0742H23.7559V14.9609C23.1211 14.9609 22.4668 14.9707 21.8125 14.9902V11.0742H19.3809V15.0684C18.8535 15.0781 18.3359 15.0879 17.8281 15.0879V15.0781H14.4785V17.6758C14.4785 17.6758 16.2754 17.6367 16.2461 17.6758C17.2324 17.6758 17.5547 18.252 17.6426 18.7402V23.291C17.7109 23.291 17.7988 23.291 17.8965 23.3105C17.8184 23.3105 17.7305 23.3105 17.6426 23.3105V29.6875C17.6035 30 17.418 30.4883 16.7246 30.4883C16.7539 30.5176 14.957 30.4883 14.957 30.4883L14.4785 33.3887H17.6426C18.2285 33.3887 18.8145 33.3984 19.3809 33.3984V37.4414H21.8125V33.4473C22.4766 33.457 23.1211 33.4668 23.7559 33.4668V37.4414H26.1875V33.4082C30.2793 33.1738 33.1406 32.1387 33.4922 28.3105C33.7754 25.2246 32.3203 23.8379 30.0059 23.2812C31.4121 22.5586 32.291 21.2988 32.0859 19.1895ZM28.6875 27.832C28.6875 30.8496 23.5215 30.5078 21.8711 30.5078V25.1563C23.5117 25.1563 28.6875 24.6777 28.6875 27.832ZM27.5547 20.2734C27.5547 23.0176 23.248 22.6953 21.8711 22.7051V17.8516C23.2383 17.8516 27.5547 17.4121 27.5547 20.2734Z" fill="#FFCE33"/>
<g opacity="0.6">
<path d="M29.9961 23.2812C31.168 23.5645 32.125 24.0527 32.7402 24.873L28.6484 27.4121C28.4434 26.1426 27.2715 25.5664 25.9336 25.3125L31.6367 21.7773C31.2656 22.4316 30.6992 22.9199 29.9961 23.2812ZM21.8613 30.5078V27.8418L14.6543 32.3145L14.4785 33.3887H17.6426C18.1016 33.3887 18.5605 33.3984 19.0098 33.3984L23.668 30.5078C22.9355 30.5273 22.2813 30.5078 21.8613 30.5078ZM17.6426 23.3008V24.8437L21.8613 22.2168V17.8418C22.9648 17.8418 25.9922 17.5586 27.1152 18.9551L30.8555 16.6309C29.7813 15.6641 28.1016 15.2344 26.1777 15.0586V11.0645H23.7461V14.9512C23.1113 14.9512 22.457 14.9609 21.8027 14.9805V11.0645H19.3711V15.0586C18.8438 15.0684 18.3262 15.0781 17.8184 15.0781V15.0684H14.4688V17.6758C14.4688 17.6758 16.2656 17.6367 16.2363 17.6758C17.2227 17.6758 17.5449 18.252 17.6328 18.7402V23.291C17.7012 23.291 17.7891 23.291 17.8867 23.3105C17.8184 23.3008 17.7305 23.3008 17.6426 23.3008ZM26.1777 34.0527L23.7461 35.5664V37.4414H26.1777V34.0527ZM27.3789 33.3105C30.3086 32.9883 32.4473 32.0898 33.2188 29.6875L27.3789 33.3105ZM21.8125 36.7676L20.7285 37.4414H21.8125V36.7676Z" fill="#FFF0B3"/>
</g>
</svg>
