<svg width="24" height="24" viewBox="0 0 24 24" fill="none" xmlns="http://www.w3.org/2000/svg">
<path d="M7.125 17.25C7.125 16.8358 7.46078 16.5 7.875 16.5H16.125C16.5392 16.5 16.875 16.8358 16.875 17.25C16.875 17.6642 16.5392 18 16.125 18H7.875C7.46078 18 7.125 17.6642 7.125 17.25Z" fill="white"/>
<path fill-rule="evenodd" clip-rule="evenodd" d="M15.2398 1.85637C13.3376 0.38121 10.6624 0.38121 8.76019 1.85637L2.7602 6.50925C1.49296 7.49197 0.75 8.99734 0.75 10.5943V18.0586C0.75 20.935 3.10981 23.25 6 23.25H18C20.8902 23.25 23.25 20.935 23.25 18.0586V10.5943C23.25 8.99734 22.507 7.49197 21.2398 6.50925L15.2398 1.85637ZM9.67943 3.04172C11.0407 1.98609 12.9593 1.98609 14.3206 3.04172L20.3206 7.69459C21.225 8.39591 21.75 9.46541 21.75 10.5943V18.0586C21.75 20.0881 20.0803 21.75 18 21.75H6C3.91965 21.75 2.25 20.0881 2.25 18.0586V10.5943C2.25 9.46541 2.77503 8.39591 3.67941 7.69459L9.67943 3.04172Z" fill="white"/>
</svg>
