<svg width="24" height="24" viewBox="0 0 24 24" fill="none" xmlns="http://www.w3.org/2000/svg">
<g clip-path="url(#clip0_6018_4897)">
<path d="M13.2001 20.2396C13.2001 21.7196 12.0038 22.9196 10.5238 22.9196C9.04011 22.9196 7.84375 21.7196 7.84375 20.2396C7.84375 18.7633 9.04011 17.5669 10.5238 17.5669C12.0038 17.5669 13.2001 18.7633 13.2001 20.2396Z" fill="#42DEF4"/>
<path d="M13.2001 20.2396C13.1601 20.2396 13.142 20.0796 13.0474 19.7814C12.9565 19.4905 12.7856 19.0432 12.3565 18.6105C11.942 18.1886 11.222 17.7886 10.3201 17.8868C9.88015 17.9341 9.41106 18.1123 9.01833 18.4505C8.6256 18.785 8.31651 19.2868 8.22197 19.8759C8.13106 20.465 8.26197 21.0541 8.55288 21.505C8.84015 21.9596 9.25833 22.2941 9.70924 22.4614C10.1529 22.6432 10.622 22.6577 11.0329 22.5923C11.4438 22.5159 11.8001 22.345 12.0801 22.1377C12.6474 21.7159 12.8983 21.1777 13.022 20.8177C13.142 20.4505 13.1565 20.2359 13.2001 20.2396C13.2256 20.2396 13.2874 20.4541 13.2365 20.8686C13.1783 21.2759 12.9856 21.9196 12.3638 22.4832C12.0547 22.7559 11.6438 22.9959 11.1456 23.1232C10.6511 23.2396 10.0692 23.2505 9.49469 23.0432C8.92015 22.8541 8.36742 22.4432 7.98924 21.865C7.60378 21.2905 7.42197 20.5268 7.54197 19.7668C7.66197 18.9996 8.07288 18.3559 8.58924 17.9341C9.1056 17.5123 9.71651 17.3014 10.2729 17.2686C10.8329 17.2359 11.3456 17.3523 11.7492 17.5632C12.1601 17.7668 12.4692 18.0432 12.6911 18.3196C13.1383 18.8796 13.2438 19.4141 13.2656 19.745C13.2838 20.0796 13.222 20.2396 13.2001 20.2396Z" fill="black"/>
<path d="M12.2877 3.83302C12.2877 4.69121 11.5458 5.38212 10.6295 5.38212C9.41857 5.38212 8.49857 4.01848 9.26584 2.9603C10.1277 1.77848 12.2877 2.28757 12.2877 3.83302Z" fill="#42DEF4"/>
<path d="M12.2881 3.83327C12.2554 3.83327 12.2081 3.73873 12.1536 3.56782C12.0736 3.40782 11.9645 3.16418 11.699 2.95691C11.4445 2.74964 11.019 2.57509 10.5172 2.62964C10.2699 2.65509 10.0081 2.73873 9.79357 2.90964C9.57903 3.07691 9.40084 3.34236 9.3463 3.64055C9.24812 4.25509 9.71721 4.82236 10.2008 4.99691C10.6918 5.19327 11.2081 5.07327 11.5354 4.866C11.8736 4.65509 12.0481 4.36782 12.1354 4.16782C12.2263 3.96055 12.2518 3.83327 12.2881 3.83327C12.3136 3.83327 12.3681 3.96055 12.3463 4.21873C12.3208 4.46964 12.1972 4.87691 11.7972 5.21873C11.4154 5.55327 10.7427 5.81145 9.98994 5.57873C9.6263 5.46236 9.26266 5.22964 9.00448 4.87327C8.73903 4.52418 8.58266 4.03691 8.65903 3.52418C8.75357 3.01873 9.04084 2.62236 9.3863 2.36782C9.73539 2.11327 10.1281 2.01509 10.4736 2.00418C11.1754 1.986 11.7136 2.29509 12.0045 2.63327C12.3063 2.97509 12.3572 3.32418 12.3645 3.52418C12.3536 3.74236 12.3208 3.83327 12.2881 3.83327Z" fill="black"/>
<path d="M3.12339 17.1851C3.71248 16.1051 4.02157 14.8942 4.02884 13.6651C4.02884 13.6578 4.02884 13.6542 4.02884 13.6469C4.03248 12.4287 3.94884 11.1706 4.18157 9.96692C4.51975 8.20692 5.53066 6.60692 7.03248 5.60692C8.14521 4.86874 9.46884 4.50146 10.7998 4.50146C12.6834 4.50146 14.6034 5.28328 15.9125 6.67965C17.1052 7.95601 17.5452 9.66874 17.6434 11.3742C17.6725 11.916 17.6798 12.7778 17.6725 13.5778C17.6616 14.8796 17.9961 16.1596 18.6398 17.2906L18.9234 17.7851H2.79248L3.12339 17.1851Z" fill="#F4CD42"/>
<path d="M3.12367 17.1849C3.14185 17.1958 3.05822 17.4031 2.85822 17.8213L2.79276 17.7122C4.54185 17.6103 9.78912 17.4976 18.9237 17.454L18.6364 17.9485C18.3637 17.4794 18.0509 16.9558 17.84 16.3813C17.6219 15.8103 17.4619 15.1958 17.3855 14.5558C17.3455 14.2358 17.3273 13.9085 17.3273 13.5776C17.3237 13.2649 17.3164 12.9485 17.3128 12.6285C17.2982 11.9885 17.32 11.3267 17.2328 10.6794C17.1164 9.68307 16.8509 8.73762 16.3964 7.92671C15.9491 7.1158 15.2837 6.46853 14.5491 5.97035C13.0655 4.97762 11.3019 4.65398 9.75276 4.89035C8.97458 5.00307 8.24731 5.25035 7.60367 5.59944C6.96367 5.94853 6.41458 6.39944 5.96003 6.90126C5.05458 7.91216 4.5564 9.10125 4.36367 10.1994C4.17458 11.3085 4.21094 12.3376 4.19276 13.2285C4.20367 14.1267 4.0764 14.9013 3.90185 15.4903C3.73094 16.0831 3.52731 16.5122 3.37822 16.7885C3.23276 17.0613 3.13458 17.1922 3.12367 17.1849C3.08003 17.1667 3.42185 16.6067 3.69458 15.4358C3.82549 14.8467 3.90912 14.1158 3.86185 13.2322C3.84367 12.3449 3.76367 11.3085 3.92731 10.1267C4.09822 8.94853 4.60003 7.65762 5.5564 6.54126C6.0364 5.98853 6.62549 5.48307 7.32367 5.08671C8.02185 4.69398 8.81094 4.41035 9.66185 4.2758C11.3528 3.9958 13.2873 4.32671 14.9237 5.40671C15.7346 5.94126 16.4873 6.66853 17 7.58489C17.5128 8.49398 17.7964 9.53398 17.9237 10.5922C18.0182 11.2903 17.9928 11.9558 18.0073 12.6103C18.0109 12.9376 18.0146 13.2613 18.0182 13.5776C18.0146 13.8794 18.0328 14.1776 18.0655 14.4685C18.1346 15.054 18.2764 15.614 18.4728 16.134C18.6655 16.6613 18.9346 17.1231 19.2109 17.614C19.3019 17.7703 19.2473 17.974 19.0873 18.0613C19.0364 18.0903 18.9782 18.1049 18.9237 18.1049C9.79276 18.0649 4.54185 17.9485 2.79276 17.8467H2.78549C2.74549 17.8431 2.7164 17.8103 2.72003 17.774C2.72003 17.7631 2.72367 17.7522 2.73094 17.7413C2.97458 17.3558 3.10549 17.174 3.12367 17.1849Z" fill="black"/>
<path d="M20.655 18.8282C20.655 19.81 19.7277 19.9554 18.9496 19.9554C13.3641 19.9518 7.77501 19.9518 2.18955 19.9518C1.57137 19.9518 1.06592 19.4464 1.06592 18.8282C1.06592 18.21 1.57137 17.7045 2.18955 17.7045H2.56774C7.77865 17.7045 12.9968 17.6136 18.2114 17.5664C19.0914 17.5591 20.655 17.6282 20.655 18.8282Z" fill="#FC9231"/>
<path d="M20.6554 18.8277C20.6336 18.8277 20.6263 18.7259 20.5645 18.5514C20.5063 18.3768 20.3535 18.1259 20.0117 17.9695C19.6772 17.8059 19.1863 17.7368 18.5972 17.7368C18.0081 17.7477 17.2881 17.7804 16.4772 17.8023C14.8481 17.8532 12.7972 17.9004 10.3063 17.9441C9.05901 17.9623 7.70264 17.9841 6.23355 18.0059C5.49901 18.0132 4.73537 18.0241 3.94628 18.0314C3.54991 18.035 3.14991 18.0386 2.73901 18.0423C2.54264 18.0423 2.34264 18.0459 2.13901 18.0459C1.99355 18.0532 1.85537 18.1041 1.73537 18.1914C1.49173 18.3623 1.3681 18.6714 1.41901 18.955C1.46264 19.2386 1.68082 19.4823 1.94628 19.5695C2.01173 19.5877 2.08082 19.6059 2.14991 19.6059C2.21901 19.6095 2.34264 19.6059 2.43355 19.6095H3.02628C3.41901 19.6095 3.80446 19.6132 4.18628 19.6132C5.71355 19.6241 7.14991 19.6314 8.49537 19.6386C11.1863 19.6604 13.5026 19.6932 15.3936 19.7295C16.339 19.7514 17.179 19.7695 17.9099 19.7841C18.6408 19.7914 19.259 19.8604 19.7208 19.7659C20.1972 19.6895 20.4626 19.4132 20.5426 19.1841C20.6336 18.9659 20.6299 18.8277 20.6554 18.8277C20.6626 18.8277 20.6699 18.8604 20.6735 18.9259C20.6808 18.9914 20.6772 19.0932 20.6445 19.2241C20.6154 19.355 20.539 19.515 20.3899 19.6604C20.2445 19.8059 20.0263 19.915 19.7754 19.9841C19.5245 20.0568 19.2335 20.0859 18.9208 20.0932C18.6117 20.1004 18.2772 20.1114 17.9135 20.1223C17.1863 20.1368 16.3463 20.155 15.3972 20.1768C13.5063 20.2095 11.1899 20.2423 8.49901 20.2641C7.15355 20.2714 5.71355 20.2786 4.18991 20.2895C3.8081 20.2895 3.42264 20.2932 3.02991 20.2932C2.83355 20.2932 2.63719 20.2932 2.43719 20.2932C2.33173 20.2932 2.25173 20.2968 2.12082 20.2895C1.98992 20.2859 1.85901 20.2604 1.73537 20.2204C1.22992 20.0641 0.826279 19.6095 0.739006 19.0714C0.637188 18.5368 0.877188 17.9514 1.33173 17.6314C1.55719 17.4714 1.82628 17.3732 2.09901 17.3586C2.17173 17.355 2.22628 17.355 2.27719 17.355H2.43355H2.74264C3.15355 17.3514 3.55355 17.3477 3.94991 17.3477C4.73901 17.3441 5.50264 17.3404 6.23719 17.3332C7.70628 17.3295 9.06264 17.3259 10.3063 17.3223C12.7972 17.3223 14.8517 17.3368 16.4772 17.355C17.2954 17.3695 17.9936 17.3695 18.6117 17.3986C19.2263 17.4386 19.7499 17.5477 20.1172 17.7732C20.4954 17.9877 20.6445 18.3223 20.6699 18.5223C20.6954 18.7295 20.6663 18.8314 20.6554 18.8277Z" fill="black"/>
<path d="M23.102 5.04653V8.50471C23.102 8.90107 22.9457 9.28653 22.662 9.56653L20.2184 12.0102C19.9384 12.2902 19.5566 12.4502 19.1566 12.4502H15.6984C15.302 12.4502 14.9166 12.2938 14.6366 12.0102L12.1929 9.56653C11.9129 9.28653 11.7529 8.90471 11.7529 8.50471V5.04653C11.7529 4.65017 11.9093 4.26471 12.1929 3.98471L14.6366 1.54107C14.9166 1.26107 15.2984 1.10107 15.6984 1.10107H19.1566C19.5529 1.10107 19.9384 1.25744 20.2184 1.54107L22.662 3.98471C22.9457 4.26471 23.102 4.64653 23.102 5.04653Z" fill="#FF5757"/>
<path d="M23.1015 5.04544C23.0833 5.04544 23.0724 4.95817 23.0251 4.79453C22.9778 4.63453 22.8869 4.38726 22.6615 4.14726C22.1524 3.67817 21.3524 2.94726 20.3088 1.94726C20.1778 1.82726 20.0397 1.67817 19.9197 1.5909C19.7888 1.49635 19.6324 1.42362 19.4688 1.38726C19.3051 1.34362 19.1342 1.35453 18.9015 1.35817C18.6833 1.36181 18.4615 1.36544 18.2324 1.36908C17.7742 1.37635 17.2942 1.38362 16.7888 1.3909C16.5378 1.39453 16.276 1.39817 16.0142 1.40181C15.8906 1.40544 15.7306 1.40181 15.6288 1.40908C15.5197 1.41635 15.4142 1.43817 15.3088 1.47453C15.2069 1.5109 15.1051 1.56181 15.0142 1.62726C14.9233 1.68908 14.8506 1.76908 14.7415 1.88181C14.5379 2.08908 14.3306 2.29999 14.1197 2.51453C13.6942 2.94362 13.2542 3.3909 12.796 3.85272C12.6797 3.96908 12.5669 4.08544 12.4469 4.20544C12.3488 4.30362 12.276 4.40544 12.2142 4.52181C12.156 4.63817 12.116 4.76544 12.1015 4.89999C12.0869 5.01635 12.0942 5.20544 12.0942 5.37999C12.0942 6.08181 12.0942 6.80908 12.0979 7.56544V8.12544C12.1015 8.30362 12.0906 8.51817 12.1051 8.63817C12.1415 8.92544 12.2651 9.16908 12.4942 9.38362C12.9997 9.89272 13.4906 10.3873 13.9706 10.8673C14.2106 11.1073 14.4433 11.3473 14.676 11.58L14.8506 11.7545C14.9051 11.8091 14.9451 11.8454 14.996 11.8854C15.0979 11.9618 15.2106 12.0236 15.3269 12.0636C15.4469 12.1036 15.5706 12.1254 15.6942 12.1254C15.8506 12.1254 16.0069 12.1291 16.1597 12.1291C16.4688 12.1327 16.7742 12.1327 17.0724 12.1364C17.6688 12.1436 18.2469 12.1473 18.8033 12.1545C18.9378 12.1545 19.0724 12.1582 19.2033 12.1582C19.3124 12.1545 19.4215 12.1364 19.5269 12.1073C19.7415 12.0418 19.9124 11.9327 20.076 11.7654C20.8142 11.0527 21.4869 10.4054 22.0906 9.81999C22.2397 9.67453 22.3888 9.53635 22.5306 9.39817C22.6542 9.27817 22.7488 9.13635 22.8106 8.98726C22.876 8.83817 22.9124 8.68181 22.9197 8.52908C22.9233 8.35453 22.9306 8.1909 22.9342 8.0309C22.956 7.38362 22.9778 6.83453 22.9924 6.39453C23.0324 5.50726 23.0688 5.04544 23.1015 5.04544C23.1342 5.04544 23.1742 5.5109 23.2106 6.39453C23.2251 6.83817 23.2469 7.38362 23.2688 8.0309C23.2724 8.19453 23.276 8.36181 23.2833 8.53999C23.2833 8.73635 23.2506 8.93999 23.1742 9.13635C23.1015 9.33272 22.9851 9.52544 22.8324 9.68908C22.6942 9.83453 22.5524 9.98362 22.4069 10.1364C21.8215 10.74 21.1742 11.4127 20.4615 12.1509C20.276 12.3545 19.9997 12.5509 19.7015 12.6454C19.5524 12.6964 19.3924 12.7254 19.2288 12.7327C19.0869 12.7364 18.9488 12.7364 18.8033 12.74C18.2469 12.7473 17.6724 12.7509 17.0724 12.7582C16.7742 12.7618 16.4688 12.7618 16.1597 12.7654C16.0033 12.7654 15.8469 12.7691 15.6906 12.7691C15.5015 12.7691 15.3088 12.74 15.1233 12.6782C14.9378 12.62 14.7633 12.5254 14.6033 12.4091C14.5269 12.3509 14.4469 12.2782 14.3851 12.22L14.2106 12.0454C13.9779 11.8127 13.7378 11.58 13.4978 11.34C13.0178 10.8636 12.5233 10.3691 12.0142 9.86362C11.716 9.59453 11.4688 9.15817 11.4251 8.71453C11.3997 8.4709 11.4142 8.3109 11.4106 8.11817C11.4106 7.93272 11.4106 7.74362 11.4106 7.55817C11.4106 6.80544 11.4106 6.07817 11.4142 5.37271C11.4178 5.19453 11.4033 5.03453 11.4324 4.80908C11.4579 4.59817 11.5233 4.39453 11.6179 4.20908C11.7088 4.02362 11.8397 3.85272 11.9778 3.71817C12.0942 3.60181 12.2142 3.48544 12.3306 3.36908C12.796 2.9109 13.2397 2.4709 13.6688 2.04544C13.8833 1.83453 14.0942 1.62726 14.3015 1.42362C14.396 1.33272 14.5197 1.20181 14.6651 1.10362C14.8069 1.00544 14.9597 0.932715 15.116 0.87817C15.276 0.823624 15.4397 0.794533 15.5997 0.787261C15.7706 0.783624 15.8797 0.787261 16.0178 0.787261C16.2833 0.790897 16.5415 0.794533 16.7924 0.79817C17.2978 0.805443 17.7778 0.812715 18.236 0.819988C18.4651 0.823624 18.6869 0.827261 18.9051 0.830897C19.0178 0.834533 19.1269 0.834533 19.236 0.83817C19.3597 0.845442 19.4797 0.867261 19.5924 0.896352C19.8215 0.95817 20.0324 1.06726 20.2069 1.20544C20.3888 1.35453 20.4978 1.49272 20.6288 1.61999C21.6288 2.6709 22.356 3.44181 22.8324 3.9909C23.0651 4.29635 23.1197 4.58362 23.1342 4.76181C23.1415 4.95817 23.116 5.04544 23.1015 5.04544Z" fill="black"/>
<path d="M18.7387 3.16241L18.4151 7.05695C18.3933 7.37332 18.1315 7.62059 17.8115 7.62059H17.0478C16.7315 7.62059 16.4624 7.37332 16.4406 7.05695L16.1169 3.16241C16.0951 2.80968 16.3715 2.51514 16.7278 2.51514H18.1351C18.4878 2.51514 18.7678 2.80968 18.7387 3.16241Z" fill="white"/>
<path d="M18.7391 3.16206C18.6991 3.16206 18.6991 3.01661 18.55 2.84934C18.4772 2.76934 18.3572 2.69297 18.2082 2.68934C18.15 2.6857 18.0263 2.70388 17.91 2.71115C17.7936 2.71843 17.6663 2.72934 17.5318 2.73661C17.3972 2.74388 17.2554 2.75479 17.1027 2.76206C17.0263 2.7657 16.95 2.76934 16.8663 2.77297L16.7427 2.78024C16.7027 2.78388 16.6882 2.78388 16.6627 2.79115C16.5718 2.81297 16.4882 2.87479 16.4445 2.9657C16.4227 3.00934 16.4118 3.05661 16.4118 3.10752C16.4227 3.19479 16.43 3.28206 16.4409 3.37297C16.5318 4.19115 16.6263 5.15843 16.7172 6.27479C16.7391 6.54388 16.7609 6.80206 16.7827 7.06024C16.7972 7.17297 16.9027 7.27115 17.0154 7.28206C17.2554 7.2857 17.4882 7.28933 17.7136 7.29661H17.8009H17.8482C17.8772 7.29661 17.9027 7.28934 17.9282 7.27843C17.9791 7.26024 18.0227 7.22388 18.0554 7.18024C18.0882 7.13297 18.1063 7.09297 18.1136 7.02388C18.1245 6.91843 18.1391 6.81297 18.15 6.71115C18.1754 6.50388 18.1972 6.30752 18.2191 6.11843C18.27 5.74024 18.3136 5.39479 18.3536 5.08206C18.5318 3.83843 18.6736 3.15479 18.7391 3.16206C18.8045 3.1657 18.8336 3.86388 18.8009 5.11479C18.79 5.42752 18.7754 5.77661 18.7645 6.15843C18.7572 6.34752 18.7463 6.54752 18.7354 6.75479C18.7282 6.85661 18.7245 6.96206 18.7172 7.07115C18.7136 7.21297 18.6663 7.39115 18.5718 7.52933C18.4809 7.67115 18.35 7.79115 18.19 7.86388C18.11 7.90024 18.0227 7.92934 17.9354 7.94024C17.8918 7.94752 17.8409 7.94752 17.8045 7.95115H17.7172C17.5972 7.95479 17.4772 7.95479 17.3536 7.95843L17.1682 7.96206C17.1063 7.96206 17.0554 7.9657 16.9427 7.95843C16.55 7.92206 16.1863 7.60934 16.1136 7.18752C16.0954 7.07115 16.0954 7.02752 16.0882 6.95479L16.07 6.75115C16.0591 6.61661 16.0482 6.47843 16.0336 6.33661C15.9391 5.22024 15.8736 4.24934 15.8263 3.42752L15.8191 3.26752L15.8154 3.19115V3.08206C15.8263 2.93661 15.87 2.79479 15.9427 2.67479C16.0845 2.43479 16.3354 2.2857 16.5754 2.25297C16.6336 2.24206 16.7063 2.2457 16.7463 2.2457L16.87 2.25297C16.95 2.25661 17.03 2.26024 17.1063 2.26388C17.2591 2.27115 17.4009 2.28206 17.5354 2.28934C17.67 2.30024 17.7972 2.30752 17.9136 2.31479C18.0336 2.3257 18.1282 2.3257 18.2663 2.35479C18.5172 2.41661 18.6663 2.58388 18.7354 2.72206C18.8627 3.02388 18.7572 3.16934 18.7391 3.16206Z" fill="black"/>
<path d="M17.4081 10.6644C17.9283 10.6644 18.3499 10.2427 18.3499 9.72258C18.3499 9.20243 17.9283 8.78076 17.4081 8.78076C16.888 8.78076 16.4663 9.20243 16.4663 9.72258C16.4663 10.2427 16.888 10.6644 17.4081 10.6644Z" fill="white"/>
<path d="M18.3536 9.7222C18.2773 9.72947 18.2373 9.47493 17.95 9.24584C17.8082 9.13675 17.5973 9.04947 17.3573 9.09311C17.1245 9.12947 16.87 9.3222 16.8227 9.62765C16.7682 9.93675 16.9609 10.2131 17.1936 10.3149C17.43 10.4277 17.6918 10.384 17.87 10.2786C18.2373 10.0567 18.2773 9.70765 18.3536 9.7222C18.3827 9.7222 18.43 9.79856 18.4336 9.9622C18.4336 10.1186 18.3827 10.384 18.1463 10.624C17.9209 10.8604 17.47 11.0567 16.9754 10.8967C16.7318 10.8204 16.4954 10.6531 16.3318 10.4095C16.1645 10.1658 16.0845 9.8422 16.1391 9.51856C16.19 9.19129 16.3682 8.91856 16.59 8.74038C16.8118 8.5622 17.07 8.47856 17.3063 8.47129C17.7863 8.45675 18.1282 8.71493 18.2809 8.94765C18.4445 9.18765 18.4591 9.40584 18.4445 9.53311C18.43 9.66765 18.3827 9.7222 18.3536 9.7222Z" fill="black"/>
</g>
<defs>
<clipPath id="clip0_6018_4897">
<rect width="24" height="24" fill="white"/>
</clipPath>
</defs>
</svg>
