<svg width="30" height="30" viewBox="0 0 30 30" fill="none" xmlns="http://www.w3.org/2000/svg">
<path fill-rule="evenodd" clip-rule="evenodd" d="M15.3414 4.04388C13.2094 3.97288 11.0554 4.55454 9.19578 5.79588C7.10711 7.19154 5.64745 9.25254 4.97511 11.5565C4.78945 11.5339 4.56711 11.5439 4.30311 11.6185C3.31745 11.8982 2.57611 12.7059 2.24278 13.4172C1.81045 14.3442 1.62811 15.5702 1.82045 16.8359C2.01145 18.0975 2.54445 19.1375 3.21111 19.7832C3.87978 20.4292 4.63478 20.6392 5.38478 20.4815C6.50145 20.2432 7.05511 20.0649 6.89878 19.0245L6.14178 13.9815C6.29445 11.2522 7.70745 8.68288 10.0708 7.10288C13.2341 4.98988 17.3814 5.12521 20.3988 7.44154C22.4978 9.05088 23.7164 11.4622 23.8571 13.9935L23.3278 17.5212C22.1471 20.7522 19.2201 22.9902 15.8331 23.3079H13.5778C12.9958 23.3079 12.5271 23.7765 12.5271 24.3579V24.9119C12.5271 25.4935 12.9958 25.9622 13.5778 25.9622H16.4214C17.0031 25.9622 17.4698 25.4935 17.4698 24.9119V24.6222C20.0238 23.9989 22.2531 22.4292 23.7048 20.2402L24.6158 20.4819C25.3571 20.6742 26.1211 20.4292 26.7894 19.7835C27.4561 19.1375 27.9888 18.0979 28.1801 16.8362C28.3731 15.5705 28.1854 14.3465 27.7581 13.4175C27.3291 12.4885 26.6901 11.8985 25.9524 11.6869C25.6434 11.5979 25.3081 11.5652 25.0204 11.5565C24.4124 9.47321 23.1608 7.57854 21.3568 6.19521C19.5831 4.83421 17.4734 4.11388 15.3414 4.04388Z" fill="#116EFC"/>
<path fill-rule="evenodd" clip-rule="evenodd" d="M18.6697 13.1162C19.4213 13.1162 20.0307 13.7255 20.0323 14.4792C20.0307 15.2309 19.4213 15.8419 18.6697 15.8419C17.916 15.8419 17.305 15.2309 17.305 14.4792C17.305 13.7259 17.9163 13.1162 18.6697 13.1162ZM14.9997 13.1162C15.753 13.1162 16.3623 13.7255 16.3623 14.4792C16.3623 15.2309 15.753 15.8419 14.9997 15.8419C14.2457 15.8419 13.6363 15.2309 13.6363 14.4792C13.6363 13.7259 14.2457 13.1162 14.9997 13.1162ZM11.331 13.1162C12.0827 13.1162 12.6937 13.7255 12.6937 14.4792C12.6937 15.2309 12.0827 15.8419 11.331 15.8419C10.5777 15.8419 9.96802 15.2309 9.96802 14.4792C9.96802 13.7259 10.5777 13.1162 11.331 13.1162ZM14.9997 7.26221C11.003 7.26221 7.78235 10.3769 7.78235 14.4792C7.78235 16.4495 8.52735 18.1909 9.74102 19.4685L9.31035 21.3992C9.16835 22.0345 9.60901 22.4619 10.18 22.1439L12.0653 21.0922C12.9613 21.4812 13.9523 21.6962 14.9997 21.6962C18.9977 21.6962 22.2163 18.5835 22.2163 14.4792C22.2163 10.3769 18.9977 7.26221 14.9997 7.26221Z" fill="#116EFC"/>
</svg>
