<svg width="24" height="24" viewBox="0 0 24 24" fill="none" xmlns="http://www.w3.org/2000/svg">
<path d="M7.3125 10.875C7.83027 10.875 8.25 10.4553 8.25 9.9375C8.25 9.41973 7.83027 9 7.3125 9C6.79473 9 6.375 9.41973 6.375 9.9375C6.375 10.4553 6.79473 10.875 7.3125 10.875Z" fill="white"/>
<path d="M7.3125 14.625C7.83027 14.625 8.25 14.2053 8.25 13.6875C8.25 13.1697 7.83027 12.75 7.3125 12.75C6.79473 12.75 6.375 13.1697 6.375 13.6875C6.375 14.2053 6.79473 14.625 7.3125 14.625Z" fill="white"/>
<path d="M7.3125 18.375C7.83027 18.375 8.25 17.9553 8.25 17.4375C8.25 16.9197 7.83027 16.5 7.3125 16.5C6.79473 16.5 6.375 16.9197 6.375 17.4375C6.375 17.9553 6.79473 18.375 7.3125 18.375Z" fill="white"/>
<path d="M10.125 9.9375C10.125 10.4553 10.5447 10.875 11.0625 10.875H16.6875C17.2053 10.875 17.625 10.4553 17.625 9.9375C17.625 9.41972 17.2053 9 16.6875 9H11.0625C10.5447 9 10.125 9.41972 10.125 9.9375Z" fill="white"/>
<path d="M16.6875 12.75H11.0625C10.5447 12.75 10.125 13.1697 10.125 13.6875C10.125 14.2053 10.5447 14.625 11.0625 14.625H16.6875C17.2053 14.625 17.625 14.2053 17.625 13.6875C17.625 13.1697 17.2053 12.75 16.6875 12.75Z" fill="white"/>
<path d="M16.6875 16.5H11.0625C10.5447 16.5 10.125 16.9197 10.125 17.4375C10.125 17.9553 10.5447 18.375 11.0625 18.375H16.6875C17.2053 18.375 17.625 17.9553 17.625 17.4375C17.625 16.9197 17.2053 16.5 16.6875 16.5Z" fill="white"/>
<path d="M18.5625 1.875C18.0447 1.875 17.625 2.29472 17.625 2.8125C17.625 3.33028 18.0447 3.75 18.5625 3.75C19.0794 3.75 19.5 4.17056 19.5 4.6875V21.1875C19.5 21.7044 19.0794 22.125 18.5625 22.125H5.4375C4.92056 22.125 4.5 21.7044 4.5 21.1875V4.6875C4.5 4.17056 4.92056 3.75 5.4375 3.75H8.41125C8.79825 4.84116 9.84033 5.625 11.0625 5.625H12.9375C14.4883 5.625 15.75 4.36331 15.75 2.8125C15.75 1.26169 14.4883 0 12.9375 0H11.0625C9.84033 0 8.7983 0.783844 8.41125 1.875H5.4375C3.88669 1.875 2.625 3.13669 2.625 4.6875V21.1875C2.625 22.7383 3.88669 24 5.4375 24H18.5625C20.1133 24 21.375 22.7383 21.375 21.1875V4.6875C21.375 3.13669 20.1133 1.875 18.5625 1.875ZM11.0625 1.875H12.9375C13.4544 1.875 13.875 2.29556 13.875 2.8125C13.875 3.32944 13.4544 3.75 12.9375 3.75H11.0625C10.5456 3.75 10.125 3.32944 10.125 2.8125C10.125 2.29556 10.5456 1.875 11.0625 1.875Z" fill="white"/>
</svg>
