<svg width="48" height="44" viewBox="0 0 48 44" fill="none" xmlns="http://www.w3.org/2000/svg">
<path d="M26.3438 43.0938H21.6562C10.0065 43.0938 0.5625 33.6498 0.5625 22C0.5625 10.3503 10.0064 0.90625 21.6562 0.90625H26.3438C37.9935 0.90625 47.4375 10.3502 47.4375 22C47.4375 33.6498 37.9936 43.0938 26.3438 43.0938Z" fill="#4182C3"/>
<path d="M21.6562 43.0938C33.306 43.0938 42.75 33.6498 42.75 22C42.75 10.3502 33.306 0.90625 21.6562 0.90625C10.0065 0.90625 0.5625 10.3502 0.5625 22C0.5625 33.6498 10.0065 43.0938 21.6562 43.0938Z" fill="#64AFE1"/>
<path d="M21.6562 38.4062C30.7172 38.4062 38.0625 31.0609 38.0625 22C38.0625 12.9391 30.7172 5.59375 21.6562 5.59375C12.5953 5.59375 5.25 12.9391 5.25 22C5.25 31.0609 12.5953 38.4062 21.6562 38.4062Z" fill="#4182C3"/>
<path d="M29.3213 28.5744C29.1744 28.3707 28.9386 28.25 28.6875 28.25H19.5996L24.7445 12.0807C24.82 11.8432 24.7778 11.5839 24.6307 11.3826C24.4835 11.1814 24.2493 11.0625 24 11.0625H21.6563C21.3165 11.0625 21.0158 11.2821 20.9121 11.6057L14.6621 31.1369C14.5862 31.3745 14.6282 31.6341 14.7752 31.8356C14.9223 32.0371 15.1568 32.1562 15.4063 32.1562H27.9063C28.2425 32.1562 28.5411 31.941 28.6475 31.6221L29.4287 29.2783C29.508 29.04 29.4681 28.7782 29.3213 28.5744Z" fill="#D7E6F0"/>
<path d="M15.4061 24.3441C15.079 24.3441 14.7742 24.1371 14.6651 23.8098C14.5287 23.4005 14.7499 22.958 15.1593 22.8216L24.5343 19.6966C24.9441 19.5601 25.386 19.7813 25.5225 20.1907C25.6589 20.6 25.4378 21.0425 25.0284 21.1789L15.6534 24.3039C15.5714 24.3312 15.488 24.3441 15.4061 24.3441Z" fill="white"/>
<path d="M15.4064 32.1566C15.3275 32.1566 15.2474 32.1446 15.1682 32.1193C14.7572 31.9878 14.5307 31.548 14.6621 31.1371L20.9121 11.6058C21.0436 11.1949 21.4835 10.9685 21.8943 11.0998C22.3053 11.2313 22.5318 11.6711 22.4004 12.082L16.1504 31.6133C16.0441 31.945 15.737 32.1566 15.4064 32.1566Z" fill="white"/>
</svg>
