<svg width="44" height="44" viewBox="0 0 44 44" fill="none" xmlns="http://www.w3.org/2000/svg">
<path d="M0 22C0 9.84974 9.84974 0 22 0C34.1503 0 44 9.84974 44 22C44 34.1503 34.1503 44 22 44C9.84974 44 0 34.1503 0 22Z" fill="#EDF8EC"/>
<path d="M32 22C32 16.4772 27.5228 12 22 12C16.4772 12 12 16.4772 12 22C12 27.5228 16.4772 32 22 32C27.5228 32 32 27.5228 32 22Z" stroke="#4BB543" stroke-width="1.5"/>
<path d="M18 22.75C18 22.75 19.6 23.6625 20.4 25C20.4 25 22.8 19.75 26 18" stroke="#4BB543" stroke-width="1.5" stroke-linecap="round" stroke-linejoin="round"/>
</svg>
