<svg width="40" height="40" viewBox="0 0 40 40" fill="none" xmlns="http://www.w3.org/2000/svg">
<path d="M0 20C0 8.95431 8.95431 0 20 0C31.0457 0 40 8.95431 40 20C40 31.0457 31.0457 40 20 40C8.95431 40 0 31.0457 0 20Z" fill="#116EFC"/>
<path d="M25.7858 14.2897C24.1522 12.5305 11.8649 16.8399 11.875 18.4133C11.8865 20.1974 16.6736 20.7463 18.0004 21.1185C18.7983 21.3424 19.012 21.5718 19.196 22.4086C20.0292 26.1979 20.4476 28.0826 21.401 28.1247C22.9208 28.1919 27.38 16.0065 25.7858 14.2897Z" stroke="white" stroke-width="1.5"/>
<path d="M18.625 21.375L21.25 18.75" stroke="white" stroke-width="1.5" stroke-linecap="round" stroke-linejoin="round"/>
</svg>
