<svg width="50" height="50" viewBox="0 0 50 50" fill="none" xmlns="http://www.w3.org/2000/svg">
<g clip-path="url(#clip0_4116_10267)">
<path d="M49.2501 31.0498C48.0598 35.8498 45.4724 40.1888 41.8153 43.5178C38.1582 46.8468 33.5958 49.0162 28.7054 49.7515C23.815 50.4868 18.8164 49.7549 14.3421 47.6484C9.86777 45.542 6.11882 42.1557 3.56963 37.918C1.02044 33.6803 -0.214429 28.7816 0.0212736 23.8419C0.256976 18.9021 1.95266 14.1433 4.89376 10.1676C7.83486 6.19181 11.8892 3.17783 16.5438 1.50698C21.1983 -0.163862 26.2439 -0.416478 31.0421 0.781099C37.4678 2.3849 42.9944 6.47327 46.4083 12.1484C49.8222 17.8236 50.8443 24.6217 49.2501 31.0498Z" fill="#26A17B"/>
<g opacity="0.24">
<path d="M24.9961 49.9922C22.9566 49.9778 20.9264 49.7155 18.9502 49.211C14.1663 48.0059 9.84592 45.412 6.53334 41.7561C3.22075 38.1002 1.06408 33.5458 0.334946 28.6666C-0.394186 23.7873 0.336835 18.8014 2.43594 14.3368C4.53504 9.87224 7.90834 6.12865 12.131 3.57756C15.4334 1.59074 19.1504 0.394452 22.9918 0.0821871C26.8331 -0.230078 30.6946 0.350135 34.2745 1.77749C37.8545 3.20484 41.0559 5.44067 43.6285 8.31026C46.2012 11.1798 48.0755 14.6055 49.1049 18.3194C50.1344 22.0334 50.2911 25.9351 49.5628 29.7196C48.8345 33.5042 47.2409 37.0691 44.9066 40.1357C42.5724 43.2024 39.5606 45.6877 36.1066 47.3976C32.6527 49.1074 28.8501 49.9954 24.9961 49.9922ZM24.9961 4.68676C20.466 4.69028 16.0671 6.2083 12.4989 8.99944C8.93068 11.7906 6.39812 15.6946 5.30392 20.0906C4.58588 22.7017 4.39728 25.4299 4.74919 28.115C5.1011 30.8 5.98642 33.3875 7.35308 35.7253C8.71973 38.0632 10.5401 40.1041 12.7072 41.728C14.8742 43.3519 17.3441 44.5261 19.9716 45.1814C22.5991 45.8367 25.3311 45.9599 28.0069 45.5438C30.6828 45.1277 33.2483 44.1807 35.5528 42.7585C37.8572 41.3362 39.854 39.4675 41.4255 37.2622C42.9971 35.0569 44.1118 32.5596 44.704 29.9172C45.4407 26.9237 45.4882 23.8021 44.8428 20.7876C44.1975 17.7731 42.8761 14.9445 40.9784 12.515C39.0807 10.0856 36.6562 8.11865 33.8877 6.7626C31.1192 5.40656 28.0789 4.69677 24.9961 4.68676Z" fill="white"/>
</g>
<g opacity="0.3">
<path d="M48.5002 16.5048L0.32026 29.0107C-0.674589 22.8646 0.66008 16.5685 4.06303 11.3547C7.46598 6.14084 12.6922 2.38467 18.7188 0.821347C24.7455 -0.741977 31.1386 9.4736e-05 36.6469 2.90232C42.1551 5.80454 46.382 10.658 48.5002 16.5127V16.5048Z" fill="white"/>
</g>
<path d="M44.6962 29.9171C43.7238 33.8146 41.6175 37.3361 38.6436 40.0364C35.6698 42.7367 31.962 44.4945 27.9891 45.0875C24.0162 45.6805 19.9567 45.0821 16.3239 43.3679C12.6912 41.6537 9.64832 38.9007 7.5802 35.4571C5.51207 32.0135 4.51156 28.034 4.7052 24.0217C4.89883 20.0095 6.2779 16.1448 8.66801 12.9164C11.0581 9.68794 14.3519 7.24077 18.1329 5.88435C21.9138 4.52793 26.0121 4.32318 29.9094 5.29599C35.1351 6.60037 39.6286 9.92708 42.4016 14.5444C45.1746 19.1616 46 24.6913 44.6962 29.9171Z" fill="#26A17B"/>
<path d="M37.4941 24.9963C37.4941 23.4341 33.2057 22.1062 27.5035 21.8015V19.2941H34.6196V14.0605H15.1617V19.2941H22.2778V21.8171C16.6849 22.1374 12.498 23.4341 12.498 24.9963C12.498 26.5586 16.6849 27.8553 22.2778 28.1833V37.1976H27.5035V28.1912C33.2057 27.8865 37.4941 26.5586 37.4941 24.9963ZM24.9961 26.5586C18.8799 26.5586 13.9197 25.6134 13.9197 24.4417C13.9197 23.4497 17.4738 22.6217 22.2778 22.3874V25.426C23.1448 25.4728 24.0587 25.5041 24.9961 25.5041C25.9334 25.5041 26.7068 25.5041 27.5035 25.4416V22.3717C32.4168 22.5905 36.0959 23.4341 36.0959 24.4339C36.0725 25.6056 31.1123 26.5586 24.9961 26.5586Z" fill="white"/>
</g>
<defs>
<clipPath id="clip0_4116_10267">
<rect width="50" height="50" fill="white"/>
</clipPath>
</defs>
</svg>
