<svg width="24" height="24" viewBox="0 0 24 24" fill="none" xmlns="http://www.w3.org/2000/svg">
<path d="M10.6484 2.63171L10.4794 3.19463C10.2382 3.99776 9.60506 4.62555 8.79529 4.84654L6.39248 5.50234C5.58173 5.72363 4.71863 5.50264 4.10955 4.92428L3.69345 4.5291C2.68076 5.02939 2.0785 6.16376 2.29363 7.3332C3.13287 11.8952 4.01936 15.261 5.53793 19.6604C5.97908 20.9385 7.31569 21.6343 8.59481 21.2852L14.5976 19.6469C15.1467 19.4971 15.6115 19.1747 15.9443 18.75H17.6718C17.1951 19.8678 16.2316 20.7558 14.9925 21.094L8.98976 22.7323C6.9486 23.2894 4.81901 22.1748 4.12001 20.1499C2.57707 15.6798 1.67133 12.2411 0.818383 7.60459C0.431615 5.50215 1.72234 3.46336 3.75803 2.90778L9.76635 1.26796C11.4986 0.795177 13.297 1.52624 14.2268 3H13.1304C12.8334 3 12.5546 3.03308 12.2913 3.09473C11.8209 2.75882 11.2415 2.58914 10.6484 2.63171Z" fill="white"/>
<path fill-rule="evenodd" clip-rule="evenodd" d="M15.5593 17.625H18.7374C20.9356 17.625 22.888 16.0237 23.1038 13.7701C23.298 11.7416 23.2987 9.9843 23.1061 7.97344C22.8905 5.72138 20.9379 4.125 18.7432 4.125H13.1304C10.9227 4.125 8.96572 5.73967 8.76033 8.0034C8.57928 9.99851 8.58003 11.7411 8.76172 13.7427C8.91071 15.3839 9.98253 16.6875 11.3998 17.2789L11.0846 18.1084C10.9783 18.3882 11.0484 18.7043 11.2631 18.9128C11.4778 19.1214 11.7959 19.1823 12.0724 19.0678L15.5593 17.625ZM13.125 8.25C12.7108 8.25 12.375 8.58577 12.375 9C12.375 9.41422 12.7108 9.75 13.125 9.75H18.75C19.1642 9.75 19.5 9.41422 19.5 9C19.5 8.58577 19.1642 8.25 18.75 8.25H13.125ZM12.375 12C12.375 11.5858 12.7108 11.25 13.125 11.25H15.75C16.1642 11.25 16.5 11.5858 16.5 12C16.5 12.4142 16.1642 12.75 15.75 12.75H13.125C12.7108 12.75 12.375 12.4142 12.375 12Z" fill="white"/>
</svg>
