<svg width="55" height="55" viewBox="0 0 55 55" fill="none" xmlns="http://www.w3.org/2000/svg">
<path d="M27.5 55C42.6878 55 55 42.6878 55 27.5C55 12.3122 42.6878 0 27.5 0C12.3122 0 0 12.3122 0 27.5C0 42.6878 12.3122 55 27.5 55Z" fill="#2AA81A"/>
<path d="M37.201 17.799C34.9126 15.4847 31.8723 14.0649 28.6288 13.7958C25.3854 13.5266 22.1526 14.426 19.5142 16.3315C16.8757 18.2369 15.0054 21.0229 14.241 24.1864C13.4766 27.35 13.8684 30.6826 15.3457 33.5825L13.8983 40.6095C13.8828 40.6797 13.8822 40.7524 13.8966 40.8228C13.9109 40.8932 13.9399 40.9599 13.9816 41.0184C14.0413 41.107 14.1266 41.1753 14.2262 41.2141C14.3258 41.2529 14.4349 41.2604 14.5388 41.2355L21.4138 39.6036C24.3058 41.0422 27.6145 41.4079 30.7509 40.6356C33.8872 39.8633 36.6478 38.0031 38.5412 35.3862C40.4347 32.7693 41.3381 29.5654 41.0907 26.3449C40.8432 23.1243 39.461 20.096 37.1901 17.799H37.201ZM35.0516 34.9395C33.469 36.5193 31.431 37.5633 29.2243 37.9249C27.0175 38.2864 24.753 37.9472 22.749 36.9549L21.7865 36.4773L17.5638 37.476V37.4217L18.4539 33.1628L17.9835 32.2365C16.9589 30.2271 16.5971 27.9447 16.9501 25.7169C17.3031 23.4891 18.3527 21.4304 19.9483 19.8362C21.9519 17.8347 24.668 16.7105 27.5 16.7105C30.3319 16.7105 33.0481 17.8347 35.0516 19.8362L35.0987 19.9013C37.0762 21.9091 38.1801 24.6171 38.1699 27.4352C38.1597 30.2533 37.0363 32.9532 35.0444 34.9467L35.0516 34.9395Z" fill="white"/>
<path d="M34.679 31.8419C34.1615 32.6561 33.3402 33.6511 32.3161 33.9008C30.5069 34.335 27.7533 33.9008 24.305 30.713L24.2615 30.6732C21.2619 27.8725 20.4658 25.5386 20.6431 23.6896C20.7481 22.6366 21.6237 21.6886 22.3619 21.0663C22.4792 20.9673 22.6181 20.8972 22.7674 20.8615C22.9167 20.8258 23.0723 20.8255 23.2217 20.8606C23.3712 20.8958 23.5103 20.9654 23.628 21.064C23.7457 21.1625 23.8388 21.2872 23.8997 21.4281L25.0106 23.9393C25.0831 24.1009 25.1103 24.2792 25.0892 24.4552C25.0682 24.6311 24.9997 24.798 24.8911 24.938L24.3267 25.6616C24.2093 25.8119 24.1395 25.9936 24.1259 26.1838C24.1124 26.3739 24.1558 26.5638 24.2507 26.7291C24.7869 27.5194 25.4284 28.2327 26.1576 28.8495C26.9421 29.6045 27.8318 30.2419 28.799 30.7419C28.9756 30.8131 29.1693 30.8301 29.3555 30.7907C29.5417 30.7514 29.712 30.6576 29.8448 30.5212L30.4925 29.8626C30.6157 29.7301 30.7732 29.6343 30.9476 29.5857C31.1219 29.5372 31.3063 29.5378 31.4803 29.5876L34.1217 30.3439C34.2714 30.3865 34.409 30.4637 34.5233 30.5693C34.6375 30.6749 34.7254 30.806 34.7796 30.9518C34.8339 31.0977 34.853 31.2542 34.8356 31.4089C34.8181 31.5635 34.7644 31.7119 34.679 31.8419Z" fill="white"/>
</svg>
